<svg width="1920" height="547" viewBox="0 0 1920 547" fill="none" xmlns="http://www.w3.org/2000/svg">
<g opacity="0.3">
<path d="M648.673 547.002C639.202 547.002 629.983 546.555 621.124 545.664C602.543 543.792 585.378 539.951 570.102 534.245C553.684 528.114 539.284 519.76 527.299 509.416C503.212 488.624 491.161 463.725 479.506 439.644C477.216 434.916 474.849 430.027 472.445 425.283C456.045 392.949 435.255 364.627 408.892 338.697C356.303 286.972 282.344 242.828 195.009 211.039C94.0064 174.276 -14.5879 155.963 -110.772 159.474C-167.304 161.539 -241.999 181.173 -275.382 214.704C-295.193 234.604 -296.791 256.688 -279.999 278.565L-280.332 278.657C-289.137 267.184 -292.973 255.682 -291.731 244.47C-290.591 234.186 -285.198 224.132 -275.697 214.589C-260.587 199.411 -235.668 185.959 -203.633 175.685C-174.032 166.193 -141.063 160.357 -110.794 159.252C-60.4578 157.416 -6.92279 161.491 48.3233 171.366C98.4032 180.319 147.82 193.602 195.199 210.847C282.586 242.654 356.589 286.822 409.208 338.578C435.585 364.525 456.386 392.863 472.797 425.214C475.204 429.958 477.571 434.85 479.857 439.578C491.502 463.641 503.545 488.523 527.6 509.284C550.862 529.365 582.351 541.529 621.186 545.439C674.966 550.854 740.274 539.528 795.879 515.14C876.011 479.995 931.624 428.84 985.408 379.371C994.836 370.7 1004.58 361.734 1014.23 353.076C1039.29 330.594 1073.22 301.461 1113.55 275.507C1154.77 248.979 1196.65 229.488 1241.6 215.919C1269.12 207.613 1298.28 202.017 1328.27 199.288C1355.97 196.765 1385.3 196.609 1415.43 198.819C1467.11 202.612 1522.78 213.326 1585.64 231.571C1709.42 267.499 1833.05 311.108 1953.12 361.188C2067.25 408.788 2179.18 462.651 2285.8 521.275L2285.55 521.438C2064.53 399.912 1828.99 302.454 1585.48 231.769C1447.91 191.834 1338.69 186.859 1241.77 216.115C1143.17 245.877 1074.29 299.588 1014.54 353.197C1004.89 361.853 995.143 370.819 985.716 379.49C931.917 428.977 876.286 480.147 796.099 515.316C770.187 526.681 741.036 535.546 711.801 540.95C696.357 543.806 681.005 545.672 666.166 546.5C660.252 546.837 654.415 547.002 648.673 547.002Z" fill="#FFE492"/>
<path d="M657.934 534.672C633.781 534.672 611.408 531.909 591.414 526.457C569.118 520.376 549.878 510.955 534.226 498.455C532.841 497.348 531.466 496.203 530.14 495.05C506.309 474.348 493.723 449.773 481.555 426.005C479.093 421.201 476.55 416.233 473.971 411.412C458.607 382.706 440.108 357.406 417.409 334.07C414.613 331.197 411.719 328.318 408.799 325.513C355.436 274.233 280.877 230.648 193.182 199.47C91.4503 163.335 -17.4517 145.779 -113.464 150.039C-169.586 152.555 -243.936 172.51 -277.462 205.784C-297.537 225.708 -299.809 247.836 -284.039 269.777L-284.376 269.865C-292.642 258.365 -296.038 246.841 -294.466 235.617C-293.023 225.308 -287.41 215.232 -277.777 205.669C-262.513 190.518 -237.667 177.05 -205.933 166.723C-176.602 157.178 -143.776 151.175 -113.497 149.819C-63.2227 147.589 -9.62903 151.274 45.793 160.771C95.9937 169.374 145.645 182.331 193.365 199.281C281.111 230.476 355.711 274.087 409.107 325.396C412.027 328.203 414.925 331.085 417.721 333.96C440.434 357.312 458.945 382.625 474.315 411.346C476.898 416.167 479.441 421.135 481.903 425.941C494.068 449.693 506.643 474.252 530.441 494.924C531.763 496.074 533.137 497.218 534.519 498.323C566.865 524.161 611.309 534.672 658.047 534.672C658.304 534.672 658.557 534.672 658.813 534.672C658.52 534.67 658.227 534.672 657.934 534.672ZM667.904 534.518C711.355 533.177 756.192 523.146 794.657 508.223C877.629 475.9 937.261 425.978 994.932 377.7C997.307 375.71 999.681 373.725 1002.06 371.739C1007.27 367.381 1013.45 362.221 1019.76 357.019C1048.06 333.691 1082.32 306.548 1121.77 282.118C1163.74 256.122 1205.68 236.832 1249.97 223.142C1277.18 214.739 1305.94 208.82 1335.44 205.548C1362.78 202.517 1391.67 201.661 1421.3 203.001C1472.49 205.319 1527.53 214.107 1589.57 229.869C1650.06 245.212 1699.78 259.655 1746.05 275.322C1811.59 297.538 1874.02 323.136 1926.45 345.244C2048.34 396.791 2167.93 455.322 2281.91 519.214L2281.66 519.375C2167.69 455.492 2048.11 396.964 1926.24 345.424C1873.82 323.318 1811.4 297.725 1745.87 275.516C1699.62 259.853 1649.91 245.415 1589.43 230.076C1454.29 195.739 1346.47 193.597 1250.14 223.34C1150.15 254.242 1078.95 308.613 1020.06 357.151C1013.74 362.353 1007.57 367.51 1002.35 371.871C999.978 373.855 997.604 375.842 995.229 377.832C937.539 426.126 877.885 476.065 794.855 508.412C774.267 516.399 752.359 522.743 729.738 527.267C708.681 531.473 687.924 533.906 667.904 534.518Z" fill="#FFE492"/>
<path d="M668.145 522.625C665.24 522.625 662.352 522.587 659.487 522.51C635.356 521.869 613.024 518.543 593.113 512.619C571.338 506.141 552.472 496.545 537.043 484.096C535.672 482.987 534.306 481.84 532.987 480.687C509.423 460.086 496.314 435.839 483.64 412.392C480.998 407.505 478.265 402.451 475.495 397.546C459.373 368.937 440.386 343.84 417.442 320.818C414.602 317.972 411.664 315.117 408.699 312.334C354.563 261.501 279.403 218.475 191.35 187.909C88.8926 152.402 -20.3173 135.601 -116.161 140.609C-170.124 143.473 -244.259 162.29 -279.507 196.834C-299.871 216.791 -302.835 238.979 -288.08 260.996L-288.421 261.078C-296.152 249.543 -299.102 237.992 -297.196 226.748C-295.445 216.406 -289.597 206.304 -279.818 196.719C-264.392 181.603 -239.627 168.13 -208.197 157.755C-179.142 148.164 -146.466 141.998 -116.194 140.391C-65.9783 137.769 -12.326 141.063 43.2682 150.181C93.5935 158.436 143.476 171.065 191.533 187.72C279.638 218.306 354.838 261.355 409.007 312.217C411.971 315.002 414.914 317.857 417.753 320.708C440.708 343.743 459.706 368.856 475.835 397.48C478.605 402.387 481.339 407.441 483.98 412.328C496.651 435.761 509.75 459.992 533.284 480.568C534.603 481.721 535.962 482.866 537.332 483.971C600.027 534.554 711.135 529.123 793.433 501.304C879.867 471.831 944.101 422.844 1006.22 375.471L1006.86 374.984C1012.87 370.392 1019.1 365.646 1025.29 360.96C1090.63 311.517 1162.45 260.706 1258.33 230.36C1285.25 221.859 1313.62 215.616 1342.63 211.805C1369.61 208.261 1398.07 206.705 1427.19 207.18C1477.97 208.008 1532.37 214.872 1593.51 228.163C1657.76 242.082 1706.12 254.877 1750.29 269.65C1813.23 290.741 1874.19 317.393 1927.98 340.908C2047.74 393.544 2165.51 452.84 2278.03 517.143L2277.77 517.302C2165.27 453.005 2047.51 393.716 1927.76 341.084C1873.98 317.573 1813.03 290.926 1750.11 269.841C1705.95 255.073 1657.62 242.283 1593.39 228.368C1460.86 199.557 1354.45 200.25 1258.5 230.552C1162.68 260.878 1090.89 311.667 1025.57 361.092C1019.38 365.778 1013.16 370.527 1007.14 375.117L1006.51 375.603C975.549 399.21 943.541 423.621 908.974 445.425C870.128 469.929 832.392 488.268 793.609 501.492C753.033 515.206 708.834 522.625 668.145 522.625Z" fill="#FFE492"/>
<path d="M2273.89 515.226C2162.85 450.515 2046.91 390.464 1929.29 336.743C1924.31 334.484 1919.32 332.214 1914.31 329.938C1863.37 306.776 1810.69 282.825 1754.36 264.166C1699.71 246.115 1644.32 235.078 1597.35 226.662C1467.69 203.288 1362.69 206.817 1266.88 237.763C1168.54 269.626 1092.33 322.526 1031.1 365.034C1027.43 367.586 1023.76 370.141 1020.09 372.699C1017.37 374.588 1014.66 376.477 1011.94 378.363C977.081 402.592 945.368 424.253 910.329 444.019C870.3 466.598 831.718 483.134 792.37 494.575C755.495 505.298 716.103 510.971 679.463 510.973C672.787 510.973 666.21 510.786 659.747 510.405C636.151 509.016 614.306 505.113 594.82 498.804C573.558 491.92 555.066 482.142 539.849 469.739C538.49 468.628 537.134 467.478 535.822 466.323C512.537 445.83 498.918 421.924 485.75 398.805C482.914 393.826 479.979 388.675 477.011 383.675C460.12 355.157 440.642 330.26 417.471 307.559C414.587 304.735 411.601 301.906 408.596 299.148C353.684 248.761 277.926 206.295 189.517 176.339C86.3347 141.459 -23.1792 125.417 -118.854 131.167C-184.261 135.176 -251.144 158.479 -281.504 187.834C-302.187 207.834 -305.855 230.092 -292.118 252.202L-292.463 252.279C-299.655 240.702 -302.162 229.116 -299.912 217.843C-297.842 207.464 -291.752 197.329 -281.815 187.718C-266.229 172.645 -241.544 159.173 -210.429 148.761C-181.652 139.13 -149.145 132.803 -118.891 130.949C-68.734 127.934 -15.0268 130.837 40.7396 139.577C91.1859 147.484 141.306 159.787 189.7 176.145C278.165 206.119 353.962 248.609 408.908 299.027C411.916 301.787 414.902 304.618 417.786 307.443C440.972 330.156 460.457 355.067 477.359 383.598C480.327 388.6 483.262 393.749 486.098 398.73C499.259 421.836 512.871 445.727 536.126 466.195C537.438 467.349 538.79 468.496 540.146 469.605C605.596 522.953 716.84 516.289 792.212 494.375C882.138 468.227 950.953 420.409 1011.67 378.218C1014.38 376.329 1017.1 374.441 1019.81 372.554C1023.48 369.996 1027.15 367.44 1030.83 364.889C1065.78 340.626 1100.29 317.047 1138.24 295.32C1181.87 270.332 1223.9 251.442 1266.71 237.57C1293.35 228.965 1321.31 222.398 1349.82 218.055C1376.47 213.993 1404.48 211.739 1433.09 211.351C1483.54 210.669 1537.31 215.609 1597.46 226.451C1644.45 234.871 1699.86 245.913 1754.54 263.975C1810.89 282.64 1863.58 306.597 1914.54 329.764C1919.54 332.04 1924.54 334.31 1929.52 336.569C2047.14 390.295 2163.1 450.352 2274.15 515.069L2273.89 515.226Z" fill="#FFE492"/>
<path d="M2270.01 513.152C2158.33 446.79 2044.22 385.975 1930.82 332.401C1924.04 329.196 1917.1 325.892 1910.38 322.698C1862.31 299.821 1812.6 276.165 1758.61 258.491C1704.69 240.904 1648.84 231.667 1601.31 224.953C1474.81 206.909 1371.2 213.271 1275.26 244.974C1183.75 275.324 1112.05 320.963 1042.72 365.098L1035.1 369.943C1029.09 373.771 1022.87 377.727 1016.74 381.608C947.34 425.49 877.863 466.617 791.132 487.653C770.086 492.758 748.475 496.296 726.894 498.174C703.719 500.188 681.208 500.217 659.982 498.257C636.928 496.129 615.578 491.658 596.525 484.968C575.79 477.688 557.668 467.731 542.667 455.377C541.315 454.259 539.971 453.108 538.67 451.954C515.671 431.583 501.561 408.028 487.916 385.249C484.871 380.166 481.72 374.909 478.54 369.804C460.864 341.374 440.903 316.677 417.512 294.302C414.588 291.507 411.558 288.7 408.505 285.964C352.82 236.024 276.465 194.117 187.693 164.771C83.7814 130.522 -26.0404 115.236 -121.55 121.732C-186.36 126.234 -252.939 149.7 -283.453 178.8C-304.48 198.85 -308.874 221.193 -296.159 243.416L-296.508 243.489C-303.161 231.861 -305.217 220.231 -302.619 208.925C-300.223 198.502 -293.88 188.327 -283.768 178.685C-268.012 163.663 -243.416 150.204 -212.631 139.761C-184.139 130.095 -151.808 123.616 -121.594 121.516C-71.4962 118.109 -17.734 120.62 38.2083 128.981C88.7791 136.54 139.13 148.516 187.865 164.579C276.689 193.941 353.087 235.874 408.806 285.843C411.858 288.581 414.892 291.39 417.816 294.186C441.221 316.571 461.194 341.281 478.877 369.727C482.057 374.832 485.208 380.091 488.253 385.174C501.89 407.94 515.993 431.484 538.967 451.831C540.264 452.98 541.608 454.129 542.957 455.247C606.832 507.853 712.964 506.376 790.989 487.451C877.651 466.432 947.098 425.32 1016.47 381.458C1022.6 377.577 1028.82 373.621 1034.83 369.793L1042.45 364.948C1076.48 343.285 1111.67 320.881 1149.89 300.041C1193.18 276.438 1234.13 258.363 1275.08 244.781C1301.44 236.068 1329.01 229.178 1357 224.304C1383.32 219.721 1410.9 216.766 1438.97 215.523C1489.21 213.297 1542.33 216.313 1601.39 224.737C1648.94 231.456 1704.82 240.695 1758.77 258.297C1812.8 275.978 1862.52 299.641 1910.61 322.524C1917.32 325.718 1924.26 329.02 1931.05 332.227C2044.45 385.806 2158.58 446.625 2270.26 512.993L2270.01 513.152Z" fill="#FFE492"/>
<path d="M2266.12 511.078C2155.41 443.979 2043.11 382.403 1932.35 328.062C1924.03 323.979 1915.49 319.733 1907.24 315.627C1861.76 292.997 1814.73 269.597 1762.85 252.82C1709.19 235.535 1653.08 228.172 1605.27 223.25C1482.28 210.392 1380.07 219.589 1283.63 252.191C1199.47 280.762 1130.37 321.254 1063.54 360.411C1056.51 364.532 1049.24 368.792 1042.15 372.919C1033.83 377.767 1027.47 381.45 1021.54 384.857C989.769 403.098 951.942 424.101 912.246 441.571C870.179 460.082 830.157 472.894 789.89 480.739C768.715 484.865 747.196 487.467 725.927 488.47C703.089 489.549 680.977 488.757 660.209 486.113C637.708 483.249 616.856 478.21 598.225 471.137C578.021 463.467 560.276 453.332 545.481 441.018C544.147 439.902 542.81 438.749 541.513 437.591C518.818 417.356 504.235 394.165 490.129 371.737C486.857 366.535 483.475 361.158 480.063 355.934C461.593 327.583 441.144 303.088 417.544 281.046C414.576 278.275 411.502 275.494 408.406 272.78C351.947 223.287 274.992 181.939 185.861 153.203C81.2272 119.584 -28.9023 105.057 -124.244 112.295C-178.493 116.504 -249.348 135.893 -285.351 169.719C-306.756 189.831 -311.893 212.276 -300.201 234.626L-300.549 234.692C-306.665 223.005 -308.262 211.325 -305.302 199.975C-302.568 189.499 -295.962 179.28 -285.659 169.601C-269.735 154.64 -245.23 141.203 -214.786 130.738C-186.58 121.043 -154.443 114.417 -124.288 112.077C-74.2482 108.278 -20.4274 110.397 35.6834 118.38C86.3752 125.591 136.961 137.241 186.033 153.009C275.215 181.761 352.215 223.133 408.707 272.655C411.803 275.369 414.88 278.154 417.848 280.927C441.459 302.98 461.919 327.488 480.401 355.852C483.815 361.078 487.197 366.456 490.469 371.658C504.565 394.074 519.144 417.252 541.813 437.465C543.11 438.621 544.444 439.772 545.778 440.886C598.917 485.12 690.133 499.939 789.776 480.526C880.014 462.946 953.624 423.544 1021.29 384.694C1027.22 381.287 1033.57 377.604 1041.89 372.756C1048.98 368.629 1056.25 364.369 1063.28 360.248C1096.18 340.971 1130.2 321.038 1166.49 302.373C1207.52 281.264 1245.78 264.785 1283.46 251.995C1309.57 243.167 1336.73 235.954 1364.19 230.556C1390.2 225.442 1417.35 221.79 1444.87 219.697C1494.98 215.888 1547.47 216.978 1605.34 223.027C1653.17 227.954 1709.31 235.32 1763.02 252.62C1814.93 269.408 1861.98 292.814 1907.47 315.451C1915.72 319.556 1924.26 323.803 1932.58 327.886C2043.35 382.233 2155.66 443.814 2266.38 510.918L2266.12 511.078Z" fill="#FFE492"/>
<path d="M2262.24 509.005C2152.48 441.164 2042.01 378.824 1933.87 323.722C1924.67 319.035 1915.23 314.115 1906.09 309.358C1862.56 286.697 1817.56 263.266 1767.09 247.146C1713.39 230.068 1657.16 224.619 1609.23 221.542C1491.81 213.8 1388.04 226.184 1292 259.403C1215.53 285.973 1149.98 321.518 1086.58 355.895C1073.78 362.838 1060.54 370.018 1047.67 376.862C1039.79 381.052 1032.82 384.73 1026.33 388.107C996.173 403.794 956.055 423.907 913.186 440.345C870.112 456.859 829.372 467.811 788.639 473.823C744.213 480.381 699.874 480.429 660.42 473.966C638.484 470.371 618.126 464.767 599.912 457.306C580.248 449.252 562.88 438.94 548.286 426.663C546.964 425.545 545.637 424.389 544.348 423.232C521.975 403.151 506.938 380.341 492.399 358.283C488.882 352.947 485.247 347.43 481.579 342.07C462.299 313.794 441.363 289.497 417.572 267.797C414.561 265.049 411.442 262.293 408.302 259.603C351.07 210.557 273.518 169.766 184.028 141.644C78.6723 108.657 -31.765 94.8872 -126.942 102.867C-191.443 108.392 -255.846 131.595 -287.195 160.6C-309.011 180.784 -314.906 203.345 -304.244 225.845L-304.595 225.905C-310.168 214.147 -311.304 202.405 -307.974 191.007C-304.896 180.471 -298.007 170.2 -287.503 160.479C-271.41 145.589 -247.001 132.182 -216.912 121.708C-189.003 111.994 -157.067 105.223 -126.993 102.647C-77.012 98.4556 -23.1325 100.186 33.1505 107.787C83.9668 114.651 134.787 125.975 184.196 141.446C273.737 169.586 351.334 210.399 408.603 259.475C411.743 262.165 414.861 264.924 417.876 267.673C441.678 289.387 462.625 313.695 481.916 341.984C485.584 347.344 489.219 352.863 492.736 358.199C507.268 380.246 522.297 403.045 544.648 423.106C545.938 424.264 547.26 425.415 548.583 426.534C600.81 470.481 690.516 488.079 788.551 473.609C877.924 460.417 955.535 424.638 1026.09 387.942C1032.57 384.565 1039.55 380.889 1047.42 376.699C1060.29 369.855 1073.53 362.677 1086.33 355.734C1149.74 321.351 1215.31 285.797 1291.82 259.216C1317.7 250.263 1344.46 242.728 1371.37 236.815C1397.1 231.162 1423.81 226.81 1450.75 223.88C1500.84 218.431 1552.7 217.597 1609.27 221.326C1657.22 224.406 1713.5 229.856 1767.26 246.954C1817.76 263.086 1862.78 286.526 1906.33 309.195C1915.47 313.952 1924.91 318.87 1934.11 323.557C2042.25 378.663 2152.74 441.007 2262.5 508.853L2262.24 509.005Z" fill="#FFE492"/>
<path d="M2258.35 506.931C2149.58 438.341 2040.92 375.242 1935.4 319.383C1925.71 314.249 1915.73 308.814 1906.09 303.557C1864.15 280.705 1820.78 257.074 1771.33 241.473C1717.41 224.54 1661.13 221.033 1613.19 219.836C1500.21 216.806 1397.88 232.108 1300.38 266.616C1231.99 290.932 1171.04 321.707 1112.08 351.467C1091.81 361.701 1072.66 371.368 1053.19 380.805C1045.27 384.646 1038.05 388.098 1031.13 391.354C986.446 412.343 949.271 427.52 914.133 439.112C870.051 453.656 828.596 462.748 787.398 466.904C771.415 468.515 755.491 469.319 739.857 469.319C712.142 469.319 685.325 466.8 660.637 461.812C615.958 452.784 579.105 436.127 551.101 412.302C549.782 411.172 548.467 410.017 547.192 408.863C525.16 388.956 509.701 366.551 494.752 344.881C490.964 339.391 487.05 333.716 483.104 328.197C463 299.987 441.572 275.893 417.61 254.538C414.554 251.815 411.392 249.083 408.208 246.417C350.203 197.818 272.049 157.586 182.2 130.073C76.1227 97.7201 -34.6187 84.7057 -129.63 93.4275C-194.399 99.4966 -256.944 122.259 -288.964 151.418C-311.223 171.685 -317.899 194.381 -308.277 217.053L-308.633 217.108C-313.656 205.269 -314.323 193.457 -310.611 181.999C-307.174 171.393 -299.997 161.064 -289.268 151.297C-273.007 136.488 -248.704 123.126 -218.981 112.652C-191.373 102.922 -159.661 96.0184 -129.685 93.2095C-79.7631 88.6263 -25.825 89.9647 30.6266 97.1874C81.5675 103.706 132.618 114.703 182.368 129.875C272.269 157.405 350.466 197.659 408.508 246.287C411.692 248.955 414.854 251.687 417.914 254.412C441.891 275.778 463.329 299.885 483.441 328.107C487.387 333.625 491.304 339.303 495.089 344.793C510.031 366.452 525.482 388.849 547.496 408.738C548.771 409.889 550.082 411.045 551.401 412.172C603.694 456.665 689.689 476.535 787.335 466.684C880.288 457.306 962.619 423.253 1030.9 391.178C1037.82 387.922 1045.04 384.472 1052.96 380.631C1072.43 371.194 1091.58 361.53 1111.85 351.296C1170.81 321.529 1231.78 290.75 1300.19 266.425C1325.88 257.333 1352.24 249.474 1378.56 243.064C1404.05 236.856 1430.32 231.804 1456.64 228.051C1506.84 220.894 1558.06 218.134 1613.21 219.613C1661.19 220.811 1717.51 224.322 1771.5 241.274C1820.99 256.886 1864.37 280.529 1906.33 303.39C1915.98 308.647 1925.95 314.082 1935.64 319.213C2041.16 375.077 2149.83 438.183 2258.61 506.777L2258.35 506.931Z" fill="#FFE492"/>
<path d="M2254.47 504.857C2145.15 434.538 2041.28 372.449 1936.93 315.042C1926.97 309.565 1917.17 303.971 1906.79 298.05C1866.22 274.9 1824.26 250.965 1775.58 235.8C1720.98 218.874 1662.23 217.465 1617.15 218.13C1509.31 219.512 1408.43 237.733 1308.75 273.833C1248.94 295.597 1193.72 321.734 1140.32 347.012C1112.25 360.297 1085.74 372.843 1058.71 384.75C1050.68 388.287 1043.23 391.51 1035.92 394.603C990.63 413.746 952.231 427.495 915.071 437.877C869.967 450.478 827.797 457.709 786.152 459.985C764.754 461.154 743.503 460.934 722.988 459.331C701.268 457.634 680.361 454.378 660.85 449.656C617.603 439.189 581.626 421.792 553.915 397.945C552.607 396.813 551.303 395.655 550.035 394.502C528.373 374.8 512.526 352.821 497.2 331.567C493.111 325.897 488.883 320.032 484.629 314.331C463.681 286.182 441.771 262.289 417.643 241.286C414.539 238.587 411.333 235.879 408.113 233.237C349.335 185.085 270.584 145.412 180.375 118.51C97.1143 93.782 11.2515 80.8798 -67.4847 80.8798C-89.7436 80.8798 -111.416 81.9101 -132.32 83.9948C-196.308 90.5019 -258.461 113.345 -290.668 142.192C-313.399 162.554 -320.885 185.404 -312.315 208.27L-312.674 208.318C-317.148 196.387 -317.334 184.493 -313.231 172.969C-309.427 162.286 -301.938 151.889 -290.975 142.069C-274.546 127.353 -250.356 114.045 -221.015 103.582C-193.318 93.7049 -162.669 86.8565 -132.385 83.779C-82.5218 78.804 -28.5251 79.7528 28.0987 86.5946C79.1605 92.7627 130.449 103.433 180.537 118.309C270.796 145.227 349.595 184.922 408.41 233.103C411.634 235.745 414.844 238.455 417.947 241.156C442.086 262.17 464.008 286.074 484.966 314.236C489.22 319.938 493.452 325.802 497.541 331.475C512.86 352.72 528.699 374.69 550.343 394.376C551.611 395.527 552.915 396.685 554.219 397.815C606.04 442.407 690.561 464.984 786.123 459.763C882.82 454.477 970.302 422.065 1035.72 394.418C1043.02 391.325 1050.47 388.102 1058.5 384.567C1085.53 372.664 1112.03 360.117 1140.1 346.834C1193.51 321.553 1248.73 295.41 1308.56 273.639C1359.89 255.053 1410.25 241.508 1462.53 232.227C1512.96 223.276 1563.54 218.592 1617.15 217.905C1647.74 217.454 1672.7 218.237 1695.69 220.368C1725.38 223.12 1751.57 228.102 1775.75 235.599C1824.48 250.778 1866.46 274.726 1907.05 297.887C1917.43 303.808 1927.23 309.4 1937.18 314.877C2041.54 372.286 2145.42 434.379 2254.74 504.703L2254.47 504.857Z" fill="#FFE492"/>
<path d="M2250.58 502.784C2142.27 431.693 2040.17 368.865 1938.45 310.701C1928.39 304.946 1918.47 299.018 1907.97 292.742C1868.61 269.227 1827.91 244.909 1779.82 230.125C1724.77 213.278 1666.09 213.951 1621.11 216.419C1519.35 221.81 1419.91 242.95 1317.12 281.042C1266.48 299.901 1218.26 321.483 1171.63 342.356C1134.76 358.855 1099.95 374.441 1064.23 388.686C1056.16 391.908 1048.24 394.99 1040.71 397.843C995.335 415.023 954.544 427.709 916.009 436.629C869.868 447.31 826.984 452.685 784.907 453.06C763.498 453.249 742.331 452.087 722.006 449.601C700.7 446.995 680.196 442.92 661.063 437.487C619.3 425.629 584.195 407.492 556.726 383.579C555.436 382.449 554.139 381.289 552.875 380.129C531.62 360.667 515.429 339.153 499.769 318.348C495.339 312.462 490.755 306.373 486.15 300.453C464.345 272.358 441.947 248.667 417.676 228.022C414.529 225.348 411.279 222.664 408.014 220.047C348.463 172.341 269.111 133.228 178.544 106.935C71.0268 75.8519 -40.3338 64.3521 -135.016 74.5532C-198.176 81.4764 -259.915 104.379 -292.301 132.898C-315.546 153.368 -323.863 176.39 -316.359 199.478L-316.718 199.519C-320.632 187.485 -320.331 175.498 -315.821 163.895C-311.633 153.124 -303.825 142.652 -292.605 132.772C-276.015 118.162 -251.946 104.921 -223 94.4798C-195.622 84.6045 -165.222 77.6394 -135.082 74.3352C-85.2731 68.9705 -31.2214 69.5253 25.571 75.9884C76.7574 81.8132 128.277 92.1573 178.701 106.735C269.324 133.041 348.719 172.179 408.304 219.913C411.572 222.53 414.826 225.216 417.973 227.893C442.258 248.548 464.664 272.25 486.479 300.357C491.089 306.276 495.669 312.365 500.102 318.254C515.755 339.05 531.939 360.555 553.179 380.004C554.443 381.161 555.74 382.322 557.026 383.449C609.393 429.034 690.32 453.681 784.899 452.835C861.642 452.153 942.866 434.617 1040.52 397.652C1048.04 394.799 1055.95 391.719 1064.02 388.496C1099.73 374.254 1134.55 358.672 1171.4 342.173C1218.04 321.298 1266.27 299.712 1316.93 280.848C1368.75 261.641 1418.3 247.104 1468.42 236.399C1519.18 225.555 1569.12 218.944 1621.08 216.192C1666.1 213.72 1724.85 213.049 1779.99 229.922C1828.13 244.724 1868.85 269.053 1908.23 292.579C1918.73 298.855 1928.65 304.781 1938.71 310.533C2040.43 368.7 2142.53 431.533 2250.85 502.628L2250.58 502.784Z" fill="#FFE492"/>
<path d="M2246.7 500.71C2139.39 428.847 2039.07 365.274 1939.98 306.362C1929.93 300.381 1919.99 294.166 1909.48 287.586C1871.24 263.651 1831.69 238.901 1784.07 224.452C1728.5 207.666 1669.91 210.429 1625.08 214.711C1529.32 223.681 1434.13 247.051 1325.5 288.256C1284.75 303.78 1244.93 320.809 1206.43 337.277C1159.66 357.279 1115.49 376.173 1069.75 392.628C1061.51 395.596 1053.35 398.444 1045.51 401.09C999.317 416.663 957.265 427.881 916.949 435.383C894.368 439.585 872.076 442.63 850.693 444.433C827.884 446.354 805.332 446.929 783.663 446.141C739.698 444.54 698.522 437.536 661.281 425.323C621.061 412.132 586.832 393.258 559.546 369.219C558.263 368.081 556.977 366.919 555.721 365.765C534.92 346.589 518.439 325.586 502.504 305.276C497.679 299.128 492.692 292.771 487.676 286.585C464.992 258.535 442.107 235.045 417.712 214.768C414.52 212.115 411.223 209.456 407.918 206.865C347.593 159.604 267.644 121.05 176.718 95.3712C68.4825 64.9244 -43.1822 54.1818 -137.707 65.1203C-238.918 77.0142 -337.542 128.405 -320.395 190.692L-320.758 190.727C-325.048 175.146 -322.535 159.796 -313.29 145.1C-304.848 131.678 -290.995 119.047 -272.114 107.56C-254.56 96.8792 -233.499 87.6577 -209.522 80.1511C-186.717 73.0121 -161.908 67.7377 -137.78 64.9024C-88.0299 59.1458 -33.9196 59.3109 23.045 65.3955C74.356 70.8746 126.11 80.893 176.872 95.1731C267.849 120.869 347.846 159.446 408.207 206.733C411.516 209.326 414.813 211.985 418.008 214.64C442.414 234.926 465.311 258.43 488.006 286.49C493.022 292.676 498.009 299.033 502.834 305.184C518.765 325.487 535.239 346.481 556.028 365.646C557.281 366.8 558.564 367.962 559.846 369.098C612.289 415.295 691.784 442.577 783.685 445.923C861.487 448.752 947.071 434.027 1045.33 400.901C1053.17 398.255 1061.32 395.409 1069.56 392.441C1115.29 375.99 1159.46 357.098 1206.22 337.099C1244.73 320.629 1284.55 303.597 1325.3 288.071C1433.98 246.848 1529.21 223.47 1625.02 214.493C1655.14 211.616 1680.08 210.695 1703.52 211.6C1733.47 212.756 1759.87 216.895 1784.23 224.254C1831.9 238.719 1871.47 263.484 1909.74 287.432C1920.25 294.01 1930.18 300.224 1940.24 306.203C2039.33 365.12 2139.66 428.695 2246.96 500.563L2246.7 500.71Z" fill="#FFE492"/>
<path d="M2242.81 498.636C2136.53 425.989 2037.97 361.677 1941.51 302.02C1931.53 295.848 1921.67 289.382 1911.23 282.534C1874.02 258.141 1835.54 232.916 1788.31 218.776C1731.53 201.85 1670.22 207.373 1629.04 213C1517.27 228.084 1417.11 263.151 1333.87 295.469C1303.96 307.132 1274.12 319.486 1245.25 331.433C1187.36 355.399 1132.68 378.035 1075.28 396.571C1066.83 399.298 1058.44 401.911 1050.31 404.339C1003.22 418.382 959.904 428.129 917.899 434.134C870.282 440.943 824.705 442.656 782.426 439.222C738.992 435.693 698.307 426.923 661.506 413.153C622.905 398.712 589.552 379.101 562.365 354.862C561.097 353.723 559.818 352.559 558.569 351.401C538.285 332.577 521.599 312.151 505.459 292.396C500.171 285.922 494.701 279.23 489.205 272.716C465.297 244.314 442.591 221.691 417.753 201.513C414.518 198.885 411.18 196.252 407.827 193.683C346.722 146.872 266.172 108.876 174.887 83.805C65.9335 53.9966 -46.0391 44.0091 -140.402 55.685C-241.976 68.4198 -338.586 119.113 -324.435 181.906L-324.798 181.935C-328.308 166.356 -325.271 151.021 -315.773 136.358C-307.068 122.923 -293.133 110.278 -274.352 98.7786C-256.838 88.0537 -235.887 78.764 -212.078 71.1627C-189.409 63.9247 -164.647 58.4983 -140.476 55.4671C-90.7805 49.3187 -36.6152 49.0942 20.5179 54.7979C71.9535 59.9314 123.942 69.624 175.041 83.6047C266.381 108.689 346.975 146.706 408.109 193.547C411.462 196.118 414.803 198.753 418.042 201.381C442.895 221.568 465.609 244.204 489.527 272.617C495.023 279.131 500.494 285.825 505.781 292.299C521.917 312.048 538.6 332.467 558.869 351.282C560.119 352.44 561.394 353.602 562.661 354.741C615.511 401.858 693.573 431.783 782.47 439.004C862.199 445.48 949.754 434.075 1050.14 404.141C1058.27 401.715 1066.67 399.104 1075.1 396.377C1132.49 377.846 1187.16 355.214 1245.05 331.25C1273.91 319.303 1303.75 306.947 1333.67 295.282C1389.64 273.553 1436.2 257.498 1480.19 244.759C1531.98 229.763 1580.64 219.305 1628.95 212.784C1658.41 208.76 1684.08 206.938 1707.43 207.215C1737.51 207.572 1764.02 211.287 1788.47 218.578C1835.77 232.735 1874.26 257.976 1911.49 282.384C1921.94 289.231 1931.8 295.696 1941.77 301.864C2038.24 361.523 2136.8 425.84 2243.09 498.489L2242.81 498.636Z" fill="#FFE492"/>
<path d="M2238.93 496.56C2133.67 423.128 2036.88 358.073 1943.04 297.677C1933.2 291.344 1923.46 284.654 1913.15 277.57C1876.92 252.686 1839.47 226.955 1792.56 213.101C1735.16 196.215 1674.01 203.979 1633 211.29C1531.74 229.189 1441.41 263.27 1342.25 302.681C1324.36 309.816 1306.27 317.179 1288.78 324.303C1221.49 351.696 1151.92 380.021 1080.8 400.511C1072.16 403.003 1063.51 405.383 1055.1 407.584C1007.69 419.982 961.846 428.492 918.841 432.88C870.124 437.85 823.811 437.654 781.176 432.301C738.351 426.923 698.161 416.385 661.718 400.98C624.84 385.39 592.354 365.043 565.167 340.505C563.911 339.364 562.643 338.198 561.401 337.04C541.729 318.656 524.937 298.895 508.698 279.785C502.846 272.899 496.797 265.78 490.718 258.852C465.876 230.479 442.698 208.049 417.775 188.264C414.503 185.666 411.117 183.055 407.717 180.506C345.85 134.135 264.707 96.6985 173.055 72.2393C63.3869 43.0693 -48.8897 33.839 -143.099 46.2502C-241.449 59.3482 -339.842 108.262 -328.48 173.118L-328.843 173.14C-331.573 157.561 -328.011 142.244 -318.261 127.614C-309.296 114.164 -295.277 101.508 -276.598 89.9954C-242.134 68.7568 -193.505 52.7332 -143.18 46.0323C-93.5432 39.4943 -39.3193 38.8779 17.986 44.2008C69.5461 48.9909 121.766 58.3554 173.201 72.0368C264.904 96.5092 346.096 133.97 408.003 180.363C411.407 182.914 414.792 185.525 418.068 188.125C443.002 207.922 466.191 230.36 491.041 258.744C497.119 265.674 503.172 272.793 509.024 279.679C525.259 298.785 542.047 318.542 561.709 336.916C562.947 338.074 564.215 339.239 565.472 340.379C619.864 389.474 694.478 421.184 781.246 432.083C861.591 442.174 953.675 433.864 1054.95 407.382C1063.35 405.18 1071.99 402.803 1080.63 400.313C1151.73 379.829 1221.29 351.509 1288.56 324.12C1306.06 316.996 1324.15 309.633 1342.04 302.498C1385.44 285.246 1435.95 265.458 1486.08 248.937C1538.52 231.657 1586.54 219.274 1632.89 211.081C1662.07 205.879 1687.74 203.18 1711.35 202.832C1741.12 202.392 1768.49 205.782 1792.71 212.906C1813.72 219.111 1834.87 228.372 1857.37 241.219C1877.23 252.563 1895.63 265.203 1913.42 277.425C1923.72 284.507 1933.46 291.197 1943.3 297.528C2037.15 357.926 2133.94 422.982 2239.2 496.417L2238.93 496.56Z" fill="#FFE492"/>
<path d="M2235.04 494.486C2130.82 420.261 2035.8 354.465 1944.57 293.338C1934.9 286.866 1925.33 279.974 1915.2 272.678C1879.92 247.277 1843.44 221.01 1796.8 207.43C1753.22 194.779 1700.93 195.484 1636.96 209.583C1547.51 229.186 1467.56 261.975 1382.9 296.693C1372.36 301.016 1361.47 305.485 1350.62 309.899C1346.37 311.631 1342.12 313.368 1337.88 315.103C1257.22 348.055 1173.81 382.129 1086.32 404.456C1077.47 406.714 1068.59 408.86 1059.9 410.833C1011.45 421.824 964.307 428.82 919.797 431.625C869.955 434.764 822.898 432.664 779.941 425.382C737.783 418.234 698.087 405.928 661.956 388.806C626.935 372.21 595.322 351.13 567.992 326.147C566.746 325.004 565.49 323.836 564.255 322.675C545.33 304.869 528.593 285.904 512.401 267.565C505.847 260.137 499.064 252.457 492.253 244.981C466.451 216.628 442.803 194.392 417.822 175.007C414.502 172.431 411.077 169.847 407.632 167.322C344.981 121.399 263.237 84.5203 171.226 60.673C60.8473 32.1436 -51.7408 23.6684 -145.793 36.8148C-242.336 50.4213 -340.59 99.736 -332.519 164.332L-332.885 164.35C-334.831 148.769 -330.749 133.469 -320.746 118.877C-311.516 105.411 -297.417 92.7401 -278.837 81.2182C-244.52 59.9356 -196.059 43.6742 -145.877 36.6013C-96.2953 29.6714 -42.0165 28.6632 15.4574 33.6074C67.1421 38.0498 119.6 47.0885 171.373 60.4705C263.435 84.3331 345.23 121.232 407.907 167.179C411.351 169.704 414.785 172.292 418.104 174.868C443.096 194.264 466.759 216.507 492.568 244.871C499.383 252.347 506.162 260.029 512.72 267.457C528.904 285.792 545.642 304.752 564.559 322.552C565.794 323.712 567.047 324.879 568.293 326.021C623.865 376.82 697.083 411.101 780.036 425.164C861.924 439.045 956.038 434.152 1059.77 410.621C1068.45 408.649 1077.33 406.505 1086.17 404.249C1173.64 381.931 1257.03 347.863 1337.67 314.916C1341.92 313.179 1346.16 311.444 1350.41 309.712C1361.26 305.298 1372.15 300.829 1382.69 296.508C1467.37 261.784 1547.35 228.986 1636.83 209.374C1665.73 203.003 1691.39 199.431 1715.27 198.447C1745.16 197.216 1772.64 200.173 1796.96 207.23C1817.85 213.312 1838.73 222.615 1860.81 235.671C1880.28 247.191 1898.18 260.076 1915.48 272.535C1925.62 279.828 1935.18 286.719 1944.84 293.188C2036.08 354.318 2131.1 420.116 2235.32 494.343L2235.04 494.486Z" fill="#FFE492"/>
<path d="M2231.16 492.413C2136.03 423.247 2040.12 354.807 1946.09 288.998C1936.52 282.336 1927.03 275.18 1916.99 267.605C1884.33 242.963 1847.3 215.034 1801.05 201.758C1756.95 189.129 1704.58 191.13 1640.92 207.873C1565.23 227.716 1498.24 256.893 1427.33 287.782C1405.12 297.455 1382.15 307.46 1358.99 317.111C1318.56 333.993 1274.82 351.857 1228.97 368.127C1179.87 385.553 1135.01 398.724 1091.83 408.397C1082.76 410.428 1073.63 412.341 1064.68 414.078C1015.2 423.683 966.785 429.149 920.768 430.324C869.827 431.623 822.026 427.634 778.688 418.459C698.659 401.306 628.713 365.417 570.795 311.788C569.561 310.643 568.315 309.472 567.087 308.312C549.123 291.291 532.678 273.335 516.777 255.968C509.291 247.795 501.553 239.342 493.767 231.115C466.983 202.768 442.859 180.729 417.848 161.755C414.481 159.202 411.011 156.641 407.526 154.143C344.113 108.663 261.768 72.3451 169.398 49.1077C58.3047 21.2166 -54.5875 13.5008 -148.485 27.3803C-245.615 41.819 -341.407 90.4798 -336.56 155.547L-336.926 155.556C-338.088 139.971 -333.478 124.689 -323.23 110.133C-313.733 96.6502 -299.553 83.966 -281.079 72.4354C-263.675 61.5717 -243.047 52.0729 -219.769 44.2009C-197.169 36.56 -173.218 30.8277 -148.577 27.1646C-99.0504 19.8451 -44.713 18.4451 12.9295 23.0085C64.7387 27.1096 117.427 35.8203 169.537 48.9029C261.962 72.1536 344.355 108.493 407.805 153.995C411.289 156.496 414.766 159.058 418.134 161.612C443.155 180.596 467.29 202.645 494.085 231.001C501.871 239.229 509.61 247.683 517.095 255.858C532.997 273.223 549.438 291.177 567.395 308.191C568.619 309.353 569.868 310.522 571.099 311.667C628.973 365.254 698.857 401.114 778.809 418.25C861.165 435.684 959.98 434.17 1064.57 413.867C1073.51 412.13 1082.64 410.219 1091.7 408.19C1188.25 386.566 1276.58 351.25 1358.78 316.928C1381.94 307.278 1404.9 297.275 1427.11 287.602C1498.04 256.706 1565.04 227.523 1640.77 207.671C1704.52 190.901 1757 188.9 1801.2 201.558C1821.92 207.504 1842.49 216.824 1864.09 230.048C1883.13 241.708 1900.49 254.804 1917.28 267.466C1927.32 275.041 1936.8 282.195 1946.37 288.852C2040.4 354.664 2136.31 423.104 2231.44 492.272L2231.16 492.413Z" fill="#FFE492"/>
<path d="M2227.27 490.339C2133.6 420.79 2039.51 351.588 1947.62 284.656C1938.35 277.923 1929.15 270.64 1919.4 262.931C1887.54 237.715 1851.43 209.133 1805.29 196.081C1760.67 183.474 1708.2 186.771 1644.87 206.159C1578.53 226.442 1517.57 255.081 1458.63 282.781C1429.07 296.669 1398.5 311.031 1367.36 324.32C1318.2 345.317 1276.84 361.334 1237.2 374.729C1188.31 391.246 1142.56 403.547 1097.35 412.335C1088.07 414.14 1078.69 415.817 1069.48 417.321C1021.46 425.151 974.314 429.113 929.209 429.116C926.703 429.116 924.212 429.102 921.72 429.078C869.574 428.567 821.033 422.663 777.446 411.533C756.407 406.131 735.804 399.274 716.213 391.151C697.797 383.517 679.701 374.524 662.425 364.425C631.343 346.255 602.287 324.338 573.605 297.426C572.374 296.269 571.146 295.108 569.926 293.944C553.284 278.066 537.54 261.467 522.316 245.415C513.526 236.15 504.439 226.567 495.287 217.24C467.107 188.504 443.235 167.3 417.877 148.494C414.466 145.965 410.952 143.429 407.423 140.955C343.241 95.926 260.298 60.1673 167.569 37.5396C55.7651 10.2891 -57.4349 3.33067 -151.179 17.9432C-246.487 32.842 -342.155 81.8726 -340.598 146.757L-340.964 146.76C-341.69 116.537 -321.754 87.7986 -283.315 63.652C-265.94 52.7377 -245.421 43.1707 -222.323 35.2106C-199.848 27.4663 -175.944 21.5842 -151.271 17.7275C-101.803 10.0162 -47.4065 8.22646 10.4045 12.409C62.3383 16.1667 115.262 24.5517 167.705 37.3327C260.492 59.9758 343.482 95.7565 407.705 140.812C411.234 143.288 414.755 145.826 418.166 148.356C443.536 167.173 467.418 188.383 495.605 217.13C504.758 226.459 513.849 236.042 522.635 245.307C537.859 261.357 553.599 277.953 570.238 293.827C571.458 294.992 572.682 296.152 573.913 297.308C634.86 354.494 701.483 391.792 777.589 411.331C882.999 438.249 994.447 429.331 1069.38 417.109C1078.59 415.606 1087.96 413.931 1097.24 412.126C1201.22 391.913 1296.1 354.488 1367.15 324.142C1398.29 310.857 1428.85 296.495 1458.4 282.609C1517.37 254.905 1578.33 226.257 1644.71 205.965C1673.04 197.289 1698.69 191.962 1723.1 189.681C1753.22 186.868 1780.92 188.955 1805.44 195.885C1826.1 201.729 1846.48 211.125 1867.72 224.606C1886.44 236.484 1903.35 249.862 1919.7 262.801C1929.44 270.508 1938.63 277.788 1947.9 284.518C2039.79 351.45 2133.88 420.651 2227.56 490.201L2227.27 490.339Z" fill="#FFE492"/>
<path d="M2223.39 488.266L1949.15 280.317C1940.19 273.526 1931.3 266.136 1921.88 258.315C1890.81 232.502 1855.58 203.246 1809.53 190.41C1765 177.999 1710.94 182.723 1648.83 204.452C1589.13 225.341 1534.68 253.12 1482.02 279.985C1447.7 297.497 1412.2 315.603 1375.74 331.538C1266.13 379.435 1170.33 407.725 1074.28 420.57C1034.43 425.897 995.114 428.578 956.99 428.578C945.434 428.578 933.995 428.332 922.676 427.839C869.299 425.514 820.018 417.699 776.207 404.614C735.602 392.485 698.457 375.363 662.659 352.266C634.072 333.823 606.669 311.836 576.423 283.071C560.458 267.891 545 252.118 530.051 236.865C496.217 202.348 461.233 166.655 417.921 135.242C351.485 87.061 264.281 49.277 165.737 25.9736C53.2257 -0.634153 -60.282 -6.83755 -153.872 8.50805C-244.483 23.365 -342.829 70.2141 -344.639 137.972L-345.006 137.967C-344.196 107.681 -323.637 78.9468 -285.553 54.8707C-251.119 33.1015 -204.388 16.5606 -153.967 8.29452C-104.554 0.193556 -50.0997 -1.98798 7.87616 1.81375C59.9346 5.22584 113.092 13.2872 165.872 25.7688C214.633 37.2995 260.943 52.4778 303.519 70.8833C346.45 89.4429 385.036 111.047 418.199 135.097C461.53 166.521 496.525 202.222 530.366 236.748C545.315 251.999 560.773 267.77 576.734 282.948C620.863 324.919 683.438 376.653 776.372 404.412C882.951 436.246 997.155 430.65 1074.19 420.35C1170.21 407.514 1265.95 379.235 1375.52 331.356C1411.97 315.427 1447.46 297.321 1481.78 279.813C1534.45 252.944 1588.92 225.158 1648.65 204.259C1710.86 182.492 1765.04 177.763 1809.69 190.207C1830.31 195.955 1850.49 205.432 1871.4 219.184C1889.8 231.289 1906.26 244.962 1922.18 258.183C1931.59 266.004 1940.49 273.39 1949.44 280.179L2223.68 488.127L2223.39 488.266Z" fill="#FFE492"/>
<path d="M2221.18 472.279C2151.35 414.379 2091.43 367.396 2032.62 324.423C2004.08 303.548 1974.92 283.001 1945.97 263.351C1937.21 257.408 1928.54 251.086 1919.35 244.391C1896.27 227.566 1872.4 210.169 1844.93 197.258C1830.18 190.313 1815.98 185.34 1801.52 182.056C1757.14 171.874 1705.07 178.606 1646.75 202.066C1616.57 214.189 1589.09 227.985 1566.19 239.881C1541.95 252.475 1518.03 266.363 1494.9 279.793C1461.66 299.099 1427.28 319.061 1390.33 336.205C1367.84 346.668 1345.05 356.017 1322.58 363.995C1277.62 379.955 1229.36 393.106 1179.15 403.082C1148.13 409.178 1116.95 413.785 1086.5 416.775C1060.26 419.341 1033.96 420.823 1008.35 421.177C970.012 421.71 932.661 419.678 897.333 415.132C859.769 410.298 824.221 402.582 791.677 392.196C762.658 382.935 735.247 371.275 707.881 356.546C656.885 329.121 616.21 297.411 586.473 272.848C571.865 260.725 557.601 248.362 543.806 236.407C504.084 201.976 466.564 169.455 419.614 140.488C381.321 117.017 337.631 96.7622 289.746 80.2829C252.948 67.6185 212.926 57.2612 170.794 49.497C160.758 47.6501 150.531 45.9286 140.408 44.3855C96.8206 37.7528 47.752 33.4338 -5.43134 31.5472C-59.0506 29.6012 -105.441 31.2853 -147.244 36.7006C-170.877 39.7384 -193.773 44.5044 -215.307 50.8641C-291.328 73.3178 -340.143 111.012 -345.889 151.697L-346.347 151.673C-344.815 140.827 -340.319 130.143 -332.988 119.916C-326.022 110.201 -316.456 100.832 -304.555 92.0689C-282.069 75.5148 -251.276 61.1796 -215.508 50.6153C-193.942 44.2446 -171.009 39.4721 -147.339 36.4298C-105.492 31.0101 -59.0653 29.3239 -5.40204 31.2721C47.8106 33.1586 96.9048 37.4821 140.521 44.1191C150.656 45.6645 160.886 47.3859 170.929 49.2351C213.095 57.0036 253.15 67.3698 289.977 80.0452C337.895 96.5355 381.621 116.808 419.932 140.294C466.913 169.279 504.439 201.808 544.176 236.248C557.967 248.204 572.231 260.565 586.836 272.685C616.558 297.237 657.214 328.932 708.181 356.339C735.518 371.052 762.9 382.702 791.886 391.952C855.577 412.277 928.4 422.018 1008.33 420.902C1033.93 420.548 1060.2 419.066 1086.43 416.502C1116.86 413.512 1148.01 408.909 1179 402.818C1229.19 392.848 1277.41 379.706 1322.34 363.755C1344.8 355.784 1367.58 346.439 1390.04 335.985C1426.98 318.85 1461.35 298.892 1494.58 279.593C1517.71 266.16 1541.63 252.268 1565.89 239.669C1588.8 227.767 1616.29 213.966 1646.5 201.835C1672.46 191.389 1697.6 184.173 1721.22 180.385C1750.24 175.731 1777.31 176.207 1801.68 181.798C1816.19 185.094 1830.42 190.08 1845.21 197.04C1872.72 209.971 1896.6 227.379 1919.7 244.215C1928.89 250.907 1937.56 257.23 1946.31 263.169C1975.27 282.82 2004.43 303.37 2032.98 324.25C2091.79 367.227 2151.71 414.214 2221.55 472.119L2221.18 472.279Z" fill="#FFE492"/>
<path d="M2218.97 456.289C2154.22 397.409 2093.46 348.139 2033.19 305.664C2003.81 284.916 1973.39 264.972 1942.79 246.386C1934.67 241.455 1926.66 236.33 1918.17 230.906C1892.76 214.662 1866.48 197.866 1837.05 186.245C1822.19 180.352 1807.95 176.249 1793.51 173.699C1738.22 163.934 1682.06 182.434 1644.67 199.673C1618.19 211.851 1594 225.62 1569.49 239.835C1548.05 252.277 1527.87 265.661 1506.51 279.829C1474.8 300.86 1442.02 322.608 1404.92 340.868C1382.9 351.762 1359.92 361.182 1336.62 368.865C1293.22 383.178 1245.7 394.292 1191.33 402.847C1160.9 407.633 1129.75 411.042 1098.72 412.977C1072.54 414.591 1046.41 415.168 1021.04 414.686C983.313 413.977 946.431 410.789 911.417 405.213C874.645 399.355 839.559 390.797 807.136 379.774C778.728 370.119 751.3 358.14 723.281 343.153C672.395 315.973 628.804 285.841 596.517 262.625C584.565 254.031 572.803 245.384 561.426 237.019C516.121 203.708 473.328 172.242 421.307 145.734C382.428 125.921 338.778 109.169 291.578 95.9434C255.865 85.9361 218.012 78.4383 175.861 73.0208C166.133 71.7726 156.237 70.6477 146.45 69.6769C103.464 65.4349 57.5864 63.8301 2.08014 62.1703C-37.931 60.9134 -90.3082 60.0856 -140.626 64.889C-164.457 67.1212 -187.493 70.9977 -209.1 76.4064C-285.172 95.4547 -336.776 128.73 -347.145 165.422L-347.688 165.367C-344.939 155.637 -339.37 146.095 -331.144 137.001C-323.303 128.336 -313 120.028 -300.524 112.302C-276.814 97.6231 -245.274 85.104 -209.312 76.1005C-187.665 70.6807 -164.585 66.7976 -140.714 64.561C-90.3485 59.751 -37.931 60.5809 2.10574 61.8379C57.6303 63.4977 103.522 65.1025 146.538 69.3467C156.332 70.3197 166.236 71.4446 175.975 72.6928C218.166 78.1169 256.056 85.6213 291.809 95.6396C339.057 108.879 382.743 125.644 421.662 145.476C473.721 172.004 516.531 203.479 561.851 236.803C573.224 245.166 584.986 253.813 596.938 262.405C629.218 285.612 672.791 315.733 723.647 342.9C751.633 357.871 779.032 369.838 807.407 379.482C871.161 401.154 943.049 412.885 1021.06 414.351C1046.4 414.831 1072.51 414.256 1098.66 412.643C1129.66 410.71 1160.79 407.305 1191.19 402.521C1245.51 393.975 1293 382.87 1336.36 368.57C1359.63 360.896 1382.58 351.489 1404.57 340.606C1441.64 322.361 1474.41 300.623 1506.11 279.602C1527.48 265.428 1547.66 252.041 1569.12 239.592C1593.63 225.37 1617.83 211.596 1644.34 199.405C1668.58 188.228 1692.48 180.189 1715.39 175.505C1743.17 169.825 1769.51 169.11 1793.67 173.376C1808.16 175.936 1822.45 180.053 1837.36 185.963C1866.84 197.606 1893.14 214.418 1918.58 230.675C1927.06 236.097 1935.08 241.219 1943.19 246.148C1973.8 264.741 2004.22 284.692 2033.62 305.446C2093.89 347.932 2154.68 397.211 2219.43 456.104L2218.97 456.289Z" fill="#FFE492"/>
<path d="M2216.76 440.299C2156.16 379.641 2096.31 329.465 2033.77 286.907C2003.53 266.286 1971.85 246.948 1939.62 229.423C1932.73 225.676 1925.63 221.7 1918.77 217.857C1890.45 201.976 1861.16 185.556 1829.18 175.234C1814.17 170.356 1799.88 167.12 1785.51 165.344C1730.33 158.522 1677.34 178.946 1642.59 197.279C1619.05 209.655 1597.52 223.682 1576.7 237.248L1572.8 239.789C1553.9 252.097 1536.17 265.595 1517.4 279.889C1487.5 302.648 1456.59 326.181 1419.51 345.531C1397.93 356.872 1374.77 366.362 1350.67 373.737C1308.65 386.595 1261.88 395.77 1203.5 402.612C1173.31 406.149 1142.17 408.359 1110.93 409.178C1084.81 409.837 1058.84 409.506 1033.73 408.192C957.701 404.232 886.663 390.491 822.587 367.353C794.887 357.35 767.44 345.055 738.681 329.76C690.011 303.932 646.725 277.383 606.563 252.405C601.177 249.057 595.85 245.73 590.563 242.43C535.709 208.202 483.899 175.87 423.011 150.986C383.26 134.74 339.654 121.493 293.41 111.609C259.46 104.353 222.665 99.4264 180.932 96.547C171.527 95.902 161.96 95.3715 152.496 94.9709C128.687 93.9803 103.434 93.8196 76.6981 93.6501C55.2233 93.5136 33.0193 93.3727 9.58786 92.7981C-35.6665 91.594 -86.9554 90.2314 -134.016 93.0843C-158.298 94.557 -181.473 97.5421 -202.9 101.958C-278.943 117.632 -333.339 146.493 -348.409 179.164L-349.028 179.06C-345.057 170.446 -338.417 162.044 -329.298 154.086C-320.577 146.476 -309.541 139.225 -296.497 132.535C-271.549 119.74 -239.254 109.042 -203.112 101.593C-181.637 97.1656 -158.415 94.174 -134.086 92.6991C-86.9774 89.8439 -35.6628 91.2088 9.60986 92.4129C33.0266 92.9853 55.2306 93.1283 76.6981 93.2648C103.445 93.4343 128.705 93.595 152.536 94.5878C162.008 94.9907 171.585 95.5212 180.998 96.1662C222.783 99.0478 259.621 103.981 293.619 111.248C339.918 121.143 383.571 134.406 423.366 150.669C484.31 175.576 536.145 207.922 591.021 242.166C596.308 245.466 601.639 248.79 607.021 252.141C647.175 277.115 690.448 303.657 739.102 329.476C767.832 344.754 795.25 357.037 822.917 367.027C886.909 390.137 957.855 403.858 1033.78 407.813C1058.87 409.125 1084.81 409.456 1110.9 408.797C1142.1 407.979 1173.22 405.771 1203.37 402.237C1261.69 395.402 1308.41 386.238 1350.37 373.398C1374.43 366.038 1397.54 356.566 1419.08 345.245C1456.12 325.919 1487.01 302.4 1516.89 279.653C1535.67 265.353 1553.41 251.848 1572.33 239.531L1576.22 236.991C1597.05 223.417 1618.59 209.382 1642.17 196.992C1677.02 178.6 1730.2 158.117 1785.63 164.969C1800.07 166.755 1814.41 170.002 1829.48 174.9C1861.53 185.244 1890.85 201.681 1919.21 217.579C1926.06 221.423 1933.16 225.399 1940.04 229.143C1972.29 246.677 2003.98 266.027 2034.24 286.658C2096.81 329.234 2156.68 379.427 2217.3 440.105L2216.76 440.299Z" fill="#FFE492"/>
<path d="M2214.55 424.306C2158.91 362.732 2098.28 310.192 2034.34 268.151C2003.26 247.661 1970.32 228.925 1936.45 212.463C1931.56 210.086 1926.55 207.618 1921.7 205.232C1889.69 189.468 1856.59 173.165 1821.33 164.227C1806.19 160.351 1791.86 157.984 1777.52 156.989C1722.5 153.177 1672.65 175.492 1640.53 194.883C1620.57 206.863 1602.57 220.186 1585.15 233.07C1582.14 235.3 1579.13 237.526 1576.11 239.742C1559.55 251.92 1544.06 265.525 1527.66 279.926C1499.79 304.409 1470.96 329.725 1434.1 350.197C1412.45 362.219 1389.76 371.513 1364.71 378.615C1312.32 393.467 1259.97 398.964 1215.67 402.385C1185.7 404.696 1154.57 405.709 1123.14 405.387C1097.1 405.09 1071.29 403.851 1046.42 401.707C972.673 395.365 902.565 379.629 838.045 354.937C811.199 344.665 783.737 332.052 754.084 316.376C724.131 300.579 696.219 285.379 669.222 270.678C650.876 260.686 633.545 251.249 616.621 242.195C552.647 207.968 494.049 177.876 424.729 156.245C384.124 143.577 340.563 133.829 295.253 127.276C262.779 122.578 228.066 120.291 186.014 120.073C176.942 120.033 167.701 120.097 158.552 120.264C144.655 120.535 130.277 121.101 115.06 121.702C85.8582 122.853 52.7538 124.158 17.0955 123.428C3.5166 123.148 -10.3371 122.754 -23.7364 122.371C-58.2002 121.387 -93.8365 120.37 -127.41 121.279C-152.065 121.948 -175.383 124.044 -196.708 127.509C-272.622 139.847 -329.807 164.298 -349.681 192.913L-350.358 192.744C-345.155 185.25 -337.446 177.99 -327.447 171.164C-317.844 164.608 -306.075 158.416 -292.474 152.761C-266.265 141.864 -233.22 132.986 -196.905 127.084C-175.53 123.61 -152.16 121.508 -127.45 120.839C-93.8401 119.927 -58.1892 120.947 -23.7071 121.931C-10.3114 122.314 3.54224 122.708 17.1175 122.987C52.7428 123.718 85.8215 122.415 115.009 121.264C130.233 120.663 144.614 120.097 158.527 119.826C167.687 119.659 176.935 119.595 186.018 119.635C228.129 119.85 262.893 122.144 295.422 126.848C340.786 133.411 384.406 143.169 425.062 155.856C456.375 165.625 488.106 178.003 522.068 193.695C552.472 207.741 582.047 223.111 617.105 241.867C634.029 250.923 651.36 260.36 669.709 270.352C696.702 285.051 724.615 300.251 754.561 316.046C784.184 331.706 811.617 344.307 838.43 354.567C902.862 379.227 972.87 394.94 1046.51 401.273C1071.36 403.415 1097.14 404.652 1123.14 404.949C1154.54 405.271 1185.64 404.26 1215.56 401.949C1259.81 398.535 1312.1 393.044 1364.39 378.218C1389.37 371.137 1412.01 361.867 1433.6 349.876C1470.39 329.439 1499.2 304.143 1527.05 279.679C1543.46 265.269 1558.95 251.658 1575.54 239.467C1578.55 237.251 1581.56 235.025 1584.57 232.797C1602 219.904 1620.02 206.573 1639.99 194.577C1660.9 181.961 1682.34 172.256 1703.73 165.731C1729.07 158.002 1753.92 154.916 1777.59 156.558C1792 157.557 1806.4 159.935 1821.6 163.827C1856.95 172.788 1890.1 189.111 1922.15 204.895C1927 207.281 1932.01 209.749 1936.89 212.124C1970.79 228.599 2003.75 247.353 2034.86 267.858C2068.81 290.182 2102.06 315.616 2133.68 343.455C2161.63 368.059 2189.05 395.193 2215.17 424.099L2214.55 424.306Z" fill="#FFE492"/>
<path d="M2212.33 408.308C2160.84 344.969 2101.15 291.502 2034.92 249.393C2002.98 229.032 1968.79 210.902 1933.29 195.501C1931.6 194.768 1929.91 194.035 1928.22 193.3C1891.3 177.265 1853.13 160.685 1813.49 153.22C1798.13 150.328 1783.75 148.828 1769.55 148.635C1714.75 147.891 1668.02 172.07 1638.47 192.483C1621.08 204.426 1605.64 217.515 1590.71 230.173C1587.02 233.303 1583.2 236.539 1579.44 239.691C1565.09 251.697 1551.75 265.348 1537.62 279.802C1511.94 306.093 1485.38 333.277 1448.71 354.859C1427.49 367.345 1404.61 376.71 1378.76 383.49C1327.84 396.846 1276.13 400.352 1227.84 402.153C1198.06 403.263 1166.94 403.073 1135.34 401.592C1109.4 400.337 1083.75 398.191 1059.11 395.214C987.871 386.629 918.694 368.9 853.507 342.516C827.401 331.952 800.705 319.391 769.499 302.987C710.189 271.895 666.148 249.996 626.701 231.982C548.243 196.155 488.362 175.077 426.48 161.504C385.051 152.417 341.534 146.171 297.129 142.94C266.322 140.699 233.628 140.899 191.125 143.596C182.416 144.155 173.505 144.813 164.638 145.555C156.262 146.266 147.754 147.081 138.745 147.941C105.479 151.122 67.7725 154.728 24.6176 154.054C1.8714 153.7 -21.3622 152.729 -43.83 151.791C-69.3645 150.726 -95.7675 149.623 -120.8 149.473C-145.899 149.324 -169.359 150.53 -190.512 153.062C-266.174 162.111 -326.154 182.155 -350.956 206.675L-351.659 206.418C-345.218 200.047 -336.439 193.93 -325.568 188.235C-315.074 182.736 -302.58 177.604 -288.429 172.979C-260.942 163.993 -227.137 156.936 -190.673 152.575C-169.462 150.039 -145.95 148.828 -120.793 148.978C-95.7382 149.128 -69.3206 150.231 -43.775 151.298C-21.3145 152.236 1.90802 153.207 24.636 153.561C67.7139 154.233 105.38 150.631 138.609 147.455C147.623 146.592 156.138 145.78 164.517 145.066C173.395 144.324 182.313 143.666 191.03 143.105C233.599 140.406 266.348 140.204 297.221 142.451C341.688 145.687 385.267 151.941 426.755 161.041C488.721 174.633 548.664 195.733 627.192 231.59C666.653 249.611 710.71 271.516 770.034 302.617C801.218 319.008 827.885 331.556 853.962 342.109C919.061 368.455 988.135 386.16 1059.26 394.732C1083.87 397.704 1109.49 399.846 1135.4 401.101C1166.96 402.58 1198.04 402.769 1227.78 401.662C1276 399.864 1327.62 396.366 1378.43 383.041C1404.18 376.287 1426.98 366.954 1448.12 354.511C1484.71 332.976 1511.25 305.82 1536.91 279.558C1551.04 265.095 1564.39 251.433 1578.76 239.41C1582.53 236.259 1586.35 233.023 1590.03 229.893C1604.97 217.224 1620.42 204.126 1637.84 192.164C1657.12 178.842 1677.34 168.304 1697.93 160.841C1722.05 152.1 1746.15 147.831 1769.56 148.146C1783.85 148.34 1798.29 149.848 1813.73 152.753C1853.5 160.245 1891.73 176.847 1928.7 192.906C1930.39 193.641 1932.08 194.377 1933.77 195.107C1969.31 210.526 2003.54 228.678 2035.51 249.06C2101.8 291.207 2161.54 344.715 2213.07 408.099L2212.33 408.308Z" fill="#FFE492"/>
<path d="M1246.07 401.925C1244.01 401.925 1241.99 401.923 1239.99 401.916C1210.37 401.841 1179.26 400.454 1147.54 397.791C1121.69 395.578 1096.2 392.525 1071.79 388.719C1036.91 383.29 1001.9 375.489 967.733 365.532C934.739 355.917 901.51 343.994 868.966 330.092C837.078 316.473 807.293 301.297 784.906 289.596C732.525 262.295 682.687 239.476 636.777 221.771C562.419 193.096 496.155 175.615 428.235 166.759C387.261 161.416 343.3 158.599 300.973 158.599C300.317 158.599 299.665 158.599 299.009 158.601C262.647 158.676 228.125 162.735 196.24 167.111C187.941 168.258 179.357 169.511 170.724 170.838C165.994 171.573 161.256 172.331 156.244 173.132C120.89 178.792 80.8164 185.204 32.1325 184.678C2.48325 184.357 -27.7999 182.512 -57.0865 180.727C-75.9965 179.573 -95.5477 178.382 -114.198 177.662C-139.835 176.674 -163.427 176.991 -184.327 178.609C-259.586 184.429 -322.362 200.068 -352.256 220.443L-352.945 220.08C-337.611 209.63 -314.546 200.583 -284.391 193.186C-255.592 186.124 -221.029 180.894 -184.444 178.065C-163.49 176.445 -139.835 176.124 -114.139 177.116C-95.4707 177.836 -75.9085 179.029 -56.9912 180.183C-27.723 181.968 2.54184 183.813 32.1508 184.132C80.7101 184.658 120.714 178.254 156.009 172.606C161.026 171.802 165.763 171.045 170.497 170.31C179.137 168.982 187.729 167.728 196.035 166.581C227.974 162.198 262.556 158.132 299.005 158.055C342.006 157.965 386.755 160.791 428.43 166.226C463.483 170.798 497.467 177.528 532.316 186.8C565.878 195.731 600.21 207.019 637.268 221.313C683.215 239.031 733.089 261.868 785.503 289.187C807.872 300.881 837.635 316.046 869.49 329.65C935.527 357.858 1003.67 377.554 1072.02 388.193C1096.4 391.994 1121.85 395.043 1147.67 397.253C1179.35 399.913 1210.41 401.3 1239.99 401.372C1286.28 401.487 1340.03 400.549 1392.46 387.858C1418.99 381.435 1441.95 372.041 1462.64 359.144C1498.98 336.492 1523.06 307.419 1546.36 279.301C1558.35 264.838 1569.67 251.176 1581.97 239.351C1585.92 235.562 1589.9 231.659 1593.74 227.884C1606.74 215.129 1620.18 201.943 1635.67 189.754C1653.36 175.732 1672.35 164.357 1692.11 155.948C1715.01 146.198 1738.36 140.743 1761.5 139.735C1775.79 139.112 1790.29 139.748 1805.83 141.681C1847.38 146.846 1888.57 161.85 1930.62 178.089C1967.28 192.248 2003.77 210.288 2036.14 230.261C2072.1 252.383 2105.89 278.334 2136.56 307.394C2163.88 333.284 2188.91 361.783 2210.95 392.1L2210.11 392.32C2162.78 327.213 2104.03 272.818 2035.49 230.647C2003.16 210.702 1966.73 192.689 1930.13 178.554C1888.15 162.343 1847.04 147.367 1805.64 142.221C1790.19 140.299 1775.77 139.667 1761.57 140.286C1719.04 142.141 1674.59 159.827 1636.4 190.089C1620.94 202.256 1607.51 215.431 1594.52 228.172C1590.68 231.95 1586.69 235.855 1582.75 239.643C1570.47 251.447 1559.15 265.098 1547.18 279.547C1535.75 293.343 1523.93 307.61 1510.37 321.325C1494.99 336.873 1479.6 349.368 1463.3 359.527C1442.52 372.482 1419.46 381.917 1392.8 388.371C1369.29 394.064 1344.02 397.826 1315.55 399.878C1291.43 401.606 1267.22 401.925 1246.07 401.925Z" fill="#FFE492"/>
<path d="M1304.82 403.027C1286.14 403.027 1268.19 402.358 1252.14 401.68C1222.62 400.434 1191.52 397.848 1159.73 393.991C1133.98 390.823 1108.66 386.865 1084.45 382.222C1018.18 369.536 952.74 348.418 884.41 317.668C854.61 304.259 826.518 289.832 800.306 276.205C748.555 249.382 696.929 227.633 646.853 211.558C573.206 187.918 504.301 175.351 430.002 172.009C387.667 170.105 343.025 170.882 300.896 174.254C265.633 177.076 232.39 183.887 201.356 190.619C193.591 192.312 185.333 194.161 176.814 196.114C174.685 196.605 172.538 197.104 170.362 197.608C134.619 205.912 94.1755 215.307 42.271 215.307C41.3953 215.307 40.5233 215.305 39.6403 215.298C4.52426 215.085 -31.3282 212.073 -66.0045 209.159C-79.7519 208.003 -93.9683 206.81 -107.609 205.844C-134.254 203.959 -157.33 203.402 -178.16 204.146C-253.921 206.854 -317.869 217.808 -353.601 234.206L-354.213 233.724C-336.549 225.618 -311.007 218.581 -280.357 213.372C-250.21 208.25 -214.892 204.851 -178.223 203.541C-157.334 202.795 -134.199 203.352 -107.496 205.24C-93.8401 206.207 -79.62 207.402 -65.869 208.556C-31.2256 211.466 4.59387 214.475 39.6439 214.689C92.6294 215.014 133.732 205.463 169.992 197.038C172.164 196.534 174.315 196.034 176.444 195.541C184.97 193.586 193.232 191.737 201.004 190.045C232.089 183.3 265.395 176.48 300.753 173.649C342.948 170.272 387.664 169.493 430.068 171.399C466.887 173.054 501.992 176.964 537.387 183.348C573.84 189.923 609.799 198.973 647.318 211.019C697.457 227.115 749.149 248.891 800.954 275.741C827.156 289.363 855.23 303.782 885.004 317.177C953.242 347.886 1018.58 368.972 1084.75 381.639C1108.92 386.273 1134.21 390.226 1159.92 393.39C1191.67 397.242 1222.72 399.827 1252.2 401.068C1301.8 403.159 1354.57 404.234 1406.48 392.661C1433.8 386.57 1456.91 377.117 1477.15 363.762C1513.19 339.972 1535.63 307.522 1555.42 278.891C1565.38 264.485 1574.79 250.879 1585.17 239.28C1588.92 235.095 1592.69 230.769 1596.33 226.587C1607.74 213.5 1619.53 199.968 1633.48 187.33C1649.63 172.608 1667.39 160.397 1686.28 151.037C1707.97 140.287 1730.56 133.648 1753.43 131.308C1767.73 129.844 1782.28 129.611 1797.92 130.588C1841.61 133.325 1886 146.845 1927.46 161.051C1965.75 174.166 2003.54 191.592 2036.77 211.444C2073.73 233.462 2107.78 259.673 2137.98 289.345C2164.98 315.88 2188.82 345.061 2208.83 376.083L2207.89 376.301C2165.36 310.361 2105.94 253.503 2036.06 211.871C2002.9 192.057 1965.18 174.664 1926.97 161.574C1885.6 147.402 1841.33 133.915 1797.82 131.189C1782.27 130.216 1767.81 130.45 1753.61 131.902C1711.38 136.224 1669.02 156.025 1634.33 187.66C1620.4 200.272 1608.62 213.79 1597.23 226.864C1593.59 231.049 1589.82 235.375 1586.07 239.564C1575.71 251.136 1566.31 264.73 1556.36 279.12C1536.53 307.795 1514.06 340.298 1477.89 364.167C1457.55 377.595 1434.3 387.1 1406.83 393.227C1383 398.541 1357.28 401.618 1328.21 402.629C1320.36 402.915 1312.53 403.027 1304.82 403.027Z" fill="#FFE492"/>
<path d="M1341.7 405.411C1341.43 405.411 1341.17 405.411 1340.9 405.411C1314.5 405.372 1288.58 403.43 1264.28 401.445C1234.81 399.036 1203.73 395.248 1171.92 390.189C1146.29 386.07 1121.13 381.203 1097.13 375.726C1033.5 361.226 970.818 338.832 899.865 305.246C874.312 293.154 849.166 280.133 824.844 267.543C821.803 265.967 818.758 264.393 815.713 262.819C763.695 236.002 710.277 215.321 656.947 201.351C583.92 182.223 510.269 174.342 431.786 177.259C388.752 178.86 344.15 183.234 302.801 189.908C270.177 195.176 241.106 203.627 206.489 214.127C199.472 216.265 191.979 218.572 182.914 221.39L182.409 221.548C164.92 227.021 145.098 233.222 122.865 237.937C97.33 243.353 72.5575 245.959 47.1548 245.928C7.54312 245.869 -32.8821 241.44 -71.9735 237.154C-81.5513 236.103 -91.4588 235.018 -101.022 234.036C-128.447 231.225 -151.662 229.805 -171.994 229.698C-246.857 229.301 -313.55 235.967 -354.968 247.982L-355.444 247.388C-335.157 241.501 -307.79 236.724 -276.305 233.572C-244.762 230.413 -208.686 228.846 -171.983 229.039C-151.593 229.147 -128.319 230.569 -100.835 233.387C-91.2646 234.369 -81.3571 235.454 -71.7757 236.504C-32.7318 240.784 7.64203 245.208 47.1585 245.268C47.3344 245.268 47.5139 245.268 47.6898 245.268C104.215 245.268 147.278 231.795 181.903 220.963L182.412 220.804C191.481 217.984 198.974 215.677 205.994 213.54C240.67 203.022 269.792 194.555 302.519 189.272C343.937 182.584 388.612 178.204 431.72 176.601C470.126 175.175 506.352 176.262 542.476 179.929C581.402 183.881 618.992 190.69 657.387 200.748C710.819 214.744 764.329 235.458 816.431 262.319C819.476 263.893 822.521 265.469 825.562 267.046C849.873 279.631 875.012 292.647 900.542 304.731C971.405 338.275 1033.99 360.638 1097.52 375.114C1121.48 380.585 1146.61 385.443 1172.2 389.557C1203.97 394.609 1235 398.391 1264.43 400.795C1317.15 405.105 1368.75 408.095 1420.53 397.493C1448.62 391.739 1471.9 382.227 1491.67 368.411C1527.39 343.454 1546.91 308.873 1564.13 278.361C1572.19 264.076 1579.8 250.582 1588.39 239.243C1591.7 234.88 1595.01 230.367 1598.22 226.001C1608.24 212.353 1618.61 198.242 1631.32 184.937C1645.95 169.508 1662.49 156.459 1680.46 146.152C1700.96 134.406 1722.79 126.586 1745.37 122.914C1759.37 120.638 1773.66 119.529 1789.01 119.529C1789.34 119.529 1789.68 119.529 1790.01 119.531C1837.74 119.681 1886.86 132.708 1924.32 144.041C1964.22 156.115 2003.33 172.925 2037.41 192.653C2075.37 214.57 2109.7 241.039 2139.42 271.327C2166.09 298.507 2188.74 328.373 2206.72 360.099L2205.68 360.312C2178.92 313.107 2127.86 245.785 2036.65 193.131C2002.65 173.446 1963.63 156.677 1923.82 144.631C1886.47 133.329 1837.51 120.339 1790.01 120.191C1774.37 120.136 1759.87 121.241 1745.66 123.553C1703.83 130.357 1663.56 152.274 1632.27 185.265C1619.59 198.54 1609.24 212.635 1599.22 226.268C1596.02 230.635 1592.7 235.15 1589.39 239.516C1580.83 250.826 1573.22 264.303 1565.17 278.572C1547.92 309.14 1528.37 343.787 1492.51 368.84C1472.6 382.749 1449.17 392.324 1420.88 398.116C1396.91 403.023 1371 405.411 1341.7 405.411Z" fill="#FFE492"/>
<path d="M1371.03 408.511C1365.34 408.511 1359.53 408.4 1353.58 408.18C1327.53 407.218 1302.22 404.332 1276.43 401.206C1246.53 397.583 1216.33 392.736 1184.11 386.387C1158.61 381.319 1133.61 375.548 1109.8 369.227C1049.39 353.219 989.41 329.654 915.32 292.821C896.919 283.674 878.526 274.081 860.737 264.802C851.053 259.752 841.043 254.528 831.124 249.428C778.487 222.431 723.285 202.821 667.049 191.141C592.746 175.707 516.381 172.88 433.581 182.5C389.837 187.583 345.275 195.554 304.718 205.551C272.137 213.581 243.756 224.859 213.707 236.799L211.63 237.624C206.936 239.495 202.191 241.393 197.388 243.312C194.621 244.42 191.836 245.534 189.026 246.656C171.505 253.694 152.58 261.036 130.878 266.686C105.681 273.246 80.7579 276.474 54.6774 276.553C11.2588 276.681 -33.0283 270.618 -75.8534 264.749C-81.9649 263.911 -88.2891 263.045 -94.4263 262.224C-123.2 258.372 -145.884 256.155 -165.823 255.244C-239.404 251.882 -308.845 254.251 -356.345 261.744L-356.649 261.053C-309.024 253.54 -239.441 251.163 -165.732 254.531C-145.737 255.444 -122.995 257.667 -94.1662 261.526C-88.0252 262.35 -81.7011 263.215 -75.5859 264.054C-33.2848 269.85 10.4417 275.84 53.2851 275.84C53.7468 275.84 54.2085 275.84 54.6738 275.837C110.089 275.67 149.535 261.656 188.37 246.062C191.181 244.939 193.965 243.825 196.732 242.718C201.535 240.796 206.276 238.901 210.974 237.028L213.051 236.202C243.151 224.242 271.58 212.945 304.267 204.888C344.897 194.872 389.536 186.888 433.358 181.796C516.366 172.152 592.937 174.987 667.441 190.463C723.816 202.174 779.146 221.827 831.901 248.884C841.819 253.987 851.833 259.208 861.517 264.261C879.299 273.537 897.688 283.128 916.078 292.268C990.08 329.059 1049.98 352.592 1110.28 368.574C1134.06 374.883 1159.02 380.648 1184.48 385.707C1216.65 392.047 1246.81 396.887 1276.67 400.504C1321.99 405.997 1378.4 412.834 1434.57 402.303C1463.45 396.89 1486.88 387.318 1506.19 373.04C1541.57 346.888 1557.97 310.106 1572.45 277.656C1578.74 263.558 1584.68 250.242 1591.61 239.192C1594.31 234.886 1597.02 230.432 1599.63 226.124C1608.41 211.677 1617.49 196.739 1629.15 182.531C1642.3 166.384 1657.61 152.496 1674.64 141.251C1693.94 128.51 1715.03 119.513 1737.3 114.509C1751.6 111.298 1766.25 109.319 1782.1 108.458C1803.32 107.304 1825.91 108.537 1851.16 112.218C1872.52 115.335 1895.42 120.173 1921.17 127.013C1962.7 138.044 2003.11 154.239 2038.04 173.847C2077.02 195.66 2111.61 222.391 2140.85 253.293C2167.18 281.121 2188.64 311.671 2204.61 344.099L2203.47 344.302C2169.74 275.84 2110.7 215.49 2037.23 174.371C2002.39 154.816 1962.09 138.667 1920.68 127.669C1865.2 112.933 1821.21 107.053 1782.21 109.171C1766.46 110.025 1751.92 111.991 1737.72 115.179C1684.72 127.081 1650 158.547 1630.22 182.846C1618.59 197.018 1609.52 211.939 1600.75 226.369C1598.13 230.679 1595.42 235.135 1592.72 239.443C1585.81 250.46 1579.88 263.761 1573.6 277.841C1559.1 310.361 1542.66 347.221 1507.11 373.491C1487.65 387.882 1464.03 397.53 1434.92 402.987C1415.19 406.686 1394.15 408.511 1371.03 408.511Z" fill="#FFE492"/>
<path d="M1396.43 412.064C1357.68 412.064 1320.43 406.083 1288.56 400.967C1258.58 396.155 1228.4 390.141 1196.28 382.583C1170.93 376.574 1146.09 369.895 1122.46 362.729C1051.62 341.275 988.461 310.48 930.767 280.397C918.987 274.255 907.086 267.924 895.581 261.802C879.606 253.3 863.085 244.51 846.531 236.04C793.106 208.776 736.119 190.234 677.158 180.929C600.884 168.894 521.796 171.12 435.376 187.735C390.88 196.29 346.363 207.858 306.634 221.189C275.991 231.47 250.065 244.449 222.618 258.19C220.672 259.163 218.723 260.14 216.762 261.117L215.7 261.65C209.028 264.994 202.128 268.45 195.134 271.919C178.375 280.269 159.919 288.905 138.572 295.502C113.792 303.161 88.8111 306.98 62.192 307.178C15.4684 307.528 -32.153 299.637 -78.2024 292.004C-81.4304 291.47 -84.6437 290.937 -87.8424 290.411C-118.21 285.405 -140.363 282.437 -159.665 280.786C-231.399 274.653 -303.595 272.725 -357.742 275.497L-357.852 274.728C-303.617 271.95 -231.315 273.881 -159.485 280.023C-140.128 281.678 -117.928 284.652 -87.5053 289.667C-84.3066 290.193 -81.0933 290.725 -77.8616 291.263C-31.9001 298.879 15.6296 306.751 62.1737 306.408C119.981 305.976 160.692 288.073 194.313 271.325C201.308 267.856 208.207 264.4 214.879 261.058L215.942 260.525C217.902 259.546 219.851 258.57 221.797 257.597C249.292 243.832 275.262 230.831 306.007 220.516C345.809 207.16 390.411 195.572 434.984 187.002C475.955 179.126 514.439 174.578 552.629 173.099C595.23 171.45 637.235 173.834 677.48 180.185C736.629 189.518 793.784 208.113 847.359 235.452C863.924 243.927 880.449 252.719 896.428 261.223C907.933 267.345 919.826 273.674 931.602 279.813C989.237 309.864 1052.32 340.626 1123.03 362.04C1146.63 369.195 1171.43 375.865 1196.75 381.866C1228.81 389.412 1258.95 395.417 1288.89 400.223C1334.86 407.602 1392.07 416.786 1448.6 407.122C1478.26 402.05 1501.84 392.419 1520.69 377.679C1555.71 350.296 1568.81 311.251 1580.37 276.8C1585.01 262.958 1589.4 249.884 1594.81 239.148C1596.81 235.177 1598.82 231.073 1600.76 227.104C1608.36 211.58 1616.22 195.526 1626.96 180.132C1638.66 163.254 1652.73 148.523 1668.79 136.351C1686.91 122.617 1707.24 112.443 1729.21 106.109C1743.48 101.997 1758.18 99.1465 1774.16 97.392C1795.69 95.03 1819.58 95.1092 1845.17 97.6276C1867.57 99.8333 1892.07 103.992 1917.99 109.99C1961.14 119.978 2002.86 135.557 2038.66 155.043C2078.65 176.755 2113.51 203.744 2142.27 235.262C2168.25 263.737 2188.52 294.974 2202.49 328.104L2201.24 328.294C2171.64 258.093 2113.6 196.767 2037.8 155.615C2002.12 136.193 1960.53 120.665 1917.53 110.71C1861.79 97.8081 1814.97 93.6982 1774.39 98.1515C1758.53 99.8927 1743.93 102.724 1729.77 106.805C1677.49 121.873 1645.65 155.158 1628.15 180.429C1617.43 195.783 1609.58 211.816 1601.99 227.32C1600.05 231.289 1598.04 235.395 1596.04 239.37C1590.65 250.071 1586.26 263.127 1581.63 276.952C1576.06 293.526 1569.76 312.31 1560.61 329.92C1550.13 350.098 1537.4 365.873 1521.71 378.148C1512.64 385.245 1502.21 391.285 1490.71 396.102C1478.35 401.282 1464.3 405.24 1448.95 407.864C1431.38 410.868 1413.75 412.064 1396.43 412.064Z" fill="#FFE492"/>
<path d="M1419.33 415.962C1406.52 415.962 1393.1 415.213 1378.92 413.719C1351 410.776 1324.28 405.435 1300.7 400.726C1270.98 394.789 1239.94 387.404 1208.46 378.777C1183.27 371.834 1158.6 364.248 1135.12 356.226C1067.75 333.229 1009.71 302.65 946.214 267.97C940.572 264.888 934.841 261.744 929.301 258.702C907.482 246.729 884.923 234.348 861.938 222.65C807.626 195.068 748.859 177.595 687.267 170.718C609.575 162.043 525.427 169.528 437.172 192.968C391.884 204.996 347.407 220.159 308.55 236.821C279.293 249.366 255.209 264.157 229.711 279.817C227.121 281.409 224.519 283.005 221.903 284.607C215.392 288.601 208.379 292.887 201.245 297.177C186.285 306.205 168.053 316.492 146.27 324.313C121.886 333.07 96.8427 337.484 69.7142 337.803C20.052 338.391 -30.5005 328.511 -79.3895 318.957L-81.2509 318.594C-105.188 313.918 -130.51 309.194 -153.498 306.326C-223.569 297.584 -296.596 291.515 -359.123 289.237L-359.039 288.414C-296.446 290.694 -223.353 296.768 -153.22 305.518C-130.166 308.395 -104.8 313.126 -80.8258 317.808L-78.9645 318.171C-30.1817 327.703 20.2682 337.559 69.6886 336.975C126.763 336.302 166.181 317.168 200.274 296.589C207.408 292.301 214.414 288.015 220.925 284.024C223.541 282.424 226.142 280.826 228.733 279.236C254.275 263.549 278.402 248.732 307.755 236.145C346.685 219.45 391.247 204.258 436.618 192.208C478.026 181.212 518.773 173.635 557.722 169.69C602.225 165.184 645.896 165.255 687.523 169.902C749.35 176.805 808.334 194.339 862.829 222.016C885.831 233.725 908.402 246.11 930.232 258.09C935.772 261.13 941.503 264.274 947.145 267.355C1010.58 302.003 1068.56 332.548 1135.81 355.506C1159.25 363.515 1183.89 371.09 1209.04 378.024C1240.48 386.638 1271.46 394.012 1301.14 399.94C1347.66 409.235 1405.56 420.798 1462.65 411.938C1493.1 407.212 1516.84 397.523 1535.22 382.316C1569.85 353.666 1579.87 310.482 1587.92 275.782C1591.06 262.266 1594.02 249.5 1598.03 239.11C1599.3 235.834 1600.58 232.46 1601.81 229.195C1608.22 212.236 1614.86 194.698 1624.81 177.739C1640.17 151.347 1669.35 116.041 1721.14 97.7195C1735.45 92.6608 1750.2 88.9362 1766.25 86.3342C1808.24 79.4285 1858.23 81.6629 1914.84 92.9712C1959.61 101.915 2002.64 116.878 2039.3 136.243C2080.3 157.852 2115.43 185.1 2143.71 217.237C2156.69 231.978 2168.15 247.722 2177.8 264.031C2187.01 279.61 2194.61 295.788 2200.38 312.116L2199.04 312.287C2173.59 240.343 2116.53 178.042 2038.39 136.862C2001.87 117.569 1959 102.664 1914.4 93.7527C1858.06 82.495 1808.33 80.2672 1766.61 87.1288C1750.68 89.711 1736.03 93.4071 1721.84 98.4284C1670.41 116.623 1641.39 151.747 1626.1 178.009C1616.18 194.924 1609.56 212.438 1603.15 229.376C1601.91 232.64 1600.64 236.017 1599.37 239.295C1595.37 249.65 1592.41 262.398 1589.28 275.895C1585.23 293.356 1580.64 313.146 1572.79 331.824C1563.77 353.287 1551.84 369.963 1536.33 382.801C1527.48 390.125 1517.12 396.302 1505.56 401.158C1493.1 406.39 1478.78 410.287 1462.99 412.735C1449.14 414.888 1434.67 415.962 1419.33 415.962Z" fill="#FFE492"/>
<path d="M1440.44 420.079C1425.08 420.079 1408.89 418.884 1391.6 416.486C1363.58 412.605 1336.62 406.164 1312.83 400.48C1282.88 393.326 1251.87 384.743 1220.64 374.967C1195.62 367.097 1171.1 358.604 1147.79 349.722C1083.62 325.298 1028.59 293.818 970.323 260.494C967.44 258.846 964.556 257.195 961.665 255.544C934.57 240.064 906.555 224.055 877.349 209.262C822.092 181.329 761.544 164.925 697.387 160.505C616.8 154.951 529.857 167.633 438.967 198.194C393.504 213.48 347.868 232.749 310.466 252.448C282.224 267.323 259.573 284.06 235.592 301.781C232.752 303.879 229.905 305.983 227.036 308.092C221.305 312.312 214.487 317.316 207.349 322.434C194.129 331.937 176.117 344.014 153.964 353.099C129.969 362.941 104.87 367.958 77.2325 368.431C54.5155 368.772 29.4463 366.665 0.58844 361.988C-24.1877 357.972 -48.1541 352.724 -74.6743 346.781C-98.8824 341.288 -124.432 335.615 -147.354 331.869C-215.252 320.77 -286.971 311.051 -360.516 302.976L-360.252 302.111C-286.664 310.188 -214.904 319.915 -146.969 331.019C-123.985 334.777 -98.3988 340.458 -74.1613 345.955C-29.7094 355.921 25.6137 368.327 77.1922 367.55C136.161 366.538 174.058 344.995 206.224 321.866C213.358 316.752 220.173 311.751 225.9 307.533C228.769 305.424 231.616 303.319 234.452 301.224C258.473 283.474 281.165 266.709 309.499 251.786C346.978 232.046 392.701 212.741 438.252 197.426C529.417 166.772 616.661 154.057 697.555 159.631C728.571 161.768 759.037 166.732 788.101 174.384C819.285 182.593 849.63 194.104 878.294 208.591C907.533 223.399 935.567 239.417 962.677 254.907C965.568 256.561 968.455 258.209 971.338 259.858C1029.55 293.154 1084.53 324.602 1148.57 348.98C1171.86 357.849 1196.33 366.331 1221.32 374.188C1252.5 383.948 1283.47 392.52 1313.37 399.664C1360.37 410.891 1418.86 424.863 1476.69 416.759C1508.02 412.37 1531.91 402.622 1549.73 386.962C1584.05 357.05 1590.16 311.357 1595.07 274.642C1596.83 261.511 1598.49 249.109 1601.24 239.08C1601.81 237.01 1602.38 234.93 1602.95 232.839C1608.08 213.949 1613.4 194.414 1622.63 175.351C1635.82 147.931 1662.2 110.75 1713.06 89.3351C1727.25 83.3607 1742.05 78.7642 1758.32 75.2817C1780.93 70.3969 1806.13 68.1009 1833.21 68.4531C1857.93 68.7745 1884.33 71.2995 1911.67 75.9553C1958.05 83.8516 2002.4 98.1978 2039.92 117.442C2081.93 138.945 2117.33 166.457 2145.14 199.211C2157.9 214.24 2168.94 230.307 2177.97 246.967C2186.62 262.922 2193.45 279.463 2198.26 296.13L2196.82 296.28C2175.84 223.655 2118.3 158.715 2038.97 118.111C2001.61 98.9506 1957.45 84.6639 1911.27 76.7984C1854.32 67.0993 1801.61 66.8615 1758.81 76.1072C1742.66 79.5633 1727.97 84.1245 1713.9 90.0528C1663.39 111.32 1637.15 148.309 1624.04 175.593C1614.83 194.606 1609.52 214.112 1604.39 232.978C1603.82 235.069 1603.25 237.151 1602.69 239.221C1599.94 249.212 1598.29 261.599 1596.53 274.711C1591.6 311.53 1585.47 357.356 1550.93 387.459C1542.34 395.008 1532.07 401.326 1520.41 406.233C1507.86 411.511 1493.26 415.342 1477.02 417.618C1465.3 419.256 1453.16 420.079 1440.44 420.079Z" fill="#FFE492"/>
<path d="M1460.27 424.365C1442.77 424.365 1424.24 422.666 1404.27 419.254C1376.01 414.426 1348.88 406.887 1324.95 400.236C1294.71 391.832 1263.71 382.047 1232.81 371.159C1207.97 362.375 1183.62 352.973 1160.44 343.219C1103.36 319.207 1054.59 289.79 1002.94 258.646C994.499 253.554 985.768 248.29 977.106 243.115C946.658 224.932 920.658 209.939 892.749 195.874C836.507 167.571 774.182 152.235 707.5 150.289C623.711 147.843 533.961 165.718 440.748 203.416C394.442 222.145 348.847 245.105 312.365 268.07C284.881 285.37 263.395 304.203 240.649 324.14C237.831 326.61 235.002 329.089 232.155 331.57C227.084 335.997 220.372 341.83 213.443 347.679C184.285 372.352 146.19 397.753 84.7408 399.052C82.8245 399.09 80.9009 399.107 78.981 399.107C30.9969 399.107 -17.9911 387.698 -68.1075 374.958L-71.2366 374.157C-96.0604 367.791 -119.51 361.779 -141.216 357.403C-223.015 340.91 -302.125 326.989 -361.907 316.704L-361.479 315.804C-301.682 326.093 -222.55 340.016 -140.721 356.515C-118.957 360.903 -95.4815 366.923 -70.6248 373.296L-67.4993 374.098C-15.5471 387.303 35.1886 399.083 84.6859 398.119C145.454 396.833 183.23 371.628 212.172 347.14C219.097 341.295 225.802 335.466 230.873 331.041C233.72 328.558 236.545 326.082 239.363 323.612C262.145 303.643 283.664 284.78 311.236 267.425C347.792 244.412 393.479 221.405 439.876 202.639C482.939 185.222 526.017 171.849 567.912 162.887C615.98 152.604 662.971 148.052 707.573 149.353C774.599 151.308 837.24 166.719 893.746 195.154C921.695 209.241 947.721 224.25 978.198 242.448C986.864 247.623 995.595 252.889 1004.04 257.981C1055.63 289.095 1104.37 318.483 1161.33 342.447C1184.48 352.19 1208.79 361.576 1233.59 370.346C1264.45 381.221 1295.4 390.991 1325.6 399.382C1373.01 412.557 1432.01 428.953 1490.73 421.572C1522.82 417.537 1546.87 407.732 1564.23 391.598C1598.11 360.324 1600.15 312.059 1601.79 273.278C1602.32 260.625 1602.83 248.671 1604.45 239.04L1604.48 238.82C1608.11 217.254 1611.85 194.954 1620.45 172.951C1627.89 153.76 1638.25 136.506 1651.25 121.664C1665.91 104.932 1683.98 91.2308 1704.96 80.9395C1719 74.0537 1733.86 68.5833 1750.37 64.218C1794.99 52.355 1849.66 50.5234 1908.49 58.926C1932.16 62.3073 1955.51 67.4298 1977.9 74.1483C2000.41 80.9065 2021.49 89.1461 2040.54 98.6339C2083.57 120.033 2119.24 147.805 2146.56 181.18C2171.12 211.178 2188.26 245.398 2196.14 280.137L2194.6 280.263C2177.74 205.91 2121.23 139.971 2039.54 99.3538C2001.35 80.3297 1955.9 66.6637 1908.13 59.8417C1849.64 51.4876 1795.31 53.2993 1751.01 65.081C1734.62 69.4132 1719.89 74.8396 1705.95 81.6703C1666.77 100.886 1637.73 132.526 1621.97 173.169C1613.4 195.115 1609.66 217.384 1606.04 238.919L1606 239.139C1604.39 248.735 1603.88 260.671 1603.35 273.307C1601.7 312.207 1599.66 360.617 1565.53 392.111C1557.16 399.891 1546.96 406.345 1535.23 411.294C1522.58 416.63 1507.72 420.396 1491.04 422.494C1481.11 423.74 1470.88 424.365 1460.27 424.365Z" fill="#FFE492"/>
<path d="M85.8798 429.756C64.4233 429.756 41.0578 427.244 14.6879 422.115C-11.5135 417.019 -37.4256 409.983 -61.5275 403.142C-65.8914 401.896 -70.2222 400.652 -74.5238 399.417C-95.9363 393.268 -116.162 387.461 -135.064 382.938C-210.437 364.906 -282.281 348.7 -351.762 333.031L-363.274 330.433L-362.696 329.506L-351.183 332.104C-281.699 347.778 -209.843 363.984 -134.456 382.02C-115.502 386.554 -95.2512 392.368 -73.813 398.525C-69.515 399.76 -65.1842 401.004 -60.824 402.248C-11.3487 416.292 41.2154 429.903 92.1966 428.69C154.866 427.123 192.422 397.792 218.136 372.417C224.724 365.928 231.07 359.46 235.863 354.551C238.508 351.846 241.135 349.142 243.755 346.446C265.483 324.091 286.005 302.976 312.994 283.067C348.62 256.791 394.262 230.08 441.521 207.858C485.365 187.24 529.608 170.95 573.026 159.441C622.828 146.24 671.471 139.389 717.605 139.079C787.024 138.458 851.499 152.806 909.215 181.721C941.209 197.769 969.895 215.129 993.74 229.994C1006.71 238.084 1019.69 246.377 1032.24 254.396C1076.66 282.787 1122.59 312.142 1174.1 335.919C1197.11 346.543 1221.27 356.836 1245.88 366.511C1276.35 378.458 1307.29 389.425 1337.85 399.107C1385.61 414.239 1445.05 433.071 1504.77 426.388C1537.64 422.709 1561.84 412.847 1578.74 396.238C1612.18 363.546 1609.92 312.637 1608.1 271.732C1607.57 259.636 1607.06 248.208 1607.67 239.009C1609.04 218.27 1611.11 194.167 1618.28 170.56C1624.33 150.557 1633.45 132.459 1645.4 116.772C1658.92 99.0273 1676.25 84.1506 1696.89 72.5539C1710.57 64.869 1725.9 58.3464 1742.45 53.1644C1766.06 45.7458 1792.57 41.0812 1821.22 39.3025C1848.06 37.6361 1876.35 38.5122 1905.32 41.9045C1929.74 44.7662 1953.82 49.4727 1976.88 55.8963C2000.08 62.3594 2021.71 70.412 2041.17 79.8293C2063.6 90.6732 2084.22 103.478 2102.47 117.891C2119.75 131.546 2135.07 146.775 2148 163.153C2172.19 193.793 2188.11 228.72 2194.03 264.151L2192.39 264.25C2179.67 188.164 2124.18 121.228 2040.13 80.602C2001.64 61.9742 1953.66 48.5768 1905 42.8775C1844.84 35.831 1788.9 39.6921 1743.21 54.0427C1726.79 59.1829 1711.58 65.6548 1698.01 73.2781C1659.12 95.1287 1632.83 127.918 1619.9 170.738C1612.75 194.282 1610.68 218.343 1609.31 239.049C1608.71 248.215 1609.21 259.625 1609.75 271.706C1610.64 291.885 1611.66 314.76 1608.26 336.872C1604.31 362.531 1595.12 382.119 1580.15 396.755C1572 404.764 1561.88 411.357 1550.07 416.35C1537.32 421.743 1522.18 425.448 1505.08 427.361C1496.45 428.327 1487.83 428.765 1479.26 428.765C1427.93 428.765 1378.2 413.008 1337.08 399.98C1306.48 390.283 1275.49 379.301 1244.99 367.337C1220.33 357.648 1196.14 347.34 1173.1 336.7C1121.48 312.875 1075.5 283.489 1031.04 255.072C1018.49 247.055 1005.52 238.765 992.557 230.679C968.744 215.831 940.099 198.495 908.163 182.478C850.759 153.718 786.661 139.453 717.631 140.065C609.223 140.796 508.199 177.754 442.539 208.633C395.376 230.811 349.825 257.465 314.277 283.688C287.368 303.537 266.875 324.619 245.181 346.939C242.561 349.636 239.93 352.339 237.285 355.046C232.488 359.958 226.139 366.43 219.547 372.926C208.753 383.578 191.807 399.084 169.361 410.708C158.46 416.352 146.86 420.788 134.882 423.894C121.527 427.356 107.186 429.302 92.2662 429.674C90.1521 429.729 88.0233 429.756 85.8798 429.756Z" fill="#FFE492"/>
<path d="M92.7689 460.404C71.2867 460.404 47.9689 457.698 21.7381 452.177C-5.41959 446.463 -32.2696 438.428 -54.9499 431.319C-61.9189 429.131 -68.8731 426.912 -75.6003 424.766C-94.4041 418.767 -112.167 413.099 -128.915 408.472C-189.06 391.852 -248.813 375.625 -306.602 359.932C-325.717 354.741 -345.481 349.374 -364.637 344.161L-363.919 343.208C-344.763 348.421 -324.999 353.788 -305.884 358.979C-248.095 374.672 -188.335 390.901 -128.186 407.523C-111.394 412.163 -93.609 417.836 -74.7832 423.844C-68.0598 425.99 -61.1054 428.207 -54.1438 430.395C-7.10507 445.131 47.4559 460.73 99.7012 459.261C163.847 457.417 199.876 425.389 224.102 397.694C230.313 390.599 236.318 383.475 240.854 378.062C243.184 375.284 245.5 372.508 247.812 369.739C268.594 344.831 288.222 321.305 314.757 298.712C349.269 269.329 394.875 238.917 443.167 213.08C510.42 177.253 614.364 133.552 727.634 128.812C799.669 125.717 865.969 139 924.685 168.296C951.066 181.464 977.154 196.653 1009.28 217.551C1025.52 228.111 1041.63 239.056 1057.21 249.638C1097.74 277.17 1139.65 305.64 1186.88 329.404C1209.75 340.919 1233.74 352.117 1258.17 362.688C1287.76 375.476 1318.68 387.64 1350.09 398.845C1398.34 415.952 1458.38 437.246 1518.82 431.218C1551.95 427.982 1576.99 417.779 1593.25 400.895C1626.22 366.723 1619.15 310.818 1613.98 269.998C1612.53 258.542 1611.16 247.723 1610.89 238.994C1610.29 219.596 1610.34 194.018 1616.12 168.186C1626.09 123.421 1650.55 88.4286 1688.81 64.1851C1702.22 55.6439 1717.61 48.2231 1734.52 42.1276C1758.59 33.4455 1785.74 27.6053 1815.23 24.7721C1843.02 22.1041 1872.26 22.1459 1902.14 24.8976C1927.36 27.2707 1952.16 31.5721 1975.85 37.6787C1999.78 43.8468 2021.96 51.7056 2041.8 61.0372C2064.73 71.8194 2085.68 84.6687 2104.06 99.2306C2121.49 113.031 2136.75 128.475 2149.44 145.14C2173.26 176.425 2187.95 212.056 2191.92 248.18L2190.18 248.249C2181.62 170.427 2127.15 102.491 2040.73 61.8627C2001.55 43.4308 1952.23 30.6696 1901.88 25.9323C1839.81 20.2198 1782.25 26.1304 1735.42 43.0257C1718.64 49.0706 1703.39 56.4319 1690.08 64.9049C1652.07 88.9877 1627.77 123.782 1617.85 168.327C1612.09 194.089 1612.04 219.616 1612.63 238.977C1612.91 247.674 1614.27 258.481 1615.72 269.921C1618.39 291.021 1621.42 314.939 1619.69 338.288C1617.67 365.477 1609.52 386.128 1594.76 401.421C1586.82 409.669 1576.78 416.405 1564.91 421.442C1552.05 426.904 1536.64 430.54 1519.11 432.253C1491.92 434.963 1462.66 432.528 1429.65 424.808C1400.96 418.096 1373.47 408.348 1349.21 399.75C1317.76 388.53 1286.79 376.347 1257.16 363.542C1232.69 352.956 1208.67 341.742 1185.76 330.212C1138.44 306.4 1096.48 277.899 1055.9 250.338C1040.33 239.758 1024.23 228.82 1008.01 218.269C975.934 197.409 949.894 182.248 923.575 169.11C865.207 139.982 799.328 126.778 727.751 129.854C614.969 134.575 511.369 178.142 444.317 213.861C396.121 239.646 350.61 269.994 316.172 299.316C289.71 321.844 270.111 345.337 249.362 370.208C247.05 372.979 244.734 375.755 242.404 378.533C237.864 383.951 231.855 391.081 225.637 398.183C201.198 426.124 164.807 458.438 99.7782 460.307C97.4662 460.371 95.1248 460.404 92.7689 460.404Z" fill="#FFE492"/>
<path d="M99.7962 491.053C41.0986 491.053 -20.49 469.394 -75.0876 450.191C-91.8651 444.292 -107.712 438.718 -122.771 434.005L-366 357.889L-365.154 356.913L-121.925 433.03C-106.825 437.754 -90.9601 443.334 -74.1606 449.242C-17.4525 469.187 46.8254 491.792 107.205 489.833C172.765 487.709 207.302 452.985 230.067 422.974C237.512 413.158 244.701 403.17 251.655 393.511C270.675 367.095 290.34 339.778 316.512 314.355C337.294 294.168 363.111 272.998 391.17 253.135C421.952 231.344 454.91 211.351 489.121 193.714C526.842 174.27 565.197 158.184 603.116 145.908C645.058 132.33 686.377 123.465 725.934 119.557C805.176 111.732 877.247 123.608 940.14 154.86C992.407 180.83 1036.83 212.943 1079.79 244C1117.19 271.032 1155.85 298.983 1199.64 322.876C1250.21 350.472 1304.95 375.94 1362.33 398.567C1410.68 417.633 1470.85 441.364 1532.86 436.03C1585.24 431.526 1615.52 410.472 1625.43 371.663C1633.87 338.651 1625.84 299.491 1619.4 268.027C1617.2 257.305 1615.13 247.176 1614.11 238.963C1608.49 193.686 1612.07 156.309 1625.06 124.7C1633.16 104.978 1645.12 87.3979 1660.6 72.4485C1677.89 55.7491 1700.09 41.8278 1726.59 31.072C1749.5 21.7669 1775.33 15.0087 1803.36 10.9847C1830.04 7.1543 1858.12 5.87092 1886.84 7.16972C1943.32 9.72328 1998.57 22.1741 2042.41 42.2262C2065.84 52.9446 2087.12 65.8401 2105.65 80.5517C2123.21 94.495 2138.42 110.158 2150.86 127.108C2174.3 159.039 2187.76 195.376 2189.79 232.189L2187.96 232.227C2183.64 153.832 2128.81 83.1317 2041.3 43.1045C1948.36 0.596484 1816.43 -4.08138 1727.6 31.9855C1639.61 67.7134 1603.08 135.389 1615.93 238.882C1616.94 247.068 1619.02 257.184 1621.21 267.893C1627.67 299.425 1635.71 338.669 1627.24 371.83C1622.62 389.892 1613.35 404.408 1599.67 414.976C1591.97 420.918 1582.7 425.774 1572.1 429.406C1560.82 433.272 1547.7 435.867 1533.12 437.122C1527.16 437.635 1521.09 437.892 1514.93 437.892C1492.45 437.892 1468.52 434.478 1442.29 427.561C1412.74 419.769 1384.23 408.524 1361.32 399.49C1303.86 376.829 1249.05 351.329 1198.4 323.693C1154.51 299.749 1115.81 271.765 1078.37 244.704C1035.47 213.687 991.099 181.613 938.964 155.71C876.492 124.671 804.915 112.872 726.22 120.645C567.032 136.367 403.053 232.381 318.058 314.936C291.956 340.289 272.317 367.568 253.322 393.949C246.364 403.613 239.172 413.607 231.719 423.432C216.605 443.356 201.678 457.623 184.743 468.326C174.172 475.005 162.704 480.27 150.657 483.975C137.261 488.094 122.671 490.436 107.289 490.936C104.805 491.013 102.302 491.053 99.7962 491.053Z" fill="#FFE492"/>
</g>
</svg>
