<?xml version="1.0" standalone="no"?>
<!DOCTYPE svg PUBLIC "-//W3C//DTD SVG 20010904//EN"
 "http://www.w3.org/TR/2001/REC-SVG-20010904/DTD/svg10.dtd">
<svg version="1.0" xmlns="http://www.w3.org/2000/svg"
 width="765.000000pt" height="1024.000000pt" viewBox="0 0 765.000000 1024.000000"
 preserveAspectRatio="xMidYMid meet">

<g transform="translate(0.000000,1024.000000) scale(0.100000,-0.100000)"
fill="#000000" stroke="none">
<path d="M3353 8380 c-576 -73 -990 -345 -1218 -800 -103 -206 -103 -303 -3
-479 49 -85 176 -238 286 -343 118 -113 183 -163 273 -209 54 -28 75 -33 134
-34 91 0 148 31 210 117 117 158 134 361 90 1076 -9 140 -15 261 -13 270 4 19
88 -368 117 -538 48 -275 52 -530 12 -681 -65 -249 -229 -391 -435 -376 -90 6
-166 35 -264 100 -91 61 -257 219 -339 323 -32 41 -60 74 -63 74 -3 -1 -22
-53 -43 -118 -21 -64 -83 -231 -138 -370 -318 -807 -406 -1287 -333 -1817 79
-573 339 -1087 724 -1431 125 -112 255 -199 428 -286 163 -83 308 -134 474
-167 95 -20 298 -44 305 -37 2 2 -52 22 -119 46 -379 132 -678 335 -868 591
-184 247 -283 609 -251 912 26 241 111 438 281 655 142 182 161 210 200 287
32 62 46 106 61 195 11 63 36 162 55 220 64 194 222 484 353 648 24 30 45 51
48 49 2 -3 20 -79 40 -168 19 -90 38 -169 42 -176 14 -26 67 39 104 127 74
176 118 263 127 254 12 -12 120 -274 120 -291 0 -17 13 -23 83 -39 165 -39
288 -134 372 -287 55 -103 86 -129 205 -177 81 -33 124 -69 113 -96 -3 -8 -8
-14 -12 -14 -3 -1 -19 -11 -34 -23 l-28 -23 42 -43 41 -42 -4 -82 c-3 -66 -11
-97 -35 -149 -58 -123 -131 -182 -299 -238 -206 -70 -301 -188 -292 -360 8
-135 77 -251 283 -470 139 -147 224 -262 279 -375 130 -265 124 -519 -19 -822
-24 -51 -41 -93 -37 -93 20 0 202 150 303 250 220 218 368 457 462 745 74 225
100 403 101 675 1 371 -72 639 -240 877 -72 102 -243 266 -394 379 -221 165
-303 269 -330 416 -23 123 36 287 133 373 96 85 192 120 425 155 180 27 268
52 377 105 229 112 376 290 434 524 18 71 21 116 21 273 0 257 29 234 -335
263 -592 47 -716 95 -918 353 -92 117 -160 176 -249 217 -65 30 -213 69 -343
91 -108 18 -402 26 -502 14z m1054 -701 c22 -22 22 -22 3 -48 -25 -36 -104
-78 -161 -86 -55 -8 -143 7 -207 35 l-47 21 25 21 c25 20 29 20 130 -2 70 -16
122 -3 182 45 24 18 45 34 47 34 3 1 15 -9 28 -20z"/>
<path d="M4036 5537 c-38 -20 -42 -20 -100 -5 -55 15 -63 15 -79 1 -16 -15
-14 -17 25 -35 68 -31 127 -34 181 -10 51 23 52 24 37 53 -13 22 -13 22 -64
-4z"/>
</g>
</svg>
