<?xml version="1.0" standalone="no"?>
<!DOCTYPE svg PUBLIC "-//W3C//DTD SVG 20010904//EN"
 "http://www.w3.org/TR/2001/REC-SVG-20010904/DTD/svg10.dtd">
<svg version="1.0" xmlns="http://www.w3.org/2000/svg"
 width="765.000000pt" height="1024.000000pt" viewBox="0 0 765.000000 1024.000000"
 preserveAspectRatio="xMidYMid meet">

<g transform="translate(0.000000,1024.000000) scale(0.100000,-0.100000)"
fill="#000000" stroke="none">
<path d="M0 5120 l0 -5120 3825 0 3825 0 0 5120 0 5120 -3825 0 -3825 0 0
-5120z m4220 3255 c125 -19 306 -68 375 -100 85 -41 145 -94 238 -212 221
-282 316 -318 980 -372 256 -21 269 -25 288 -93 15 -56 5 -338 -15 -430 -65
-297 -277 -510 -597 -602 -48 -13 -140 -32 -205 -41 -319 -45 -468 -124 -545
-289 -81 -173 -53 -350 76 -494 26 -29 118 -105 204 -169 442 -330 609 -612
652 -1099 24 -281 -29 -666 -128 -919 -113 -289 -294 -548 -523 -748 -94 -82
-221 -180 -227 -174 -1 2 15 39 37 83 22 43 55 122 72 174 31 92 32 100 33
270 0 166 -2 179 -28 255 -64 181 -152 310 -386 567 -164 180 -232 304 -234
428 -1 86 26 160 82 222 53 60 100 87 215 127 124 44 180 76 236 138 63 69 92
144 98 250 l4 81 -41 45 -41 44 35 24 c70 48 56 74 -74 129 -55 23 -115 55
-133 70 -19 16 -54 65 -78 111 -61 112 -133 185 -238 237 -45 23 -109 46 -142
53 -33 6 -63 17 -68 23 -5 6 -24 52 -42 101 -18 50 -47 121 -63 159 l-31 68
-45 -88 c-24 -49 -61 -129 -82 -178 -36 -87 -85 -155 -99 -139 -8 8 -49 180
-70 296 -7 31 -14 57 -18 56 -29 -2 -214 -286 -301 -464 -83 -167 -120 -275
-155 -451 -38 -194 -64 -245 -235 -459 -168 -210 -238 -342 -289 -545 -22 -91
-26 -126 -26 -260 1 -414 163 -771 469 -1028 192 -162 396 -273 695 -379 l95
-33 -75 5 c-793 60 -1464 594 -1755 1398 -154 427 -186 918 -89 1382 69 328
127 511 317 990 92 232 157 419 157 450 0 27 14 16 55 -42 65 -92 251 -273
345 -335 182 -121 304 -144 456 -87 82 31 169 119 217 219 106 224 108 478 7
980 -43 215 -90 423 -95 418 -2 -2 1 -68 5 -148 38 -634 38 -914 1 -1053 -61
-231 -198 -342 -362 -293 -182 53 -526 387 -648 628 -56 111 -67 171 -46 263
31 139 160 370 286 512 240 268 603 437 1041 483 108 11 337 4 458 -15z m258
-2857 c18 -18 15 -27 -20 -48 -44 -27 -131 -27 -192 0 -25 10 -46 22 -46 24 0
3 9 10 20 16 14 8 35 6 79 -6 58 -16 61 -16 98 4 46 25 46 25 61 10z"/>
<path d="M4718 7655 c-55 -51 -105 -61 -203 -42 -75 16 -81 15 -108 -2 l-28
-18 23 -15 c44 -28 133 -52 198 -52 77 0 145 29 192 82 l29 34 -22 24 c-29 31
-37 30 -81 -11z"/>
</g>
</svg>
