<?xml version="1.0" standalone="no"?>
<!DOCTYPE svg PUBLIC "-//W3C//DTD SVG 20010904//EN"
 "http://www.w3.org/TR/2001/REC-SVG-20010904/DTD/svg10.dtd">
<svg version="1.0" xmlns="http://www.w3.org/2000/svg"
 width="864.000000pt" height="1232.000000pt" viewBox="0 0 864.000000 1232.000000"
 preserveAspectRatio="xMidYMid meet">

<g transform="translate(0.000000,1232.000000) scale(0.100000,-0.100000)"
fill="#000000" stroke="none">
<path d="M3240 10126 c0 -2 7 -6 15 -10 8 -3 15 -1 15 4 0 6 -7 10 -15 10 -8
0 -15 -2 -15 -4z"/>
<path d="M2615 10044 c-33 -24 -65 -50 -70 -58 -6 -7 -29 -23 -53 -35 -23 -12
-42 -24 -42 -26 0 -10 98 33 116 51 11 10 36 33 55 49 32 28 66 66 58 64 -2 0
-31 -20 -64 -45z"/>
<path d="M3123 10067 c-65 -24 -55 -36 13 -15 38 11 71 22 73 24 9 9 -56 2
-86 -9z"/>
<path d="M3325 10050 c-4 -6 -16 -8 -26 -5 -14 5 -26 0 -38 -14 -10 -12 -34
-26 -52 -32 -67 -21 -89 -32 -89 -41 0 -6 11 -7 25 -4 50 13 24 -3 -32 -19
-62 -18 -79 -28 -94 -57 -8 -16 -7 -17 15 -8 13 5 26 6 29 3 3 -2 23 1 44 8
101 33 124 43 112 49 -7 5 0 10 20 15 17 4 29 11 25 16 -3 5 -2 9 3 10 85 6
134 18 77 20 -16 0 -38 4 -49 9 -15 6 -5 9 35 9 74 1 131 12 124 22 -3 5 -17
9 -32 10 -24 0 -25 1 -7 9 15 6 6 9 -32 9 -28 1 -55 -4 -58 -9z"/>
<path d="M3788 10005 c6 -11 23 -33 37 -50 l25 -30 -13 34 c-7 19 -23 41 -36
50 -23 15 -24 15 -13 -4z"/>
<path d="M3038 9944 c-16 -8 -28 -17 -28 -19 0 -12 37 -3 60 15 30 24 8 26
-32 4z"/>
<path d="M2700 9910 c-8 -5 -12 -11 -10 -14 3 -2 14 2 24 10 22 15 10 19 -14
4z"/>
<path d="M2974 9905 c-10 -8 -14 -15 -8 -15 6 0 17 7 24 15 16 19 9 19 -16 0z"/>
<path d="M5852 9913 c-10 -4 -10 -8 -1 -19 14 -17 32 -19 24 -1 -3 6 2 2 11
-10 22 -30 55 -31 51 -1 -2 12 -11 22 -19 24 -9 1 -24 4 -34 7 -11 3 -25 3
-32 0z"/>
<path d="M2605 9869 c-16 -23 -41 -47 -55 -54 -14 -7 -54 -36 -90 -64 -36 -28
-75 -59 -88 -69 -35 -26 -77 -73 -75 -83 2 -5 -23 -27 -55 -51 -64 -47 -160
-143 -173 -173 -10 -22 -14 -29 -76 -126 -24 -37 -43 -74 -43 -82 0 -9 -5 -19
-10 -22 -6 -4 -7 -12 -4 -18 4 -7 4 -9 -1 -5 -9 9 -35 -9 -35 -24 0 -6 7 -5
15 2 21 17 19 3 -6 -36 -11 -19 -18 -38 -15 -43 4 -5 -4 -22 -17 -38 -63 -75
-92 -143 -67 -158 5 -3 7 -12 3 -20 -3 -8 -1 -15 5 -15 5 0 12 25 15 55 5 53
39 125 58 125 5 0 7 -12 4 -27 l-6 -28 23 28 c41 47 51 33 16 -23 -12 -19 -23
-41 -24 -49 -2 -8 -13 -28 -25 -44 -12 -17 -22 -44 -23 -61 -1 -66 4 -126 12
-126 20 0 68 106 88 195 l7 30 7 -25 c5 -14 8 -19 9 -11 1 8 4 11 7 8 4 -4 2
-12 -3 -19 -6 -7 -14 -31 -17 -53 -4 -22 -20 -65 -36 -97 -33 -63 -50 -138
-31 -138 6 0 11 -12 11 -26 0 -27 25 -30 25 -3 1 8 8 28 18 44 12 22 16 25 17
12 0 -14 5 -17 23 -11 l22 6 -21 -23 c-32 -36 -36 -58 -17 -92 10 -18 21 -34
24 -37 4 -3 8 -14 10 -25 3 -11 9 -20 14 -20 6 0 16 -4 24 -9 8 -5 16 -4 22 5
5 8 9 11 9 6 0 -4 -5 -16 -12 -27 -17 -27 -4 -35 31 -17 26 13 31 13 31 1 0
-8 -4 -14 -9 -14 -5 0 -2 -14 6 -31 12 -24 18 -28 24 -18 6 9 7 2 3 -18 -5
-25 -3 -33 8 -33 9 0 27 -18 41 -39 14 -21 32 -38 40 -37 13 1 94 -90 130
-146 10 -16 24 -28 31 -28 17 0 37 -23 40 -46 2 -10 10 -23 19 -28 26 -17 44
15 64 108 2 11 10 27 18 36 8 9 12 20 8 25 -5 4 -3 5 4 1 6 -3 20 6 32 22 30
43 54 37 25 -6 -17 -24 -24 -49 -24 -81 l0 -46 33 40 c38 46 60 92 47 100 -5
3 -3 26 5 52 8 26 12 49 10 53 -2 4 2 15 9 25 14 19 7 74 -15 119 -8 17 -6 16
10 -4 11 -14 21 -29 21 -34 0 -19 29 17 35 45 5 20 0 42 -16 73 -12 25 -25 43
-29 41 -6 -4 -43 122 -46 157 -1 9 -4 24 -8 34 -5 14 -4 15 9 4 13 -11 15 -7
15 26 0 22 -7 52 -15 68 -9 16 -15 38 -14 50 7 78 -17 68 -26 -11 -4 -44 -1
-72 13 -115 11 -32 17 -58 15 -58 -2 0 -14 21 -26 48 -18 40 -22 72 -26 215
-4 117 -2 182 6 215 7 26 13 62 13 80 0 18 11 53 25 76 14 23 34 69 45 102
l20 59 -25 -28 c-27 -30 -31 -28 -14 6 6 12 -6 4 -26 -18 l-36 -40 31 63 c33
67 36 110 4 54 -33 -58 -46 -70 -29 -28 8 22 19 44 24 50 4 6 11 20 15 31 4
13 -5 8 -24 -15 -31 -35 -31 -35 -17 -5 24 51 31 79 16 70 -9 -6 -10 -2 -5 16
4 13 8 33 10 44 1 11 8 30 14 42 7 12 12 29 12 38 0 9 12 32 26 51 40 52 23
51 -25 -1 -23 -25 -44 -45 -46 -45 -3 0 -21 -17 -41 -37 -30 -31 -33 -33 -20
-10 9 15 12 27 7 27 -13 0 -43 -40 -65 -86 -10 -22 -37 -55 -60 -74 -22 -19
-34 -26 -26 -15 8 11 18 22 21 25 10 9 89 129 89 135 0 3 -4 3 -10 0 -5 -3
-10 -3 -10 0 0 9 39 67 54 80 34 31 116 185 98 185 -4 0 -20 -19 -37 -41z
m-195 -272 c0 -2 -17 -19 -37 -38 l-38 -34 34 38 c33 34 41 42 41 34z m-236
-151 c-3 -8 -15 -16 -26 -19 -12 -4 -17 -10 -13 -17 4 -7 -6 -26 -22 -43 -16
-18 -39 -45 -51 -61 -12 -16 -22 -24 -22 -19 0 6 9 22 20 36 11 14 21 36 23
48 2 14 22 38 46 57 48 36 53 38 45 18z m169 -3 c-3 -7 -6 -13 -8 -13 -2 0 -5
6 -8 13 -3 8 1 14 8 14 7 0 11 -6 8 -14z m167 -78 c-7 -9 -15 -13 -17 -11 -7
7 7 26 19 26 6 0 6 -6 -2 -15z m121 -86 c-11 -24 -20 -38 -20 -31 -1 18 28 86
34 80 3 -3 -3 -25 -14 -49z m-421 29 c0 -5 -18 -38 -40 -74 -22 -36 -40 -69
-40 -73 0 -4 -11 -18 -25 -31 -14 -13 -25 -18 -25 -11 0 7 11 32 25 57 14 25
25 49 25 55 0 19 51 86 65 86 8 0 15 -4 15 -9z m5 -75 c-14 -27 -42 -66 -61
-87 -37 -42 -46 -41 -15 2 10 15 31 52 46 82 15 30 33 58 39 62 21 14 17 -12
-9 -59z m71 40 c-3 -31 -42 -123 -51 -123 -6 0 2 40 15 75 4 11 9 25 10 30 3
15 20 45 25 45 3 0 3 -12 1 -27z m-81 -103 c-9 -16 -18 -30 -21 -30 -2 0 2 14
11 30 9 17 18 30 21 30 2 0 -2 -13 -11 -30z m70 -21 c-8 -19 -29 -50 -46 -69
-21 -24 -27 -27 -17 -10 9 14 28 50 43 80 30 58 46 58 20 -1z m15 -60 c0 -7
-8 -18 -17 -26 -10 -8 -12 -11 -4 -7 19 10 -10 -39 -55 -91 -26 -30 -32 -34
-24 -15 6 14 13 33 16 43 4 9 10 17 15 17 5 0 8 3 7 8 -4 20 36 82 54 82 4 0
8 -5 8 -11z m-350 -44 c-13 -14 -26 -23 -28 -20 -3 3 5 16 18 30 13 14 26 23
28 20 3 -3 -5 -16 -18 -30z m60 -365 c0 -5 6 -7 14 -4 23 9 9 -27 -25 -67 -24
-28 -29 -31 -29 -14 0 32 20 95 30 95 6 0 10 -4 10 -10z m220 -88 c0 -23 -17
-4 -23 25 -5 26 -4 26 9 8 8 -10 14 -25 14 -33z m63 -12 c3 -11 1 -18 -4 -14
-5 3 -9 12 -9 20 0 20 7 17 13 -6z m-177 -175 c-3 -20 -16 -31 -16 -13 0 13 8
28 16 28 1 0 1 -7 0 -15z m506 -247 c-7 -7 -12 -8 -12 -2 0 14 12 26 19 19 2
-3 -1 -11 -7 -17z m-42 -22 c0 -2 -8 -10 -17 -17 -16 -13 -17 -12 -4 4 13 16
21 21 21 13z"/>
<path d="M2890 9874 c-19 -7 -44 -13 -55 -14 -26 -2 -77 -32 -83 -48 -3 -10 7
-8 34 4 22 9 48 18 59 21 20 4 20 4 1 -11 -20 -16 -20 -16 1 -16 11 0 40 18
64 40 45 40 40 47 -21 24z"/>
<path d="M3183 9873 c9 -2 23 -2 30 0 6 3 -1 5 -18 5 -16 0 -22 -2 -12 -5z"/>
<path d="M2490 9814 c-25 -19 -49 -40 -55 -45 -13 -13 45 12 65 28 60 48 64
52 50 53 -8 0 -35 -16 -60 -36z"/>
<path d="M3766 9824 c18 -15 18 -15 -10 -9 -26 5 -28 4 -17 -9 11 -13 11 -16
0 -16 -10 -1 -8 -6 6 -18 25 -21 54 -58 39 -49 -6 3 -23 8 -38 11 -16 3 -36
12 -45 20 -9 8 -29 17 -46 20 -16 3 -24 3 -17 0 6 -3 10 -10 6 -15 -3 -5 3 -9
12 -9 10 0 15 -3 11 -6 -3 -4 4 -15 16 -26 l22 -19 -25 7 c-22 6 -23 5 -11
-10 17 -21 7 -21 -25 0 -13 9 -27 14 -30 12 -3 -3 10 -15 28 -28 35 -23 33
-23 -22 2 -19 9 -46 18 -60 22 -14 3 -19 3 -12 0 21 -10 2 -24 -24 -18 -18 5
-29 1 -39 -12 -7 -11 -17 -16 -21 -12 -4 4 -28 -9 -53 -30 -72 -59 -86 -68
-77 -54 9 15 1 15 -25 2 -10 -6 -19 -17 -19 -24 0 -7 -11 -23 -25 -36 -14 -13
-25 -29 -25 -36 0 -7 -24 -25 -52 -39 l-53 -27 24 26 c14 14 20 26 14 26 -6 0
-21 -11 -34 -24 -17 -17 -27 -22 -36 -15 -8 7 -18 7 -31 0 -32 -17 -99 -29
-113 -20 -11 7 -11 9 2 9 8 0 31 16 49 35 l35 36 -45 -16 c-25 -9 -58 -28 -75
-43 -20 -19 -24 -20 -11 -4 22 26 7 30 -29 6 -23 -15 -46 -52 -23 -38 8 5 9 2
5 -10 -9 -22 3 -107 14 -100 4 2 10 -10 13 -28 13 -84 14 -117 6 -163 -9 -52
5 -434 19 -517 5 -27 4 -48 -1 -48 -4 0 -8 -35 -8 -77 1 -99 -5 -182 -15 -208
-16 -44 -23 -73 -35 -130 -25 -122 -57 -215 -75 -215 -12 0 -35 -62 -35 -96
-1 -25 -39 -76 -40 -52 0 9 -5 18 -12 20 -8 3 -4 20 13 54 13 27 25 58 26 69
1 11 5 33 9 49 6 23 4 27 -7 21 -11 -7 -12 -6 -3 6 14 18 24 68 14 74 -4 3
-16 -17 -25 -43 -10 -25 -20 -41 -23 -34 -3 9 -14 2 -32 -20 -28 -33 -55 -34
-29 -1 11 15 10 15 -9 -1 -16 -14 -22 -30 -22 -58 0 -21 -4 -38 -9 -38 -14 0
-20 -37 -11 -77 6 -26 5 -40 -2 -45 -9 -5 -9 -16 0 -44 7 -24 8 -43 2 -55 -18
-32 -12 -39 21 -27 39 13 98 73 121 122 33 68 46 101 54 134 l9 34 12 -31 c9
-24 9 -30 0 -25 -7 3 -1 -4 12 -15 13 -12 30 -21 38 -21 12 0 13 -3 4 -13 -13
-16 -5 -27 21 -27 10 0 21 -7 24 -15 4 -8 14 -15 24 -15 10 0 21 -7 24 -17 6
-14 11 -12 38 13 l31 29 -22 -38 -23 -38 26 -20 c14 -11 24 -24 21 -28 -2 -5
2 -16 9 -26 13 -18 14 -17 29 11 l16 29 -6 -36 c-4 -30 -2 -37 15 -41 17 -5
20 -13 18 -62 -1 -48 1 -56 16 -56 10 0 18 6 18 14 0 19 41 149 45 144 2 -2
-3 -28 -11 -57 -9 -29 -14 -70 -12 -92 2 -21 0 -39 -5 -39 -4 0 -5 -4 -2 -10
11 -18 21 -11 33 23 6 17 43 88 80 155 49 87 67 131 64 148 -3 19 -9 23 -23
19 -21 -7 -25 5 -7 23 7 7 8 12 2 12 -15 0 -38 -27 -68 -80 -14 -25 -26 -41
-26 -36 0 5 16 39 36 75 21 39 32 67 25 69 -6 2 -11 10 -11 18 0 9 5 13 13 9
6 -4 4 0 -5 7 -10 9 -13 19 -8 27 6 11 9 11 13 0 3 -8 6 -3 6 11 1 22 -5 19
-57 -35 -32 -33 -65 -71 -75 -85 -11 -15 -14 -17 -8 -5 5 11 30 48 55 83 25
34 43 62 40 62 -4 0 -1 6 5 13 13 17 5 28 -16 20 -9 -4 -16 2 -20 16 -6 24
-14 26 -32 9 -11 -11 -11 -9 -2 10 10 19 9 22 -6 22 -17 1 -17 1 -1 14 10 7
15 16 11 19 -3 4 2 17 13 29 15 18 16 20 2 9 -13 -9 -18 -10 -18 -2 0 6 7 14
15 17 17 7 18 13 6 33 -8 12 -17 10 -53 -14 -24 -15 -65 -46 -93 -69 -34 -27
-42 -31 -25 -12 14 15 57 52 96 82 63 47 72 57 70 84 0 16 -6 30 -12 30 -7 0
-10 8 -7 20 3 11 2 28 -3 37 -10 22 -11 30 -13 66 -1 17 -7 27 -16 27 -19 0
-16 30 5 48 13 10 13 11 -3 6 -13 -5 -16 -2 -11 10 4 11 1 16 -10 16 -15 0
-15 3 -2 28 11 21 11 29 3 29 -39 1 -69 23 -56 39 5 6 29 19 54 30 25 10 45
22 45 27 0 5 11 6 24 3 13 -3 35 -2 48 4 20 8 20 10 3 9 -36 -2 -46 1 -40 11
9 15 -12 12 -45 -5 -17 -9 -32 -15 -36 -14 -3 0 -9 -3 -12 -7 -4 -4 -1 -4 7 1
9 5 12 4 7 -3 -4 -7 -14 -12 -22 -12 -8 0 -12 5 -9 10 3 6 -4 10 -17 11 -19 0
-16 4 16 19 22 10 45 16 52 13 6 -2 15 0 19 6 4 7 -8 11 -33 11 -22 0 -54 6
-73 14 -31 13 -32 14 -9 21 l23 7 -24 14 c-13 7 -31 13 -41 14 -19 0 -18 21 1
44 11 14 11 16 -3 16 -10 0 -14 5 -11 10 3 6 -2 10 -11 10 -16 0 -16 1 0 19
10 11 16 23 13 28 -7 11 13 36 38 51 18 10 16 11 -17 12 -42 0 -50 14 -15 25
12 3 17 9 10 11 -6 3 -25 -2 -42 -11 -36 -18 -42 -4 -9 19 12 9 17 16 11 16
-16 0 -10 26 12 50 11 13 31 20 54 21 28 0 32 2 16 8 -11 5 -23 7 -27 4 -9 -5
-29 33 -21 41 3 3 -1 6 -10 6 -9 0 -19 -4 -22 -10 -3 -5 -11 -10 -17 -10 -13
0 28 42 57 58 19 11 19 11 -5 13 -14 1 -29 1 -33 0 -5 -1 -6 3 -2 9 8 12 89
13 132 1 26 -7 31 -7 26 5 -3 8 -14 14 -24 14 -10 0 -19 4 -19 9 0 15 43 9 63
-7 9 -9 17 -10 17 -4 0 6 -6 12 -12 15 -7 2 2 7 20 11 l33 8 -22 19 c-26 22
-20 35 9 20 27 -15 37 -14 25 2 -23 28 -22 59 2 85 20 21 29 24 62 19 21 -4
39 -11 41 -17 2 -5 11 -10 20 -10 15 -1 14 -3 -2 -15 -23 -17 -18 -19 17 -6
21 8 26 6 37 -17 8 -15 13 -31 11 -36 -1 -5 10 -6 24 -4 29 6 33 -6 8 -22 -16
-10 -15 -11 5 -7 12 3 22 1 22 -3 0 -4 9 -6 20 -3 12 3 20 0 20 -7 0 -10 3
-10 15 0 10 9 15 9 15 1 0 -6 7 -11 15 -11 8 0 15 6 15 13 0 8 3 8 9 -2 7 -12
13 -12 24 -3 7 7 17 9 20 5 4 -3 7 -2 7 3 0 5 10 11 22 11 16 2 19 0 9 -6 -7
-5 -12 -14 -9 -21 2 -8 12 -5 30 9 31 25 42 27 34 5 -3 -8 -2 -13 2 -10 4 2
14 1 22 -4 12 -7 10 -14 -10 -36 l-25 -27 24 16 c14 9 34 14 47 11 21 -5 39 9
39 31 0 6 10 15 23 20 13 6 25 21 28 35 10 44 14 51 24 45 5 -3 10 1 10 9 0
20 10 20 39 -1 14 -9 21 -12 18 -6 -4 5 2 34 13 62 20 55 18 81 -6 81 -17 0
-18 33 -3 62 8 15 8 19 -1 13 -7 -5 -11 -1 -10 11 4 35 0 54 -11 54 -8 0 -10
-14 -6 -41 5 -35 4 -38 -8 -22 -7 10 -11 22 -8 26 9 15 4 100 -7 111 -5 5 -10
18 -10 28 0 10 -4 18 -10 18 -5 0 -10 8 -10 18 0 9 -20 30 -45 46 -25 15 -43
31 -41 34 8 7 -14 32 -27 32 -6 0 -2 -7 9 -16z m-162 -177 c-16 -6 -33 -13
-39 -17 -5 -4 -26 -11 -45 -15 -19 -4 -70 -25 -112 -46 -43 -22 -80 -39 -84
-39 -5 0 53 56 89 86 14 12 118 51 152 57 11 2 31 -1 44 -7 l23 -10 -28 -9z
m80 -77 c33 -12 36 -45 4 -36 -13 3 -26 6 -30 6 -8 0 -11 40 -4 40 3 0 16 -4
30 -10z m-389 -60 c-9 -15 -45 -32 -45 -22 0 5 10 14 23 20 29 14 29 14 22 2z
m-65 -1605 c0 -2 -15 -12 -32 -20 l-33 -16 25 20 c24 20 40 26 40 16z m-100
-58 c0 -2 -10 -12 -22 -23 l-23 -19 19 23 c18 21 26 27 26 19z m-50 -40 c0 -2
-10 -12 -22 -23 l-23 -19 19 23 c18 21 26 27 26 19z m33 -102 c-9 -19 -18 -33
-21 -31 -4 5 26 66 33 66 3 0 -3 -16 -12 -35z"/>
<path d="M3115 9814 l-30 -13 30 6 c32 6 41 11 34 17 -2 2 -17 -2 -34 -10z"/>
<path d="M3000 9800 c-13 -11 -27 -20 -31 -20 -17 0 -139 -113 -139 -129 0
-16 39 10 45 30 5 15 54 54 138 112 23 15 34 27 26 27 -9 0 -26 -9 -39 -20z"/>
<path d="M2335 9794 c-16 -8 -34 -20 -40 -26 -5 -7 2 -4 17 5 15 9 35 17 45
17 15 0 15 -2 -3 -15 -16 -13 -16 -14 -1 -9 31 11 18 -5 -40 -48 -31 -23 -52
-43 -45 -46 12 -4 65 32 107 71 15 14 17 21 7 24 -20 7 6 33 26 26 14 -4 15
-3 2 5 -9 7 -18 7 -26 1 -8 -6 -13 -6 -16 0 -2 7 -14 5 -33 -5z"/>
<path d="M2873 9781 c-17 -11 -33 -19 -35 -18 -1 1 -2 0 -1 -2 2 -2 -3 -11
-10 -19 -10 -13 -9 -14 8 -4 24 13 82 61 75 62 -3 0 -19 -9 -37 -19z"/>
<path d="M3035 9780 c-3 -5 -2 -10 4 -10 5 0 13 5 16 10 3 6 2 10 -4 10 -5 0
-13 -4 -16 -10z"/>
<path d="M2789 9743 c-13 -15 -12 -15 9 -4 23 12 28 21 13 21 -5 0 -15 -7 -22
-17z"/>
<path d="M5890 9716 c19 -18 36 -30 38 -25 2 4 11 5 20 2 32 -13 -10 29 -45
44 -49 20 -51 16 -13 -21z"/>
<path d="M5068 9713 c-8 -10 -23 -32 -33 -50 -10 -18 -23 -29 -28 -26 -6 3 -7
1 -3 -5 4 -7 2 -20 -3 -29 -6 -10 -11 -14 -11 -9 0 6 -7 1 -15 -10 -14 -19
-14 -19 -15 0 0 21 -13 14 -16 -8 -5 -35 -17 -55 -34 -61 -19 -6 -46 -65 -29
-65 5 0 9 -5 9 -11 0 -6 -9 -8 -22 -4 -22 6 -22 5 -4 -9 13 -11 17 -22 12 -40
-4 -15 -2 -26 4 -26 5 0 10 5 10 10 0 21 20 9 26 -15 3 -14 16 -33 28 -43 11
-9 30 -34 40 -55 25 -48 45 -65 56 -48 5 9 10 10 14 3 10 -17 36 -2 36 21 0
20 0 21 16 1 8 -10 13 -13 9 -6 -3 6 -1 12 5 12 6 0 13 -7 16 -15 4 -8 9 -13
13 -11 4 3 24 1 44 -4 30 -6 37 -5 37 7 0 8 4 12 9 8 5 -3 12 -1 15 4 3 5 15
7 25 4 19 -5 91 55 91 75 0 16 100 113 110 107 5 -3 11 -1 15 5 12 20 -105
139 -168 171 -32 16 -66 29 -74 29 -9 0 -21 6 -27 14 -6 8 -26 17 -44 20 -36
5 -56 16 -29 16 9 0 19 5 23 11 5 9 -1 10 -20 5 -20 -5 -26 -3 -26 9 0 14 -3
13 -25 -1 -29 -19 -44 -12 -25 11 18 22 7 29 -12 8z m142 -158 c0 -20 -23 -29
-55 -21 -42 11 -31 36 15 36 29 0 40 -4 40 -15z m-171 -100 c0 -5 -4 -3 -9 5
-5 8 -9 22 -9 30 0 16 17 -16 18 -35z"/>
<path d="M2967 9686 c-9 -13 -24 -31 -34 -41 -47 -47 -111 -140 -101 -146 6
-4 22 5 35 20 l25 26 -6 -25 c-4 -14 -9 -38 -13 -54 l-6 -30 23 22 c13 12 26
19 30 17 4 -3 13 2 20 10 7 8 18 15 26 15 7 0 16 4 19 10 4 7 -3 7 -20 0 -33
-13 -45 -13 -25 0 8 5 15 13 15 17 0 4 10 23 23 41 31 42 15 41 -28 -3 -44
-45 -51 -37 -11 13 31 40 40 58 21 47 -23 -14 -7 15 21 39 17 14 25 26 19 26
-6 0 -8 5 -5 10 13 22 -14 9 -28 -14z"/>
<path d="M2203 9654 l-28 -26 33 18 c17 10 32 22 32 26 0 13 -7 9 -37 -18z"/>
<path d="M5253 9663 c9 -2 23 -2 30 0 6 3 -1 5 -18 5 -16 0 -22 -2 -12 -5z"/>
<path d="M3322 9628 c-34 -22 -39 -28 -19 -28 14 1 62 38 56 45 -3 2 -19 -5
-37 -17z"/>
<path d="M5915 9630 c3 -5 8 -10 11 -10 2 0 4 5 4 10 0 6 -5 10 -11 10 -5 0
-7 -4 -4 -10z"/>
<path d="M2158 9594 c-16 -8 -28 -19 -28 -25 0 -6 6 -7 13 -4 6 4 -7 -11 -30
-32 -24 -21 -57 -60 -74 -88 -29 -48 -27 -47 46 30 111 117 130 149 73 119z"/>
<path d="M5898 9565 c14 -29 62 -78 69 -72 3 3 -5 21 -18 39 -13 18 -22 35
-21 36 2 2 0 7 -4 10 -4 4 -4 1 0 -5 4 -7 3 -13 -1 -13 -5 0 -15 6 -22 13 -11
10 -12 8 -3 -8z"/>
<path d="M6310 9575 c0 -2 10 -10 23 -16 20 -11 21 -11 8 4 -13 16 -31 23 -31
12z"/>
<path d="M2659 9523 c-13 -16 -12 -17 4 -4 9 7 17 15 17 17 0 8 -8 3 -21 -13z"/>
<path d="M3053 9463 c-18 -9 -33 -20 -33 -24 0 -12 57 10 71 27 15 18 2 17
-38 -3z"/>
<path d="M5885 9410 c10 -11 20 -20 23 -20 3 0 -3 9 -13 20 -10 11 -20 20 -23
20 -3 0 3 -9 13 -20z"/>
<path d="M5979 9402 c6 -12 16 -24 22 -28 8 -4 8 -1 0 14 -6 12 -16 24 -22 28
-8 4 -8 1 0 -14z"/>
<path d="M1949 9248 c-17 -24 -18 -29 -6 -19 18 14 42 51 33 51 -3 0 -15 -15
-27 -32z"/>
<path d="M5816 9235 c-3 -8 1 -30 9 -49 8 -20 15 -49 15 -65 0 -16 5 -33 11
-37 8 -5 9 6 3 37 -4 24 -7 53 -6 64 4 49 -18 85 -32 50z"/>
<path d="M6620 9197 c18 -32 30 -61 26 -64 -8 -8 14 -45 40 -66 13 -9 26 -26
29 -37 10 -31 25 -24 22 9 -3 26 -63 117 -125 189 -19 22 -17 15 8 -31z"/>
<path d="M2650 9200 c-6 -11 -7 -20 -2 -20 6 0 12 9 15 20 3 11 3 20 1 20 -2
0 -8 -9 -14 -20z"/>
<path d="M5849 9055 c-1 -11 -1 -26 0 -33 1 -8 -3 -20 -10 -28 -9 -11 -8 -19
5 -39 14 -22 15 -25 1 -25 -16 0 -20 -15 -7 -24 5 -3 7 -19 4 -36 -2 -17 -7
-29 -9 -26 -13 13 -30 -20 -22 -41 5 -14 5 -23 -1 -23 -6 0 -9 -3 -9 -7 1 -5
1 -10 0 -13 -1 -3 -4 -27 -6 -55 -1 -27 -8 -62 -13 -76 -6 -15 -7 -31 -1 -40
13 -21 11 -26 -11 -32 -13 -3 -18 -10 -14 -21 4 -9 1 -16 -6 -16 -7 0 -10 -8
-7 -20 3 -12 -1 -23 -10 -29 -9 -5 -13 -15 -10 -24 3 -9 -1 -18 -10 -21 -12
-5 -13 -9 -3 -21 9 -11 9 -15 1 -15 -7 0 -9 -4 -6 -10 3 -5 0 -10 -8 -10 -8 0
-17 -7 -21 -15 -3 -8 -1 -15 4 -15 6 0 8 -15 6 -32 -2 -19 -9 -32 -16 -30 -19
4 26 -53 70 -89 45 -37 54 -61 14 -34 -24 16 -25 16 -15 -3 5 -10 16 -24 24
-31 8 -6 13 -21 10 -31 -3 -11 0 -20 6 -20 6 0 11 -5 11 -11 0 -6 -7 -9 -15
-5 -8 3 -15 2 -15 -3 0 -5 7 -14 15 -21 19 -16 19 -31 0 -24 -11 4 -13 2 -9
-9 8 -21 -14 -31 -33 -15 -12 9 -15 9 -9 1 4 -7 3 -13 -3 -13 -5 0 -8 -9 -6
-20 2 -11 -1 -22 -6 -25 -5 -4 -6 -11 -3 -17 4 -6 -1 -8 -15 -3 -21 6 -30 -8
-11 -20 6 -4 5 -12 -4 -21 -20 -19 -11 -40 40 -97 41 -46 54 -50 54 -15 0 13
8 18 28 18 18 0 37 10 53 27 13 14 19 23 13 20 -7 -4 -17 -1 -23 7 -9 11 -5
15 19 20 34 6 75 40 67 53 -3 5 -2 15 2 22 6 9 24 -18 57 -84 50 -101 128
-189 171 -192 27 -2 20 33 -8 40 -10 3 -19 10 -19 16 0 6 6 8 14 5 8 -3 17 -1
20 5 4 5 -2 12 -13 16 -11 3 -25 13 -33 22 -12 15 -11 15 10 4 31 -17 36 -10
13 16 -11 11 -28 38 -39 59 -11 21 -29 48 -41 58 -11 10 -35 41 -52 67 -17 27
-33 49 -35 49 -3 0 -1 -12 2 -27 4 -16 4 -25 -1 -21 -4 3 -9 21 -11 40 -9 74
-17 114 -26 132 -6 11 -16 51 -23 90 -10 54 -13 62 -14 34 -1 -49 -17 -49 -26
-1 -4 21 -11 40 -16 43 -10 7 -13 178 -5 340 12 263 14 416 6 430 -8 12 -10
11 -11 -5z"/>
<path d="M2600 8948 c0 -19 2 -20 10 -8 13 19 13 30 0 30 -5 0 -10 -10 -10
-22z"/>
<path d="M3744 8955 c-10 -8 -14 -14 -9 -15 15 0 40 18 34 24 -3 3 -14 -1 -25
-9z"/>
<path d="M3033 8953 c9 -2 23 -2 30 0 6 3 -1 5 -18 5 -16 0 -22 -2 -12 -5z"/>
<path d="M3745 8920 c-11 -5 -14 -9 -7 -9 8 -1 10 -6 6 -13 -5 -8 0 -7 11 2
10 8 20 14 22 13 1 -2 3 0 4 4 1 11 -14 12 -36 3z"/>
<path d="M3644 8844 c-40 -42 -39 -57 1 -22 27 23 51 58 40 58 -3 0 -21 -16
-41 -36z"/>
<path d="M3695 8847 c-16 -12 -39 -30 -49 -39 -11 -10 -23 -18 -28 -18 -4 0
-8 -7 -8 -15 0 -18 12 -19 28 -3 9 9 12 8 12 -5 0 -9 -5 -17 -11 -17 -5 0 -7
-5 -4 -11 4 -6 -2 -5 -14 3 -17 10 -23 10 -33 -1 -11 -11 -9 -12 10 -6 29 9
26 -11 -8 -42 l-25 -22 31 -1 c42 0 101 70 88 105 -3 8 -1 15 6 15 6 0 9 4 6
9 -3 4 6 19 19 31 44 41 30 54 -20 17z"/>
<path d="M3138 8773 c6 -2 18 -2 25 0 6 3 1 5 -13 5 -14 0 -19 -2 -12 -5z"/>
<path d="M3688 8713 c7 -3 16 -2 19 1 4 3 -2 6 -13 5 -11 0 -14 -3 -6 -6z"/>
<path d="M6370 8710 c0 -5 5 -10 10 -10 6 0 10 5 10 10 0 6 -4 10 -10 10 -5 0
-10 -4 -10 -10z"/>
<path d="M3166 8665 c4 -9 11 -14 16 -13 15 5 11 23 -6 26 -11 2 -14 -2 -10
-13z"/>
<path d="M3295 8671 c-6 -5 -19 -11 -30 -14 -15 -3 -13 -5 8 -6 16 0 35 6 43
14 13 12 13 15 2 15 -8 0 -18 -4 -23 -9z"/>
<path d="M4487 8665 c-9 -8 -17 -19 -19 -25 -4 -12 -48 -20 -153 -26 -44 -3
-82 -9 -85 -13 -3 -4 -21 -8 -40 -9 -19 -2 -36 -7 -38 -12 -2 -6 -8 -10 -14
-10 -17 0 -88 -73 -88 -91 0 -26 -26 -41 -64 -38 -30 3 -39 0 -35 -13 0 -2 2
-14 5 -28 2 -14 6 -37 9 -52 3 -21 0 -28 -11 -28 -11 0 -12 -4 -5 -19 6 -10 7
-21 4 -25 -3 -3 -1 -6 6 -6 8 0 10 -11 7 -35 -5 -27 -3 -35 10 -35 8 0 12 -5
9 -10 -4 -6 -12 -8 -18 -4 -7 3 -4 -1 5 -9 16 -13 16 -15 0 -30 -15 -16 -15
-17 0 -17 9 0 20 5 23 10 7 12 35 -12 35 -30 0 -7 8 -9 20 -5 15 5 18 3 14 -9
-8 -22 13 -20 25 2 6 9 11 12 11 5 0 -6 -4 -15 -10 -18 -18 -11 -11 -25 12
-25 16 0 19 -3 11 -11 -6 -6 -9 -17 -6 -25 4 -11 -50 -44 -79 -48 -3 -1 -10
-5 -15 -9 -4 -5 -1 -7 7 -5 10 2 14 -4 12 -17 -3 -19 -1 -18 15 3 10 12 31 29
46 37 26 13 27 13 17 -5 -6 -11 -26 -31 -45 -46 -19 -14 -35 -33 -35 -41 0 -7
-7 -16 -15 -19 -8 -4 -12 -10 -9 -15 3 -5 21 -2 41 6 36 15 36 15 19 -4 -9
-10 -13 -21 -7 -22 5 -2 1 -15 -10 -29 -20 -24 -20 -24 -9 -2 18 37 2 39 -31
4 -16 -18 -33 -32 -36 -32 -4 0 4 11 17 25 13 14 21 27 18 30 -3 3 -29 -20
-58 -51 -41 -43 -50 -58 -39 -65 9 -5 22 0 40 17 14 13 28 21 32 17 4 -3 7 -1
7 5 0 7 5 12 10 12 13 0 1 -22 -30 -60 l-21 -25 7 25 6 25 -21 -27 c-22 -28
-28 -43 -11 -33 6 3 10 -1 10 -11 0 -13 3 -14 15 -4 12 10 15 9 15 -4 0 -10 4
-15 9 -12 5 3 12 -2 16 -12 6 -16 7 -16 19 0 7 10 16 15 20 11 4 -4 12 -1 17
7 8 12 9 11 6 -5 -2 -11 -9 -19 -15 -18 -7 2 -12 -3 -12 -11 0 -17 -40 -18
-40 -1 -1 5 -9 1 -18 -11 -13 -16 -23 -19 -40 -13 -12 4 -24 4 -27 -1 -9 -15
-118 22 -166 57 -26 18 -52 33 -58 33 -6 0 -11 6 -11 13 0 7 -14 28 -31 47
l-31 34 -30 -35 -30 -34 26 37 c31 43 31 46 7 77 l-18 23 -51 -57 c-52 -58
-60 -87 -34 -114 8 -8 12 -25 9 -38 -5 -30 9 -30 17 0 3 12 15 33 27 47 16 21
15 15 -6 -29 -25 -50 -27 -81 -7 -81 5 0 15 14 22 30 7 17 16 33 20 35 5 3 -1
-17 -12 -44 l-21 -49 31 -49 c17 -26 35 -52 39 -58 5 -5 20 -35 35 -66 15 -31
34 -61 42 -69 9 -7 13 -16 11 -21 -3 -4 13 -22 35 -40 21 -17 37 -35 35 -39
-3 -4 2 -13 10 -20 8 -7 15 -19 15 -26 0 -8 3 -14 8 -14 4 0 15 -14 24 -30 11
-20 28 -33 47 -36 17 -4 28 -10 25 -15 -3 -5 0 -9 7 -9 6 0 19 -8 28 -18 26
-30 48 -33 78 -9 l28 22 -29 -38 c-22 -28 -24 -36 -11 -31 14 6 16 4 10 -7 -8
-12 -6 -12 8 0 9 7 15 17 12 21 -3 4 2 10 10 14 18 6 19 2 4 -27 -7 -16 -3
-13 15 8 30 35 45 29 16 -8 -31 -39 -24 -55 9 -19 34 36 47 42 31 12 -15 -28
5 -26 26 3 11 15 15 16 11 5 -4 -10 -1 -18 4 -18 6 0 9 -9 6 -20 -3 -11 0 -20
5 -20 6 0 4 -8 -5 -18 -10 -10 -17 -26 -17 -35 0 -25 37 -21 51 4 9 17 13 19
20 8 5 -8 9 -18 9 -24 0 -5 -4 -4 -9 3 -6 11 -9 9 -14 -7 -7 -28 18 -34 38 -8
l16 22 -5 -23 c-5 -27 9 -20 17 8 3 11 1 18 -4 14 -15 -9 -10 30 6 52 12 16
14 17 15 3 0 -20 27 -33 34 -16 2 7 5 1 5 -13 1 -20 3 -22 11 -10 8 13 10 13
10 -2 0 -9 -3 -24 -7 -33 -5 -15 -8 -14 -19 6 l-13 24 -1 -28 c0 -27 2 -28 42
-25 l43 4 -3 39 c-2 22 0 37 4 32 4 -4 18 0 31 8 21 14 23 14 23 0 0 -9 5 -13
10 -10 6 4 10 -8 10 -29 0 -49 8 -65 31 -59 10 3 19 8 20 12 0 3 2 14 4 24 2
9 -1 17 -6 17 -5 0 -9 12 -9 28 0 21 2 24 10 12 7 -10 12 -12 18 -4 4 6 15 10
25 8 10 -1 17 4 17 13 0 12 3 13 14 4 10 -8 16 -9 21 -1 3 6 11 8 16 5 5 -4 9
-2 9 4 0 6 7 8 15 5 8 -4 15 -2 15 4 0 6 9 8 20 5 12 -3 20 -2 19 3 -4 24 3
32 23 26 18 -4 20 -2 15 17 -4 18 -2 21 14 16 15 -5 17 -3 12 11 -4 11 -3 15
4 11 17 -11 45 4 39 20 -3 8 -2 11 3 8 5 -3 12 -1 16 5 4 7 13 6 28 -1 18 -9
20 -9 10 2 -18 19 -16 32 3 21 27 -15 50 -3 74 40 18 32 21 50 17 87 -6 51
-11 47 83 81 45 17 45 17 30 35 -10 12 -10 15 1 15 10 1 8 4 -3 11 -17 9 -16
14 11 67 26 54 82 207 94 262 4 14 2 31 -2 39 -9 14 -31 7 -31 -11 0 -6 -16
-25 -36 -43 -23 -22 -34 -38 -29 -47 6 -10 5 -10 -4 -2 -9 8 -23 7 -54 -3 -23
-8 -62 -16 -87 -17 -25 0 -48 -5 -52 -10 -3 -5 -14 -2 -23 7 -9 10 -20 15 -25
12 -4 -3 -11 7 -14 20 -8 30 -26 24 -27 -8 0 -15 -2 -17 -6 -7 -4 8 -12 21
-20 28 -17 18 -17 27 4 47 15 16 15 19 -2 48 -10 18 -27 42 -38 55 -32 35 -13
26 27 -13 44 -42 46 -34 6 19 -35 46 -31 60 6 25 22 -21 24 -21 18 -4 -7 20
-7 20 16 0 17 -16 15 -9 -10 29 -24 34 -29 50 -21 56 9 5 4 14 -16 31 -16 13
-33 31 -37 39 -5 8 7 0 25 -17 38 -35 65 -44 55 -17 -4 12 -2 15 9 10 31 -12
14 4 -20 18 -32 14 -48 36 -26 36 4 0 7 11 6 25 -2 14 1 25 6 25 6 0 5 8 -1
20 -8 14 -8 20 0 20 6 0 8 5 4 11 -4 8 3 9 26 4 22 -5 30 -4 26 3 -3 6 -2 13
4 17 5 3 10 16 9 28 0 12 3 40 6 62 10 63 11 125 3 125 -5 0 -8 8 -8 18 0 9
-7 26 -15 36 -8 11 -15 29 -15 40 -1 40 -99 146 -134 146 -9 0 -19 7 -22 15
-4 8 -15 15 -25 15 -13 0 -17 5 -12 17 5 12 2 15 -10 10 -9 -3 -17 -2 -17 3 0
15 -38 22 -59 11 -16 -9 -18 -8 -14 9 6 24 0 25 -20 5z m43 -249 c17 -2 33 -6
36 -9 11 -11 -7 -26 -23 -20 -10 4 -14 2 -10 -4 3 -5 0 -10 -8 -10 -8 0 -15 4
-15 8 0 5 -6 6 -14 3 -7 -3 -16 2 -20 11 -7 19 1 38 14 30 5 -3 22 -7 40 -9z
m150 -282 c0 -7 -27 -34 -34 -34 -3 0 -6 9 -6 20 0 13 7 20 20 20 11 0 20 -3
20 -6z m-55 -23 c3 -5 1 -12 -5 -16 -5 -3 -10 1 -10 9 0 18 6 21 15 7z m-475
-126 c-7 -9 -15 -13 -19 -10 -3 3 1 10 9 15 21 14 24 12 10 -5z m-35 -45 c-10
-11 -21 -17 -24 -14 -3 3 3 12 13 20 28 20 32 17 11 -6z m19 -52 c-18 -29 -38
-47 -47 -41 -5 3 4 16 19 29 33 27 38 29 28 12z m-14 -55 c0 -5 -20 -39 -45
-78 -57 -88 -59 -75 -3 16 42 69 48 76 48 62z m35 -4 c-12 -18 -12 -68 -1 -61
6 3 4 -3 -4 -14 -22 -29 -24 -30 -16 -10 5 16 3 17 -20 12 l-26 -7 33 46 c18
25 34 45 36 45 2 0 1 -5 -2 -11z m28 -4 c-3 -9 -8 -14 -10 -11 -3 3 -2 9 2 15
9 16 15 13 8 -4z m31 -29 c-3 -9 -10 -16 -15 -16 -18 0 -8 -16 10 -17 11 -1
22 6 24 15 3 10 5 6 6 -9 1 -30 -26 -48 -31 -21 -3 13 -8 10 -20 -13 -13 -23
-17 -25 -16 -10 0 11 -1 31 -4 45 -3 14 -3 19 -1 12 3 -8 12 -4 25 13 22 28
33 28 22 1z m210 -8 c-3 -4 -9 -8 -15 -8 -5 0 -9 4 -9 8 0 5 7 9 15 9 8 0 12
-4 9 -9z m40 -18 c-10 -16 -19 -28 -21 -26 -6 6 20 56 29 56 5 0 1 -13 -8 -30z
m-194 -21 c0 -11 -4 -18 -10 -14 -5 3 -7 12 -3 20 7 21 13 19 13 -6z m217 -1
c-3 -8 -6 -5 -6 6 -1 11 2 17 5 13 3 -3 4 -12 1 -19z m214 -10 c6 1 8 -2 4 -8
-4 -6 1 -22 10 -36 17 -26 17 -38 0 -26 -12 8 -55 87 -55 99 0 4 8 -1 16 -12
8 -11 20 -19 25 -17z m-161 2 c0 -11 -7 -20 -15 -20 -8 0 -15 8 -15 18 0 14 2
15 10 2 8 -13 10 -12 10 3 0 9 2 17 5 17 3 0 5 -9 5 -20z m59 -30 c0 -10 -3
-8 -9 5 -12 27 -12 43 0 25 5 -8 9 -22 9 -30z m41 -12 c0 -10 -4 -18 -10 -18
-5 0 -10 15 -10 33 0 24 3 28 10 17 5 -8 10 -23 10 -32z m17 0 c-3 -8 -6 -5
-6 6 -1 11 2 17 5 13 3 -3 4 -12 1 -19z m213 -242 c-6 -20 -20 -42 -30 -49
-19 -13 -62 -125 -54 -139 8 -12 -6 -48 -18 -48 -6 0 -8 9 -5 19 8 34 -24 5
-63 -55 -57 -89 -137 -115 -334 -108 -125 5 -180 24 -220 78 -25 34 -41 70
-27 62 5 -3 15 2 22 11 10 11 10 14 2 9 -9 -5 -11 -2 -7 8 3 8 18 19 33 24 26
9 28 8 28 -19 0 -17 5 -35 12 -42 10 -9 11 -8 5 7 -5 13 -4 17 3 13 6 -4 14
-1 17 5 4 7 4 3 2 -9 -2 -13 0 -26 5 -29 5 -3 9 -2 8 3 -4 21 2 34 13 27 7 -4
8 -3 4 4 -11 19 33 55 57 47 12 -3 27 -6 32 -6 75 6 112 4 107 -3 -3 -5 2 -6
12 -3 10 4 24 7 32 7 9 0 12 5 9 10 -3 6 0 10 8 10 11 0 13 7 9 22 -5 19 -2
21 32 15 22 -3 34 -2 31 4 -4 5 3 9 14 9 11 0 23 -4 26 -10 12 -19 30 -10 46
23 11 22 26 35 50 41 19 6 39 17 45 25 7 8 20 12 33 8 16 -4 21 -1 21 13 0 10
7 23 15 30 8 7 15 20 15 28 0 12 3 13 11 5 8 -8 8 -21 -1 -47z m-810 -68 c26
-44 35 -91 20 -118 -15 -29 -34 -13 -54 47 -32 93 -9 140 34 71z m780 -107 c0
-10 -7 -21 -15 -25 -16 -6 -19 3 -9 28 8 22 24 20 24 -3z m-860 -256 c-7 -9
-15 -13 -17 -11 -7 7 7 26 19 26 6 0 6 -6 -2 -15z m200 -125 c-6 -12 -14 -19
-17 -17 -2 3 1 15 7 27 6 12 14 19 17 17 2 -3 -1 -15 -7 -27z m33 15 c-3 -9
-8 -14 -10 -11 -3 3 -2 9 2 15 9 16 15 13 8 -4z m21 -19 c-3 -9 -10 -16 -15
-16 -5 0 -4 9 3 20 14 22 21 20 12 -4z m118 -28 c-8 -8 -9 -4 -5 13 4 13 8 18
11 10 2 -7 -1 -18 -6 -23z m125 -15 c-3 -10 -5 -4 -5 12 0 17 2 24 5 18 2 -7
2 -21 0 -30z"/>
<path d="M3545 8650 c-3 -5 -1 -10 4 -10 6 0 11 5 11 10 0 6 -2 10 -4 10 -3 0
-8 -4 -11 -10z"/>
<path d="M3563 8639 c-35 -22 -40 -33 -21 -45 7 -5 8 -3 3 6 -5 9 -4 11 4 6 8
-5 6 -15 -9 -36 -11 -15 -20 -32 -20 -37 0 -5 -14 -17 -31 -27 -17 -10 -28
-20 -25 -23 3 -3 11 -1 18 4 7 5 20 12 29 16 15 5 15 2 -1 -31 -19 -38 -17
-57 3 -46 7 4 2 -3 -10 -15 -27 -25 -29 -33 -8 -25 22 9 18 -7 -8 -31 -12 -11
-18 -17 -13 -12 18 13 27 7 21 -14 -5 -15 -4 -19 5 -14 9 6 9 3 1 -12 -6 -11
-7 -23 -3 -27 3 -4 -1 -4 -11 0 -9 3 -17 2 -17 -3 0 -16 78 -15 109 2 35 17
45 19 36 5 -3 -5 1 -10 9 -10 10 0 13 -6 9 -17 -5 -14 -3 -15 6 -7 10 9 10 16
-1 33 -11 20 -11 24 7 37 17 13 18 16 5 24 -8 5 -19 10 -25 10 -5 0 -3 4 5 9
8 6 18 7 22 5 4 -3 5 2 2 10 -6 16 3 20 44 16 12 -1 22 4 22 10 0 7 -8 10 -20
7 -20 -5 -46 24 -33 37 3 3 -4 6 -17 6 -12 0 -28 -7 -35 -16 -12 -17 -12 -18
-6 39 1 4 10 7 22 7 11 0 17 -4 14 -10 -3 -6 1 -7 9 -4 9 3 16 10 16 16 0 5
-5 6 -10 3 -6 -3 -13 1 -16 10 -5 13 -9 14 -15 4 -4 -8 -12 -10 -16 -5 -4 4 1
14 12 22 12 9 21 11 23 4 2 -5 11 -10 20 -10 8 0 12 3 9 6 -3 4 -2 15 4 25 14
27 -17 38 -36 13 -7 -11 -17 -16 -21 -11 -4 4 3 22 16 40 14 19 17 26 7 18
-25 -20 -34 -5 -12 19 11 12 13 20 6 20 -7 0 -10 4 -7 8 10 17 -41 10 -71 -9z"/>
<path d="M6571 8584 c0 -11 3 -14 6 -6 3 7 2 16 -1 19 -3 4 -6 -2 -5 -13z"/>
<path d="M3174 8475 c-15 -11 -16 -14 -3 -15 8 0 24 7 35 15 15 11 16 14 3 15
-8 0 -24 -7 -35 -15z"/>
<path d="M6443 8269 c4 -13 7 -42 8 -64 1 -38 1 -39 9 -11 10 32 3 83 -13 93
-6 4 -8 -3 -4 -18z"/>
<path d="M2772 8243 c-5 -10 -12 -34 -16 -53 -9 -50 11 -25 22 28 10 45 8 53
-6 25z"/>
<path d="M5942 8225 c0 -16 2 -22 5 -12 2 9 2 23 0 30 -3 6 -5 -1 -5 -18z"/>
<path d="M3482 8232 c14 -6 14 -10 4 -24 -7 -10 -16 -15 -19 -11 -4 3 -7 1 -7
-5 0 -7 7 -12 16 -12 8 0 13 -4 9 -9 -8 -14 16 -61 32 -61 7 0 13 7 13 15 0 8
9 23 20 32 26 22 25 29 -2 36 -12 4 -19 10 -14 14 7 8 11 9 37 12 5 0 7 6 4
11 -3 6 -30 10 -58 9 -29 0 -45 -3 -35 -7z"/>
<path d="M3768 8233 c7 -3 16 -2 19 1 4 3 -2 6 -13 5 -11 0 -14 -3 -6 -6z"/>
<path d="M3788 8153 c7 -3 16 -2 19 1 4 3 -2 6 -13 5 -11 0 -14 -3 -6 -6z"/>
<path d="M5690 8151 c0 -5 7 -15 17 -22 15 -13 15 -12 4 9 -12 23 -21 28 -21
13z"/>
<path d="M5340 8123 c-8 -9 -15 -22 -16 -27 -1 -6 -3 -17 -5 -24 -2 -7 10 -19
27 -27 34 -14 40 -9 58 49 13 39 -35 61 -64 29z"/>
<path d="M3382 8114 c-15 -11 -22 -25 -22 -50 0 -19 3 -34 7 -34 5 0 91 47
102 56 6 5 -42 43 -54 44 -6 0 -21 -7 -33 -16z"/>
<path d="M2697 8099 c-9 -11 -13 -29 -9 -37 4 -12 9 -8 19 17 17 40 11 51 -10
20z"/>
<path d="M2757 8114 c-4 -4 -7 -17 -7 -28 1 -19 1 -20 11 -3 11 19 8 43 -4 31z"/>
<path d="M5727 8099 c7 -7 15 -10 18 -7 3 3 -2 9 -12 12 -14 6 -15 5 -6 -5z"/>
<path d="M3409 8038 c-65 -50 -60 -64 10 -29 34 17 61 38 61 46 0 24 -25 18
-71 -17z"/>
<path d="M3950 8060 c-9 -6 -10 -10 -3 -10 6 0 15 5 18 10 8 12 4 12 -15 0z"/>
<path d="M4040 8060 c-9 -6 -10 -10 -3 -10 6 0 15 5 18 10 8 12 4 12 -15 0z"/>
<path d="M5985 8033 c7 -31 45 -94 45 -77 0 15 -40 104 -47 104 -3 0 -2 -12 2
-27z"/>
<path d="M5300 8033 c0 -10 12 -26 25 -36 23 -17 26 -17 32 -1 4 11 -2 23 -18
35 -30 23 -39 24 -39 2z"/>
<path d="M3445 8011 c-65 -30 -77 -43 -70 -74 l7 -27 32 22 31 21 -29 -31
c-22 -23 -26 -35 -18 -44 5 -7 12 -25 14 -39 3 -27 3 -26 61 25 56 50 57 53
46 83 -8 24 -15 30 -27 26 -14 -5 -15 -4 -6 8 6 8 9 22 5 31 -6 16 -9 16 -46
-1z"/>
<path d="M3727 8024 c-4 -4 -7 -11 -7 -16 0 -13 50 -6 53 7 2 12 -36 19 -46 9z"/>
<path d="M4062 8015 c-17 -19 -1 -19 24 0 14 11 15 14 4 14 -8 0 -21 -6 -28
-14z"/>
<path d="M3855 7974 c-56 -25 -53 -30 9 -12 45 13 62 23 49 30 -4 3 -30 -5
-58 -18z"/>
<path d="M5293 7994 c3 -3 -4 -15 -15 -26 -15 -15 -17 -22 -8 -33 10 -12 15
-12 36 2 13 8 24 21 24 27 0 14 -20 36 -34 36 -5 0 -7 -3 -3 -6z"/>
<path d="M2537 7935 c-10 -21 -16 -46 -14 -55 5 -27 39 36 35 67 -4 28 -4 28
-21 -12z"/>
<path d="M3943 7934 c-24 -14 -43 -27 -43 -30 0 -7 78 35 85 46 9 14 5 13 -42
-16z"/>
<path d="M3875 7920 c-3 -5 -2 -10 4 -10 5 0 13 5 16 10 3 6 2 10 -4 10 -5 0
-13 -4 -16 -10z"/>
<path d="M5258 7913 c17 -7 15 -23 -3 -23 -19 0 -19 -14 -1 -29 11 -9 18 -8
30 5 16 15 16 18 0 35 -9 11 -22 19 -28 18 -6 0 -6 -3 2 -6z"/>
<path d="M4787 7899 c7 -7 15 -10 18 -7 3 3 -2 9 -12 12 -14 6 -15 5 -6 -5z"/>
<path d="M3471 7846 c-49 -53 -64 -75 -39 -60 8 5 9 2 4 -11 -7 -18 -6 -18 14
0 24 22 27 9 3 -17 -9 -10 -14 -20 -12 -23 3 -2 31 22 63 54 49 50 56 61 51
84 -4 15 -13 27 -20 27 -6 0 -35 -24 -64 -54z m-20 -49 c-10 -9 -11 -8 -5 6 3
10 9 15 12 12 3 -3 0 -11 -7 -18z"/>
<path d="M3890 7870 c-9 -6 -10 -10 -3 -10 6 0 15 5 18 10 8 12 4 12 -15 0z"/>
<path d="M3896 7845 c-21 -17 -34 -35 -29 -38 10 -6 80 59 72 67 -2 2 -21 -11
-43 -29z"/>
<path d="M3975 7870 c-3 -5 -3 -10 1 -10 4 0 -3 -11 -16 -25 -12 -13 -26 -22
-31 -20 -9 6 -22 -13 -26 -38 -2 -12 12 -3 40 27 24 25 44 52 44 61 0 18 -3
19 -12 5z"/>
<path d="M5221 7829 c-7 -17 -10 -33 -7 -37 8 -8 27 19 20 29 -2 4 3 9 12 11
15 3 15 5 3 15 -12 10 -17 6 -28 -18z"/>
<path d="M5594 7851 c4 -6 0 -14 -8 -17 -22 -8 -20 -25 2 -18 12 4 13 3 5 -3
-10 -7 -3 -18 25 -45 48 -46 78 -61 98 -50 13 7 7 18 -37 66 -47 52 -102 95
-85 67z"/>
<path d="M5531 7801 c-17 -31 3 -64 35 -58 13 2 25 -1 27 -7 3 -8 8 -8 16 -1
8 8 0 21 -28 49 -38 37 -39 38 -50 17z"/>
<path d="M5171 7766 c-9 -16 -10 -29 -4 -41 9 -15 12 -14 32 10 16 21 18 31
10 41 -16 20 -24 17 -38 -10z"/>
<path d="M3300 7623 c-60 -91 -113 -215 -97 -225 7 -4 8 -8 3 -8 -5 0 -3 -7 5
-16 10 -13 10 -17 -2 -25 -11 -8 -10 -9 6 -7 10 2 22 14 26 28 4 14 8 18 8 10
1 -13 3 -13 12 0 9 12 9 11 3 -5 -18 -45 -12 -99 13 -124 13 -14 22 -30 19
-38 -4 -9 3 -13 19 -13 22 0 37 -19 18 -21 -35 -4 -51 -7 -71 -13 -19 -6 -21
-10 -11 -22 6 -8 8 -14 3 -14 -14 0 39 -34 71 -45 16 -6 29 -16 27 -23 -1 -7
7 -12 18 -12 22 0 27 -15 8 -23 -10 -4 -10 -6 0 -6 18 -1 15 -21 -4 -21 -8 0
-12 -4 -9 -10 3 -5 13 -10 21 -10 22 0 40 -22 38 -47 -1 -15 4 -23 15 -23 16
0 58 -40 53 -50 -2 -3 6 -6 18 -8 11 -2 18 -7 15 -12 -3 -5 4 -7 15 -5 16 3
20 -1 20 -20 0 -13 -4 -26 -9 -29 -8 -5 -8 -14 -2 -45 1 -2 8 2 16 9 9 7 18
11 21 8 8 -9 -86 -98 -104 -98 -8 0 -24 -7 -33 -16 -10 -9 -35 -18 -55 -19
-20 -1 -39 -8 -44 -15 -6 -10 -12 -10 -31 1 -20 10 -22 10 -13 -2 6 -8 25 -34
43 -59 l33 -45 -41 43 c-33 36 -43 42 -58 33 -16 -9 -16 -10 5 -11 26 0 28 -6
8 -26 -34 -33 -191 -21 -191 14 0 8 16 23 35 33 l35 20 -40 -6 c-22 -4 -36 -3
-32 1 14 14 86 32 106 27 10 -3 22 0 25 6 4 5 13 8 21 5 10 -4 6 12 -12 54
-29 64 -36 67 -98 47 -14 -4 -12 -2 5 9 14 8 33 15 44 16 12 0 16 5 12 16 -3
9 -6 18 -6 20 0 2 -12 4 -27 4 -22 0 -25 2 -13 10 11 7 3 10 -30 10 -43 1 -44
1 -25 17 16 12 16 14 3 10 -10 -3 -20 -2 -23 2 -3 5 -14 7 -25 4 -11 -3 -20 0
-20 6 0 6 -5 11 -11 11 -5 0 -7 -5 -3 -12 4 -6 3 -8 -3 -5 -5 3 -24 -3 -41
-14 -18 -10 -38 -19 -45 -19 -6 1 -3 6 9 13 45 26 84 67 84 87 0 15 -5 20 -14
17 -8 -3 -16 -2 -18 2 -2 4 -18 4 -35 -1 -23 -6 -39 -20 -52 -46 -11 -20 -20
-31 -21 -24 0 7 -5 10 -11 6 -8 -5 -8 -1 0 14 15 29 14 32 -13 32 -14 0 -33
-11 -44 -25 -11 -14 -25 -25 -32 -25 -9 0 -10 -13 -5 -46 7 -52 -9 -54 -20 -3
-7 30 -7 30 -27 12 -11 -9 -15 -19 -9 -21 5 -2 7 -10 4 -18 -4 -11 0 -15 13
-12 13 2 19 -3 19 -17 0 -15 8 -21 34 -23 18 -2 43 -12 54 -23 l21 -19 -25 0
c-25 -1 -93 -28 -71 -29 6 -1 12 -6 12 -12 0 -6 -9 -8 -20 -4 -11 3 -20 2 -20
-2 0 -5 -12 -14 -27 -21 -19 -8 -21 -10 -5 -6 34 8 170 9 178 1 4 -4 16 -7 26
-7 10 0 18 -3 18 -8 0 -4 -34 -8 -75 -10 -41 -1 -75 2 -75 6 0 14 -54 2 -80
-18 -24 -19 -24 -19 -2 -13 26 6 29 -4 5 -24 -16 -13 -16 -14 8 -9 19 4 29 1
33 -10 5 -14 9 -14 23 -3 12 10 14 10 9 2 -4 -9 -1 -13 10 -13 13 0 14 -3 5
-14 -15 -18 6 -26 50 -19 41 6 36 6 77 4 28 -1 33 -5 39 -32 4 -19 10 -28 19
-25 24 9 26 -15 3 -40 l-22 -24 31 -6 c18 -4 32 -11 32 -16 0 -5 8 -7 18 -4
13 4 19 1 19 -9 0 -8 -8 -15 -17 -15 -10 0 -24 -7 -31 -17 -13 -15 -12 -15 8
-5 12 7 26 12 30 11 25 -4 54 3 67 17 9 8 16 11 16 5 0 -5 -14 -19 -31 -31
-16 -12 -28 -24 -26 -26 6 -6 99 42 95 49 -2 3 1 9 6 14 5 5 6 3 2 -4 -4 -7
-2 -13 3 -13 10 0 12 7 15 50 1 8 7 15 14 15 6 0 11 5 10 10 -2 6 -13 10 -25
10 -43 -1 -5 17 43 20 81 6 117 -16 52 -31 -36 -7 -81 -38 -71 -48 3 -3 1 -6
-5 -6 -7 0 -12 -9 -12 -20 0 -11 -7 -20 -15 -20 -20 0 -19 -16 1 -24 9 -3 12
-11 8 -18 -6 -10 -4 -10 8 0 14 11 16 11 14 0 -1 -7 -6 -19 -10 -27 -7 -10 -6
-12 4 -6 9 5 11 4 6 -3 -4 -7 -13 -12 -20 -12 -7 0 -13 -6 -13 -14 0 -11 6
-11 35 1 19 8 37 12 40 9 3 -3 2 -6 -2 -6 -4 0 0 -7 9 -16 8 -9 23 -13 33 -10
9 3 1 -8 -18 -25 -19 -18 -30 -29 -25 -27 21 11 81 36 98 42 13 4 16 12 12 25
-3 11 0 23 6 27 9 5 10 2 6 -9 -3 -9 -1 -18 6 -20 7 -3 -5 -21 -30 -45 l-42
-39 40 7 c23 4 53 20 70 36 24 23 31 26 42 14 10 -10 9 -11 -2 -5 -10 6 -12 4
-7 -4 5 -7 16 -9 28 -5 18 5 20 3 14 -21 -4 -17 -3 -24 4 -20 5 3 10 0 10 -7
0 -7 8 -1 18 15 18 29 38 31 36 3 -1 -9 5 -16 14 -16 13 0 12 -3 -4 -16 -18
-15 -18 -15 0 -10 14 5 17 2 12 -10 -6 -15 -4 -15 11 -3 9 8 14 9 10 2 -9 -14
16 -116 26 -107 4 4 7 0 7 -9 0 -9 3 -17 8 -17 11 0 41 37 35 43 -3 3 -2 15 2
26 6 18 12 14 66 -41 33 -33 62 -59 64 -56 3 3 1 18 -5 33 -11 29 1 58 14 36
11 -18 26 -13 19 7 -10 27 -67 92 -80 92 -7 0 -13 9 -13 21 0 11 -4 17 -10 14
-20 -13 4 29 34 58 27 26 31 27 35 11 4 -25 21 -45 32 -38 5 3 9 -2 9 -10 0
-9 7 -16 15 -16 8 0 15 -8 15 -19 0 -21 23 -44 34 -33 4 4 6 3 4 -3 -1 -5 4
-20 12 -31 12 -17 17 -19 27 -9 6 7 9 16 5 21 -4 4 -2 4 5 0 7 -4 9 -14 6 -23
-9 -24 13 -8 56 41 20 22 50 55 66 71 31 30 52 57 117 151 30 42 34 53 23 67
-15 20 -29 22 -47 4 -28 -28 -110 -79 -116 -72 -3 3 0 10 8 15 8 6 12 10 7 10
-9 0 -47 -21 -69 -39 -10 -8 -18 -12 -18 -8 0 3 -17 -3 -37 -13 -21 -10 -40
-16 -43 -13 -5 5 38 44 84 76 14 10 26 24 26 32 0 8 19 40 41 72 23 32 39 49
35 38 -7 -19 -6 -19 15 2 l21 21 -27 71 c-15 40 -32 102 -39 139 -9 56 -14 67
-28 64 -10 -2 -18 -10 -18 -18 0 -56 -100 -298 -116 -281 -5 5 45 118 56 127
3 3 7 19 8 36 2 37 -25 55 -44 30 -12 -17 -29 -22 -19 -6 3 6 1 10 -5 10 -6 0
-2 12 9 26 16 21 18 30 10 46 -9 16 -8 19 3 15 7 -2 12 -10 11 -16 -2 -6 1
-11 7 -11 5 0 7 -7 4 -15 -9 -23 4 -18 17 6 9 17 8 23 -2 30 -11 7 -11 9 1 9
19 0 23 59 4 77 -10 10 -16 8 -34 -15 l-21 -27 5 27 c5 22 3 26 -9 22 -11 -4
-15 1 -15 17 -1 23 -1 23 -14 6 -14 -18 -14 -18 -18 0 -3 13 -8 9 -22 -20 -21
-43 -32 -44 -16 -2 7 18 7 31 1 34 -5 4 -13 19 -17 35 l-7 30 -33 -40 c-37
-43 -46 -39 -14 6 17 24 18 29 4 34 -11 4 -13 13 -8 28 6 20 3 19 -32 -9 -22
-17 -47 -29 -56 -28 -10 2 -20 -1 -24 -6 -3 -5 -10 -9 -16 -9 -7 0 -7 5 1 14
6 8 10 20 9 27 -2 8 3 13 10 11 10 -2 11 4 7 19 -5 14 -4 19 4 15 7 -5 9 -1 5
8 -3 9 -1 16 6 16 6 0 9 4 6 9 -3 5 1 14 9 21 14 11 13 15 -5 32 -15 14 -24
16 -39 8 -35 -18 -44 -11 -17 15 26 24 36 42 16 30 -14 -9 -13 8 2 23 9 9 7
12 -11 12 -12 0 -30 -4 -40 -10 -13 -6 -24 -5 -37 4 -18 13 -17 15 14 33 42
24 41 36 -2 30 -34 -5 -58 15 -35 28 5 4 7 11 3 16 -3 5 0 8 8 7 7 -2 14 7 16
20 2 15 -2 22 -13 22 -9 0 -25 9 -37 20 -19 17 -19 20 -5 20 9 0 17 7 17 15 0
8 -4 15 -9 15 -5 0 -11 9 -14 21 -4 13 -10 18 -17 14 -9 -6 -10 1 -5 24 5 24
3 31 -9 31 -10 0 -17 -13 -21 -37 -11 -62 -16 -62 -10 -2 6 66 -3 119 -19 119
-6 0 -17 14 -25 31 -17 38 -21 34 -76 -72 -58 -110 -58 -94 0 21 51 102 59
143 19 95 l-26 -30 21 42 c23 47 25 53 13 53 -4 0 -28 -30 -52 -67z m137 -386
c-2 -23 -3 -1 -3 48 0 50 1 68 3 42 2 -26 2 -67 0 -90z m-452 -308 c-8 -12
-56 -32 -62 -25 -5 4 45 33 60 35 5 1 5 -4 2 -10z m-165 -79 c0 -5 -2 -10 -4
-10 -3 0 -8 5 -11 10 -3 6 -1 10 4 10 6 0 11 -4 11 -10z m100 -4 c0 -2 -7 -6
-15 -10 -8 -3 -15 -1 -15 4 0 6 7 10 15 10 8 0 15 -2 15 -4z m744 -107 c-9
-18 -13 -45 -11 -65 3 -19 0 -34 -5 -34 -6 0 -7 8 -3 18 5 13 4 14 -6 5 -9 -9
-9 -16 -1 -25 5 -7 11 -16 11 -20 2 -11 11 -40 22 -66 11 -28 4 -43 -16 -35
-9 3 -15 -1 -15 -8 -1 -9 -6 -7 -15 5 -13 17 -15 18 -15 3 0 -9 -4 -17 -9 -17
-17 0 -29 26 -41 90 -11 58 -11 69 4 98 9 18 21 30 27 27 5 -4 8 -1 7 6 -2 6
3 14 11 17 9 3 11 0 7 -9 -5 -8 -2 -8 6 2 7 8 21 18 31 22 11 4 15 12 11 18
-4 8 -3 9 4 5 9 -5 8 -15 -4 -37z m33 1 c-3 -11 -1 -23 4 -26 11 -6 8 -36 -4
-45 -4 -3 -3 -18 3 -33 6 -17 6 -25 0 -21 -6 3 -10 13 -10 21 0 8 -4 14 -10
14 -14 0 -13 53 2 85 13 30 22 33 15 5z m-920 -146 c-3 -3 -12 -4 -19 -1 -8 3
-5 6 6 6 11 1 17 -2 13 -5z m920 -69 c-6 -15 8 -31 16 -18 2 5 2 2 0 -5 -1 -7
2 -23 9 -35 10 -20 10 -21 -6 -8 -25 21 -37 47 -30 65 3 9 8 16 11 16 3 0 3
-7 0 -15z m-467 -69 c0 -11 -19 -15 -25 -6 -3 5 1 10 9 10 9 0 16 -2 16 -4z
m230 -7 c0 -7 -25 -19 -39 -19 -4 0 -8 6 -8 14 0 8 10 13 24 12 12 0 23 -4 23
-7z m27 -27 c1 -13 -7 -18 -29 -20 l-31 -3 24 20 c30 25 34 26 36 3z m183
-181 c0 -26 26 -46 37 -29 12 20 42 18 48 -3 3 -10 -2 -30 -11 -44 -15 -23
-19 -24 -26 -11 -5 9 -13 14 -19 11 -5 -3 -6 1 -3 9 4 11 0 16 -12 16 -19 0
-74 41 -74 54 0 4 5 4 10 1 6 -3 10 -1 10 4 0 6 9 11 20 11 13 0 20 -7 20 -19z
m-130 -101 c0 -5 -5 -10 -11 -10 -5 0 -7 5 -4 10 3 6 8 10 11 10 2 0 4 -4 4
-10z"/>
<path d="M3610 6623 c0 -5 5 -15 10 -23 8 -12 10 -11 10 8 0 12 -4 22 -10 22
-5 0 -10 -3 -10 -7z"/>
<path d="M3635 6581 c-3 -6 -11 -9 -16 -6 -5 3 -6 -1 -3 -9 5 -14 8 -14 21 0
9 8 13 17 10 20 -3 3 -8 0 -12 -5z"/>
<path d="M2541 7642 c-12 -23 1 -49 16 -30 5 7 13 21 16 31 9 23 -19 23 -32
-1z"/>
<path d="M3080 6960 c0 -6 -6 -10 -14 -10 -16 0 -31 -18 -23 -27 7 -6 67 19
67 28 0 4 -7 9 -15 13 -8 3 -15 1 -15 -4z"/>
<path d="M3679 6933 c-13 -16 -12 -17 4 -4 9 7 17 15 17 17 0 8 -8 3 -21 -13z"/>
<path d="M4520 6849 c0 -16 4 -28 9 -25 8 5 3 56 -5 56 -2 0 -4 -14 -4 -31z"/>
<path d="M4563 6852 c1 -14 5 -18 11 -12 7 7 6 14 -1 21 -9 9 -12 7 -10 -9z"/>
<path d="M3268 6809 c-16 -6 -28 -15 -28 -20 0 -13 14 -11 28 3 8 8 15 8 27
-2 8 -7 24 -10 35 -7 11 3 23 1 26 -4 3 -5 -2 -9 -10 -9 -9 0 -16 -6 -16 -13
0 -7 -8 -17 -19 -24 -22 -14 -57 -10 -53 6 1 6 -3 11 -9 11 -17 0 18 -91 40
-105 21 -12 23 19 3 36 -12 9 -22 23 -22 30 0 7 8 3 18 -8 9 -11 33 -22 52
-26 19 -3 29 -3 22 0 -9 4 -10 8 -2 18 6 7 9 17 8 21 -2 5 7 19 20 32 22 22
29 43 15 41 -24 -4 -43 3 -40 14 3 16 -58 19 -95 6z"/>
<path d="M4696 6738 c-9 -36 -7 -70 4 -63 6 3 10 -1 10 -9 0 -9 5 -16 11 -16
5 0 8 4 5 9 -4 5 -1 11 5 13 9 3 9 15 3 43 -11 45 -29 56 -38 23z"/>
<path d="M4100 6697 c0 -72 66 -237 95 -237 22 0 18 18 -19 92 -19 37 -40 92
-47 123 -14 61 -29 73 -29 22z"/>
<path d="M4143 6689 c2 -25 19 -76 37 -114 28 -59 34 -66 45 -52 7 9 15 14 19
10 4 -4 11 -1 16 7 6 9 5 18 -3 23 -8 6 -7 7 4 4 37 -12 38 15 2 69 -39 58
-53 67 -53 32 -1 -20 -4 -18 -19 12 -11 19 -22 33 -26 32 -4 -2 -12 2 -17 10
-6 8 -8 -2 -5 -33z"/>
<path d="M4347 6694 c-8 -8 3 -34 14 -34 11 0 12 27 0 34 -4 3 -11 3 -14 0z"/>
<path d="M4250 6680 c0 -17 39 -71 40 -55 0 6 -9 24 -20 40 -11 17 -20 23 -20
15z"/>
<path d="M4280 6678 c0 -7 5 -20 10 -28 9 -13 11 -13 20 0 16 24 12 40 -10 40
-11 0 -20 -6 -20 -12z"/>
<path d="M4321 6631 c-8 -5 -9 -11 -3 -15 5 -3 12 1 16 9 6 17 6 18 -13 6z"/>
<path d="M2668 6553 c7 -3 16 -2 19 1 4 3 -2 6 -13 5 -11 0 -14 -3 -6 -6z"/>
<path d="M4153 6453 c4 -3 1 -13 -6 -21 -10 -13 -9 -14 11 -3 22 12 22 31 0
31 -6 0 -8 -3 -5 -7z"/>
<path d="M4175 6420 c-3 -5 -1 -10 4 -10 6 0 11 5 11 10 0 6 -2 10 -4 10 -3 0
-8 -4 -11 -10z"/>
<path d="M4255 6396 c-18 -13 -18 -15 -2 -30 9 -10 17 -14 18 -9 0 4 2 18 3
31 2 12 2 22 1 22 -1 0 -10 -6 -20 -14z"/>
<path d="M5050 6344 c0 -8 5 -12 10 -9 6 4 8 11 5 16 -9 14 -15 11 -15 -7z"/>
<path d="M5040 6309 c0 -16 13 -39 21 -39 5 0 9 11 9 23 0 14 -6 24 -15 24 -8
0 -15 -4 -15 -8z"/>
<path d="M4285 6229 c-4 -6 -5 -12 -2 -15 2 -3 7 2 10 11 7 17 1 20 -8 4z"/>
<path d="M4196 6163 c-3 -4 -6 -14 -6 -23 0 -10 -7 -23 -15 -30 -12 -10 -15
-10 -15 1 0 7 -10 3 -25 -11 -14 -13 -25 -31 -25 -39 1 -13 3 -13 15 2 12 17
13 12 14 -43 0 -58 5 -80 15 -69 2 2 6 33 8 69 2 49 7 65 18 65 8 0 18 -13 21
-30 5 -24 7 -19 8 23 0 28 5 52 9 52 5 0 9 7 9 15 0 15 -21 27 -31 18z"/>
<path d="M5210 6160 c0 -5 5 -10 10 -10 6 0 10 5 10 10 0 6 -4 10 -10 10 -5 0
-10 -4 -10 -10z"/>
<path d="M3435 6150 c-3 -5 -1 -10 4 -10 6 0 11 5 11 10 0 6 -2 10 -4 10 -3 0
-8 -4 -11 -10z"/>
<path d="M5220 6134 c0 -13 18 -39 24 -34 2 3 -2 14 -10 24 -8 11 -14 16 -14
10z"/>
<path d="M3335 6090 c-3 -6 1 -7 9 -4 18 7 21 14 7 14 -6 0 -13 -4 -16 -10z"/>
<path d="M4074 6042 c-37 -31 -37 -60 1 -98 19 -19 36 -34 39 -34 9 0 -6 95
-16 101 -6 4 -6 8 2 11 9 3 10 9 4 20 -8 15 -11 15 -30 0z"/>
<path d="M3379 5933 c-13 -16 -12 -17 4 -4 9 7 17 15 17 17 0 8 -8 3 -21 -13z"/>
<path d="M4689 5945 c-1 -5 -1 -14 0 -19 1 -5 -6 -3 -15 5 -16 13 -17 11 -11
-20 4 -19 15 -46 25 -60 l17 -26 3 47 c2 26 -2 56 -7 65 -6 10 -11 14 -12 8z"/>
<path d="M3940 5896 c0 -8 6 -17 13 -20 6 -3 0 -4 -15 -1 -22 4 -26 2 -22 -10
4 -8 9 -15 13 -15 4 0 15 -15 26 -32 25 -44 37 -50 53 -27 14 20 38 17 26 -3
-4 -6 -3 -9 2 -6 5 3 16 -1 24 -10 13 -14 12 -15 -4 -9 -12 5 -16 3 -14 -5 3
-7 13 -13 24 -13 10 1 22 -4 26 -9 4 -6 9 -8 11 -6 9 9 -29 75 -42 72 -7 -1
-10 2 -7 7 3 5 -15 27 -41 48 -63 52 -73 57 -73 39z"/>
<path d="M4947 5903 c-4 -3 -7 -11 -7 -17 0 -6 5 -5 12 2 6 6 9 14 7 17 -3 3
-9 2 -12 -2z"/>
<path d="M4203 5819 c2 -55 6 -84 15 -87 21 -7 18 133 -3 155 -12 11 -14 1
-12 -68z"/>
<path d="M4776 5891 c-4 -7 -5 -15 -2 -18 9 -9 19 4 14 18 -4 11 -6 11 -12 0z"/>
<path d="M4787 5827 c-30 -24 -44 -67 -23 -67 23 0 74 74 58 84 -5 3 -20 -5
-35 -17z"/>
<path d="M5030 5845 c-8 -29 -6 -55 2 -47 5 5 8 20 5 33 -2 13 -5 20 -7 14z"/>
<path d="M3930 5800 c0 -13 81 -90 94 -90 5 0 -10 18 -32 41 -23 22 -42 45
-42 50 0 5 -4 9 -10 9 -5 0 -10 -5 -10 -10z"/>
<path d="M2910 5740 c-13 -9 -13 -10 0 -10 8 0 22 5 30 10 13 9 13 10 0 10 -8
0 -22 -5 -30 -10z"/>
<path d="M4046 5675 c18 -28 23 -31 20 -12 -3 18 -16 37 -27 37 -5 0 -2 -11 7
-25z"/>
<path d="M2868 5533 c7 -3 16 -2 19 1 4 3 -2 6 -13 5 -11 0 -14 -3 -6 -6z"/>
<path d="M2545 5420 c-3 -6 1 -7 9 -4 18 7 21 14 7 14 -6 0 -13 -4 -16 -10z"/>
<path d="M2578 5404 c-12 -7 -31 -13 -40 -14 -9 0 -19 -4 -23 -9 -6 -11 41 1
72 18 11 5 23 8 26 5 3 -3 7 -1 11 4 8 13 -19 11 -46 -4z"/>
<path d="M2580 5380 c-9 -6 -10 -10 -3 -10 6 0 15 5 18 10 8 12 4 12 -15 0z"/>
<path d="M2665 5369 c-40 -25 -15 -25 27 1 18 11 26 20 18 19 -8 0 -28 -9 -45
-20z"/>
<path d="M2488 5163 c7 -3 16 -2 19 1 4 3 -2 6 -13 5 -11 0 -14 -3 -6 -6z"/>
<path d="M2550 5150 c-8 -5 -12 -11 -9 -14 3 -3 14 1 25 9 21 16 8 20 -16 5z"/>
<path d="M2500 5140 c0 -5 7 -7 15 -4 8 4 15 8 15 10 0 2 -7 4 -15 4 -8 0 -15
-4 -15 -10z"/>
<path d="M4065 4820 c10 -11 23 -20 28 -20 6 0 2 9 -8 20 -10 11 -23 20 -28
20 -6 0 -2 -9 8 -20z"/>
<path d="M2958 4775 c-3 -3 -16 -8 -28 -10 -23 -4 -64 -35 -56 -42 7 -8 85 29
90 43 6 14 3 18 -6 9z"/>
<path d="M3762 4768 c-17 -17 -15 -31 5 -24 9 4 20 1 25 -6 6 -10 10 -10 18 2
6 9 10 10 10 3 0 -6 -4 -15 -10 -18 -18 -11 -11 -34 10 -30 23 4 24 1 10 -26
-8 -14 -7 -19 1 -19 20 0 0 -53 -30 -80 -16 -14 -30 -34 -32 -45 -3 -13 -15
-22 -33 -25 -29 -5 -49 -30 -24 -30 7 0 -10 -21 -37 -48 -28 -26 -62 -64 -75
-84 -14 -21 -29 -38 -33 -38 -5 0 -5 5 -2 10 3 6 -1 10 -9 10 -9 0 -16 -4 -16
-9 0 -5 -13 -14 -30 -20 -36 -12 -36 -11 -10 36 22 41 25 63 10 63 -14 0 -32
-39 -24 -52 4 -7 3 -8 -4 -4 -12 7 -15 -6 -13 -49 1 -21 -2 -16 -20 33 -8 20
-12 21 -30 11 -21 -11 -22 -10 -16 20 4 17 3 30 -1 29 -14 -4 -52 14 -52 24 0
5 -7 8 -15 5 -8 -4 -17 -2 -20 3 -4 6 3 10 14 10 11 0 22 4 25 9 7 10 -19 23
-28 13 -8 -7 -99 -3 -146 7 -32 7 -33 8 -12 15 24 8 30 26 9 26 -7 0 -23 -7
-35 -16 -12 -8 -48 -18 -80 -21 -31 -2 -79 -14 -106 -25 -50 -20 -124 -83
-113 -95 4 -3 7 -1 7 6 0 7 6 11 13 8 8 -3 26 5 42 19 22 19 31 21 47 13 16
-8 25 -7 41 9 38 33 51 37 32 8 -10 -14 -13 -26 -7 -26 6 0 14 5 17 10 3 6 15
10 26 10 11 0 17 5 14 10 -3 6 -2 10 4 10 5 0 13 -5 16 -10 4 -6 11 -7 17 -4
6 4 13 3 17 -2 3 -5 15 -14 26 -21 11 -6 19 -16 17 -23 -2 -8 5 -9 20 -4 19 6
20 5 8 -8 -8 -8 -24 -18 -35 -23 -18 -8 -18 -9 8 -13 26 -3 62 19 50 32 -8 8
11 8 31 0 9 -3 13 -10 10 -15 -3 -5 2 -6 10 -3 9 3 16 1 16 -4 0 -15 -36 -25
-89 -23 -50 1 -96 -14 -125 -40 -10 -10 -24 -15 -32 -12 -8 3 -25 -2 -39 -11
-13 -9 -31 -16 -39 -16 -9 0 -20 -9 -26 -19 -14 -26 -13 -31 6 -31 14 0 15 -2
3 -17 -13 -15 -12 -15 9 -4 12 7 20 16 17 20 -2 5 11 21 31 36 26 20 39 24 46
17 8 -8 4 -14 -14 -21 -15 -5 -29 -15 -34 -22 -4 -8 -3 -10 4 -5 19 12 14 -6
-10 -31 -12 -13 -27 -39 -34 -59 -12 -35 -12 -35 9 -19 12 9 30 18 40 22 9 3
17 9 17 14 0 5 -7 6 -15 3 -21 -8 -19 9 3 29 24 22 31 21 41 -5 8 -21 10 -20
36 20 24 37 35 44 61 41 3 0 12 8 20 18 11 14 13 15 14 3 0 -8 -9 -21 -20 -28
-11 -7 -20 -17 -20 -23 0 -8 5 -7 15 1 8 7 15 9 15 4 1 -5 10 2 21 15 11 13
23 21 27 17 7 -8 8 -13 11 -41 0 -8 10 -24 21 -35 25 -25 52 -27 43 -3 -5 11
3 8 23 -10 16 -15 30 -23 32 -18 2 6 10 7 18 4 8 -3 14 -1 14 5 0 5 -11 13
-25 16 -14 4 -25 12 -25 20 0 19 97 -8 122 -34 23 -25 46 -27 27 -3 -10 11
-10 14 -1 9 6 -4 12 -2 12 3 0 6 -7 11 -15 11 -8 0 -15 5 -15 10 0 7 6 7 20 0
11 -6 20 -14 20 -18 0 -4 14 -7 30 -8 17 -1 39 -9 50 -19 11 -10 20 -15 20
-11 0 4 13 -2 28 -13 16 -11 40 -23 54 -26 14 -4 39 -19 56 -35 18 -16 41 -31
52 -35 11 -4 18 -11 14 -16 -3 -5 9 -14 26 -20 17 -6 29 -16 27 -23 -2 -6 10
-18 27 -27 17 -8 30 -20 29 -26 -1 -7 11 -15 28 -18 17 -4 28 -9 25 -12 -10
-10 45 -50 91 -68 27 -10 53 -23 60 -29 37 -33 50 -42 80 -58 63 -34 69 -17
22 70 -17 31 -30 48 -28 37 3 -27 -11 -75 -22 -75 -6 0 -5 8 1 19 13 25 13 34
0 26 -6 -3 -10 5 -10 19 0 29 -19 76 -32 76 -4 0 -8 -15 -9 -32 l-1 -33 -9 35
c-12 47 -21 92 -23 110 -1 9 -5 20 -9 26 -3 6 -11 24 -17 40 -9 27 -9 28 5 10
8 -11 15 -24 15 -28 0 -5 8 -18 19 -29 16 -17 19 -18 24 -4 4 8 2 27 -3 41
-14 35 -13 37 10 31 13 -3 20 0 20 10 0 9 -6 13 -15 9 -8 -3 -19 2 -23 12 -11
20 -4 45 9 36 11 -7 11 1 -2 51 -6 22 -12 56 -15 75 -2 20 -15 44 -29 57 -25
22 -34 40 -15 28 16 -10 12 24 -6 54 -9 15 -28 36 -43 45 -24 16 -24 17 -3 13
12 -3 22 -2 22 3 0 8 -30 24 -42 22 -4 -1 -17 12 -29 29 -11 16 -34 44 -50 62
-18 20 -27 38 -23 49 3 10 2 27 -1 39 l-7 21 -24 -23 c-13 -12 -27 -19 -31
-15 -5 4 7 20 25 34 31 25 32 29 21 60 -6 17 -15 32 -19 32 -4 0 -11 12 -15
27 -11 45 -57 67 -83 41z m95 -222 c-3 -8 -1 -16 5 -18 16 -6 18 -46 6 -86
-14 -46 -5 -63 16 -27 10 18 15 22 12 10 -2 -11 -7 -33 -11 -49 -6 -27 -5 -28
11 -15 16 13 17 12 11 -13 -4 -16 -3 -28 4 -30 16 -5 0 -57 -23 -69 -16 -9
-19 -7 -16 8 2 13 -2 17 -17 15 -11 -2 -23 -9 -27 -15 -3 -6 -10 6 -13 26 -7
37 -25 61 -25 34 0 -9 -13 -16 -35 -19 -27 -3 -36 0 -41 14 -3 10 -10 16 -15
12 -5 -3 -7 -10 -4 -15 3 -5 0 -6 -7 -4 -8 3 -25 -6 -38 -20 -24 -25 -47 -35
-34 -13 5 8 0 9 -17 5 -21 -6 -21 -4 9 24 23 22 31 36 27 50 -4 11 -2 19 4 19
6 0 20 9 31 20 11 11 20 17 20 13 0 -5 13 -8 30 -9 16 -1 29 2 28 5 -2 18 4
22 17 11 16 -13 18 -11 29 43 4 15 19 45 34 67 28 41 38 50 29 26z m103 -170
c-1 -38 -2 -40 -15 -22 -8 11 -15 38 -15 60 1 38 2 40 15 22 8 -11 15 -38 15
-60z m-410 -116 c-26 -37 -51 -53 -29 -20 8 14 19 31 23 38 4 6 12 12 17 12 6
0 1 -13 -11 -30z m200 5 c0 24 17 9 22 -20 4 -17 1 -25 -8 -25 -8 0 -14 -6
-15 -12 0 -8 -3 -7 -6 2 -3 8 -17 25 -30 37 -33 32 -28 48 7 23 26 -18 30 -19
30 -5z m210 -85 c0 -26 -3 -31 -10 -20 -5 8 -10 31 -10 50 0 26 3 31 10 20 5
-8 10 -31 10 -50z m-39 19 c-5 -13 -10 -19 -10 -12 -1 15 10 45 15 40 3 -2 0
-15 -5 -28z m70 -130 l-19 -74 -1 65 c0 43 2 60 8 51 8 -12 11 -9 17 12 3 16
8 26 10 24 2 -2 -5 -37 -15 -78z m-44 29 c-3 -7 -5 -2 -5 12 0 14 2 19 5 13 2
-7 2 -19 0 -25z m0 -40 c-3 -8 -6 -5 -6 6 -1 11 2 17 5 13 3 -3 4 -12 1 -19z
m91 -23 c-3 -3 -9 2 -12 12 -6 14 -5 15 5 6 7 -7 10 -15 7 -18z m-79 -75 c0
-9 -4 -8 -9 5 -5 11 -9 27 -9 35 0 9 4 8 9 -5 5 -11 9 -27 9 -35z"/>
<path d="M3750 4365 c-10 -13 -9 -15 9 -15 12 0 21 6 21 15 0 8 -4 15 -9 15
-5 0 -14 -7 -21 -15z"/>
<path d="M3650 4334 c0 -8 5 -12 10 -9 6 4 8 11 5 16 -9 14 -15 11 -15 -7z"/>
<path d="M3025 4760 c-3 -6 1 -7 9 -4 18 7 21 14 7 14 -6 0 -13 -4 -16 -10z"/>
<path d="M3034 4725 c-10 -8 -14 -15 -8 -15 6 0 17 7 24 15 16 19 9 19 -16 0z"/>
<path d="M3926 4715 c4 -11 13 -28 19 -38 10 -15 14 -15 18 -4 3 8 -6 25 -19
38 -23 21 -24 21 -18 4z"/>
<path d="M3467 4689 c-10 -6 -38 -9 -62 -7 -50 4 -46 -10 6 -18 25 -3 41 1 59
15 27 22 26 27 -3 10z"/>
<path d="M3715 4690 c-3 -5 -2 -10 4 -10 5 0 13 5 16 10 3 6 2 10 -4 10 -5 0
-13 -4 -16 -10z"/>
<path d="M2605 4654 c-18 -16 -22 -22 -9 -15 18 9 53 42 43 41 -2 -1 -17 -12
-34 -26z"/>
<path d="M4115 4593 c45 -70 45 -70 45 -47 0 24 -36 74 -52 74 -6 0 -2 -12 7
-27z"/>
<path d="M3735 4540 c-3 -5 -2 -10 4 -10 5 0 13 5 16 10 3 6 2 10 -4 10 -5 0
-13 -4 -16 -10z"/>
<path d="M4900 4525 c0 -8 5 -15 10 -15 6 0 10 7 10 15 0 8 -4 15 -10 15 -5 0
-10 -7 -10 -15z"/>
<path d="M3072 4494 c-32 -31 -34 -34 -13 -28 54 15 91 35 91 49 0 26 -39 16
-78 -21z"/>
<path d="M3278 4482 c-31 -19 -39 -39 -10 -23 16 9 51 42 41 40 -2 0 -16 -8
-31 -17z"/>
<path d="M3645 4480 c-16 -7 -17 -9 -3 -9 9 -1 20 4 23 9 7 11 7 11 -20 0z"/>
<path d="M4910 4466 c0 -31 6 -34 13 -6 3 11 1 23 -4 26 -5 3 -9 -6 -9 -20z"/>
<path d="M3345 4470 c-3 -5 -1 -10 4 -10 6 0 11 5 11 10 0 6 -2 10 -4 10 -3 0
-8 -4 -11 -10z"/>
<path d="M4191 4454 c0 -11 3 -14 6 -6 3 7 2 16 -1 19 -3 4 -6 -2 -5 -13z"/>
<path d="M2328 4408 c17 -8 26 -8 34 0 9 9 4 12 -22 11 -33 0 -34 -1 -12 -11z"/>
<path d="M2797 4392 c-27 -18 -34 -28 -25 -33 9 -6 8 -9 -7 -11 -68 -6 -125
-19 -125 -28 0 -19 -126 -55 -136 -38 -3 4 -2 8 3 7 4 -1 28 7 53 19 l45 22
-33 0 c-18 0 -40 -7 -48 -15 -17 -17 -34 -20 -34 -6 0 5 -18 5 -42 0 -23 -6
-47 -8 -55 -5 -7 3 -12 0 -10 -7 1 -7 -6 -11 -18 -9 l-20 4 20 -17 c11 -9 14
-13 6 -9 -10 5 -12 3 -7 -5 5 -7 15 -10 25 -7 9 3 5 -3 -9 -14 -43 -34 -60
-53 -54 -61 2 -4 -4 -13 -13 -19 -16 -10 -14 -11 8 -7 15 2 35 -2 45 -10 17
-12 17 -13 -3 -13 -11 0 -23 -7 -27 -15 -3 -8 -12 -15 -20 -15 -8 0 -17 -4
-20 -8 -3 -4 14 -7 37 -6 51 3 114 -12 119 -28 6 -17 55 5 93 40 l30 27 -27 3
c-19 2 -25 8 -21 18 3 8 11 14 19 14 8 0 14 6 14 14 0 8 9 17 19 21 11 3 25
13 33 22 11 14 10 15 -12 8 -42 -12 -11 10 75 56 44 23 92 52 107 65 15 12 43
27 62 34 19 6 36 16 39 23 8 22 -47 15 -86 -11z m-317 -101 c0 -5 -13 -14 -30
-20 -35 -12 -40 -1 -7 15 29 15 37 16 37 5z"/>
<path d="M3376 4401 c-3 -5 0 -11 8 -14 15 -6 26 1 26 15 0 11 -27 10 -34 -1z"/>
<path d="M4060 4391 c0 -11 5 -23 10 -26 6 -3 10 3 10 14 0 11 -4 23 -10 26
-5 3 -10 -3 -10 -14z"/>
<path d="M5609 4386 c6 -8 24 -16 38 -19 l27 -5 -25 19 c-29 23 -58 26 -40 5z"/>
<path d="M2595 4377 l-30 -11 30 -6 c30 -6 95 8 95 20 0 11 -63 9 -95 -3z"/>
<path d="M4817 4367 c-5 -14 10 -37 24 -37 10 0 5 28 -8 41 -7 7 -12 6 -16 -4z"/>
<path d="M5725 4370 c3 -5 8 -10 11 -10 2 0 4 5 4 10 0 6 -5 10 -11 10 -5 0
-7 -4 -4 -10z"/>
<path d="M5498 4363 c7 -3 16 -2 19 1 4 3 -2 6 -13 5 -11 0 -14 -3 -6 -6z"/>
<path d="M5823 4346 c28 -26 47 -33 47 -18 0 5 -12 15 -27 23 -46 22 -49 22
-20 -5z"/>
<path d="M3525 4329 c-4 -6 -5 -12 -2 -15 2 -3 7 2 10 11 7 17 1 20 -8 4z"/>
<path d="M4800 4320 c0 -5 5 -10 11 -10 5 0 7 5 4 10 -3 6 -8 10 -11 10 -2 0
-4 -4 -4 -10z"/>
<path d="M2295 4300 c-10 -11 -16 -23 -13 -25 7 -7 77 27 78 38 0 15 -48 6
-65 -13z"/>
<path d="M4990 4309 c0 -5 5 -7 10 -4 6 3 10 8 10 11 0 2 -4 4 -10 4 -5 0 -10
-5 -10 -11z"/>
<path d="M5874 4295 c11 -8 24 -15 30 -15 5 0 1 7 -10 15 -10 8 -23 14 -29 14
-5 0 -1 -6 9 -14z"/>
<path d="M5010 4280 c0 -5 5 -10 10 -10 6 0 10 5 10 10 0 6 -4 10 -10 10 -5 0
-10 -4 -10 -10z"/>
<path d="M4890 4251 c0 -5 -8 -12 -17 -15 -27 -9 -42 -48 -29 -75 7 -16 6 -28
-2 -42 -7 -10 -12 -27 -12 -36 0 -15 -2 -16 -10 -3 -8 12 -10 10 -10 -8 0 -14
4 -21 10 -17 21 13 62 88 65 119 6 44 10 59 18 74 5 7 4 12 -2 12 -6 0 -11 -4
-11 -9z"/>
<path d="M4980 4251 c-14 -5 -28 -81 -16 -81 10 0 37 61 34 74 -2 7 -10 11
-18 7z"/>
<path d="M4816 4242 c-3 -6 -1 -14 5 -17 15 -10 25 3 12 16 -7 7 -13 7 -17 1z"/>
<path d="M5023 4238 c-37 -58 -39 -84 -4 -49 12 12 18 21 14 21 -4 0 -2 5 5
12 7 7 12 16 12 20 0 12 -18 9 -27 -4z"/>
<path d="M2678 4205 c-27 -20 -48 -40 -48 -46 0 -6 17 4 38 22 21 19 47 39 58
46 10 6 15 12 9 12 -5 0 -31 -15 -57 -34z"/>
<path d="M4756 4225 c-3 -9 -6 -18 -6 -19 0 -1 9 -2 21 -3 14 -1 19 3 17 14
-4 23 -24 27 -32 8z"/>
<path d="M4920 4221 c0 -12 5 -21 10 -21 6 0 10 6 10 14 0 8 -4 18 -10 21 -5
3 -10 -3 -10 -14z"/>
<path d="M5324 4223 c2 -10 12 -18 22 -18 10 -1 25 -4 32 -8 16 -10 16 15 0
31 -19 19 -57 15 -54 -5z"/>
<path d="M5050 4211 c0 -5 5 -13 11 -16 6 -4 8 -13 5 -21 -3 -8 6 -26 19 -40
21 -22 27 -25 40 -14 10 9 15 9 15 1 0 -6 -4 -11 -10 -11 -5 0 -9 -5 -7 -12 1
-6 -15 -21 -35 -32 -42 -23 -47 -32 -20 -40 9 -3 -8 -3 -38 0 -36 3 -50 2 -41
-4 11 -8 10 -11 -4 -20 -27 -15 -10 -33 21 -22 17 7 23 7 19 0 -10 -16 3 -12
46 17 23 15 35 29 29 33 -6 4 7 12 28 18 21 6 49 23 62 37 27 28 54 32 76 10
11 -11 12 -19 5 -34 -17 -31 6 -70 24 -41 19 31 43 -17 25 -50 -11 -20 -10
-21 9 -11 11 6 36 31 57 56 41 51 56 48 56 -9 0 -20 4 -39 9 -42 5 -3 9 2 9
11 0 8 6 18 14 21 8 3 14 18 14 34 -1 16 4 35 10 43 17 21 -5 39 -31 26 -12
-7 -17 -7 -13 -1 3 5 -1 15 -9 22 -12 10 -18 10 -30 0 -12 -10 -15 -10 -15 0
0 8 -3 10 -7 7 -3 -4 -14 0 -24 9 -10 9 -23 13 -29 9 -8 -5 -5 -11 7 -21 17
-12 17 -13 1 -14 -16 0 -20 6 -17 27 0 3 -6 10 -15 15 -21 12 -21 32 0 24 11
-4 14 -1 12 11 -4 21 -36 29 -51 14 -7 -7 -6 -15 4 -27 13 -15 11 -16 -11 -9
-14 4 -29 11 -34 16 -14 12 -53 11 -61 -2 -4 -5 -12 -8 -18 -6 -7 2 -21 1 -33
-4 -25 -9 -40 -1 -45 25 -4 20 -29 35 -29 17z"/>
<path d="M5095 4200 c-3 -5 -1 -10 4 -10 6 0 11 5 11 10 0 6 -2 10 -4 10 -3 0
-8 -4 -11 -10z"/>
<path d="M2896 4184 c-5 -14 -4 -15 9 -4 17 14 19 20 6 20 -5 0 -12 -7 -15
-16z"/>
<path d="M4902 4123 c-31 -48 -35 -73 -12 -73 15 0 52 79 48 103 -2 18 -9 13
-36 -30z"/>
<path d="M5025 4160 c-3 -5 -4 -14 0 -19 3 -5 1 -12 -5 -16 -5 -3 -10 -13 -10
-21 0 -9 5 -12 12 -8 8 5 9 2 5 -9 -8 -22 7 -22 33 0 20 18 27 43 11 43 -5 0
-11 9 -14 20 -5 21 -22 26 -32 10z"/>
<path d="M2572 4095 c-24 -26 -36 -45 -28 -45 15 0 82 77 74 85 -2 2 -23 -16
-46 -40z"/>
<path d="M4360 4109 c0 -5 5 -7 10 -4 6 3 10 8 10 11 0 2 -4 4 -10 4 -5 0 -10
-5 -10 -11z"/>
<path d="M2909 4095 c-12 -11 -80 -35 -74 -26 3 6 3 11 -2 11 -12 -1 -79 -39
-69 -40 17 0 -18 -31 -52 -46 -19 -8 -33 -17 -29 -20 3 -3 15 -1 26 5 17 10
20 9 14 -4 -5 -15 -2 -15 33 0 22 9 56 27 76 40 44 29 56 32 37 8 -12 -14 -12
-16 1 -11 15 5 63 88 51 88 -4 0 -10 -2 -12 -5z"/>
<path d="M5542 4080 c-17 -28 -15 -40 8 -40 11 0 20 -5 20 -11 0 -5 -4 -8 -9
-4 -14 8 -24 -32 -12 -52 11 -18 11 -18 15 23 1 6 7 18 14 26 10 12 8 18 -8
33 -22 20 -16 43 6 24 16 -13 30 -6 19 10 -10 18 -39 13 -53 -9z"/>
<path d="M4428 4072 c-6 -22 8 -42 29 -42 7 0 13 9 13 21 0 11 -4 18 -9 14 -6
-3 -14 2 -19 11 -8 14 -10 14 -14 -4z"/>
<path d="M5613 4060 c1 -10 5 -16 10 -13 4 2 15 -1 23 -8 19 -15 31 -4 15 15
-19 23 -50 27 -48 6z"/>
<path d="M5690 4061 c0 -4 12 -21 27 -35 34 -34 45 -15 12 20 -23 24 -39 31
-39 15z"/>
<path d="M5500 4045 c-10 -12 -10 -15 4 -15 9 0 16 7 16 15 0 8 -2 15 -4 15
-2 0 -9 -7 -16 -15z"/>
<path d="M4784 4009 c3 -24 7 -53 9 -64 3 -11 5 -30 6 -43 0 -14 5 -20 12 -17
6 4 8 14 5 22 -4 9 -1 22 6 30 8 10 8 17 1 21 -5 4 -13 24 -17 44 -10 55 -30
61 -22 7z"/>
<path d="M4850 4020 c0 -5 5 -10 10 -10 6 0 10 5 10 10 0 6 -4 10 -10 10 -5 0
-10 -4 -10 -10z"/>
<path d="M4465 4000 c-3 -11 -2 -28 4 -37 8 -15 10 -11 11 20 0 41 -5 47 -15
17z"/>
<path d="M2338 4003 c7 -3 16 -2 19 1 4 3 -2 6 -13 5 -11 0 -14 -3 -6 -6z"/>
<path d="M4502 3970 c0 -19 2 -27 5 -17 2 9 2 25 0 35 -3 9 -5 1 -5 -18z"/>
<path d="M4831 3984 c0 -11 3 -14 6 -6 3 7 2 16 -1 19 -3 4 -6 -2 -5 -13z"/>
<path d="M4181 3964 c0 -11 3 -14 6 -6 3 7 2 16 -1 19 -3 4 -6 -2 -5 -13z"/>
<path d="M5033 3917 c-21 -9 -40 -37 -25 -37 10 1 56 40 51 44 -2 2 -14 -1
-26 -7z"/>
<path d="M5150 3875 c-24 -25 -38 -45 -31 -45 14 0 81 67 81 81 0 14 -3 12
-50 -36z"/>
<path d="M4213 3875 c0 -22 2 -30 4 -17 2 12 2 30 0 40 -3 9 -5 -1 -4 -23z"/>
<path d="M5069 3872 c-61 -36 -124 -88 -144 -119 -10 -14 -12 -22 -6 -19 17
11 13 -16 -9 -52 -20 -32 -27 -72 -12 -72 19 1 50 41 80 102 18 37 37 70 43
73 5 4 6 11 3 17 -4 6 -3 9 2 6 5 -3 32 16 59 43 56 55 52 61 -16 21z m-93
-130 c-18 -16 -18 -16 -6 6 6 13 14 21 18 18 3 -4 -2 -14 -12 -24z"/>
<path d="M4250 3840 c0 -5 5 -10 10 -10 6 0 10 -8 10 -19 0 -10 7 -32 16 -47
l16 -29 -7 45 c-6 44 -19 70 -36 70 -5 0 -9 -4 -9 -10z"/>
<path d="M4248 3768 c3 -13 12 -33 20 -46 8 -12 15 -36 17 -54 3 -40 25 -50
25 -11 0 24 -53 133 -64 133 -2 0 -2 -10 2 -22z"/>
<path d="M2369 3703 c-13 -17 -13 -17 6 -3 11 8 22 16 24 17 2 2 0 3 -6 3 -6
0 -17 -8 -24 -17z"/>
<path d="M4560 3640 c-6 -11 -8 -20 -6 -20 3 0 10 9 16 20 6 11 8 20 6 20 -3
0 -10 -9 -16 -20z"/>
<path d="M2013 3633 c-36 -24 -30 -46 10 -38 l32 6 -28 -16 c-18 -11 -26 -22
-23 -31 3 -8 2 -13 -2 -10 -4 2 -14 0 -22 -5 -11 -7 1 -9 38 -6 34 3 60 11 70
22 16 17 15 17 -18 11 -39 -6 -32 2 31 37 38 21 32 33 -11 19 -27 -10 -29 -9
-21 6 8 14 5 18 -12 19 -12 1 -32 -5 -44 -14z"/>
<path d="M4487 3613 c-4 -3 -7 -11 -7 -17 0 -6 5 -5 12 2 6 6 9 14 7 17 -3 3
-9 2 -12 -2z"/>
<path d="M4571 3568 c-18 -37 -20 -39 -15 -13 l6 30 -36 -40 c-19 -22 -35 -45
-36 -50 0 -6 18 -28 40 -50 22 -21 38 -41 35 -43 -5 -5 41 -90 61 -113 8 -8
14 -22 14 -30 0 -19 61 -79 81 -79 9 0 22 13 30 29 66 133 120 229 138 245 11
11 21 25 21 32 0 7 12 21 27 32 15 11 23 24 19 31 -5 8 -19 3 -44 -16 -20 -16
-40 -32 -44 -38 -17 -27 -46 -54 -51 -49 -3 3 -1 20 4 37 5 18 5 35 0 40 -5 5
-14 -13 -21 -41 -6 -28 -21 -59 -32 -69 -20 -18 -21 -17 -15 2 24 82 17 142
-10 87 -26 -53 -83 -44 -83 12 0 39 -20 10 -32 -46 -8 -36 -20 -63 -29 -66 -8
-2 -10 0 -4 5 6 4 11 19 12 33 0 14 4 43 8 65 7 38 6 39 -8 20 -15 -19 -16
-17 -10 33 3 28 3 52 1 52 -3 0 -15 -19 -27 -42z m-30 -71 c-10 -9 -11 -8 -5
6 3 10 9 15 12 12 3 -3 0 -11 -7 -18z m106 -109 c-2 -18 -4 -6 -4 27 0 33 2
48 4 33 2 -15 2 -42 0 -60z"/>
<path d="M4904 3579 c-16 -16 -22 -28 -14 -24 13 5 56 55 47 55 -2 0 -16 -14
-33 -31z"/>
<path d="M4617 3594 c-4 -4 -7 -14 -7 -23 0 -11 3 -12 11 -4 6 6 10 16 7 23
-2 6 -7 8 -11 4z"/>
<path d="M4696 3572 c-4 -13 -5 -26 -2 -29 10 -11 18 4 14 29 l-4 23 -8 -23z"/>
<path d="M4480 3555 c0 -8 2 -15 4 -15 2 0 6 7 10 15 3 8 1 15 -4 15 -6 0 -10
-7 -10 -15z"/>
<path d="M3220 3529 c0 -5 5 -7 10 -4 6 3 10 8 10 11 0 2 -4 4 -10 4 -5 0 -10
-5 -10 -11z"/>
<path d="M1998 3503 c-31 -5 -35 -15 -15 -32 10 -8 24 -6 55 6 23 9 42 19 42
22 0 7 -44 9 -82 4z"/>
<path d="M3418 3483 c-29 -35 -33 -46 -9 -34 22 12 47 51 33 51 -5 0 -16 -8
-24 -17z"/>
<path d="M3481 3478 c-14 -23 -14 -23 8 -4 22 20 25 26 13 26 -4 0 -13 -10
-21 -22z"/>
<path d="M2110 3469 c0 -5 -5 -7 -11 -3 -6 3 -29 -2 -52 -12 -69 -31 -95 -75
-62 -108 22 -22 19 -73 -5 -88 -25 -16 -26 -28 -2 -23 16 3 18 -2 14 -23 -5
-26 -36 -78 -57 -95 -5 -5 5 -7 22 -4 26 3 30 1 22 -10 -7 -7 -17 -13 -23 -13
-6 0 -21 -18 -34 -40 -25 -44 -15 -54 16 -15 15 18 21 21 25 11 3 -7 1 -18 -5
-24 -8 -8 -5 -14 12 -20 l22 -8 -25 -28 c-25 -27 -26 -45 -4 -73 6 -9 4 -21
-7 -38 -9 -14 -13 -25 -9 -25 5 0 3 -4 -3 -8 -6 -4 -14 -24 -17 -45 -5 -34 -3
-39 19 -49 20 -9 27 -9 34 1 17 28 30 7 15 -23 -9 -16 -13 -37 -9 -45 4 -9 8
-20 8 -26 1 -5 9 -9 19 -7 9 2 17 -2 17 -9 0 -6 7 -9 15 -5 28 10 15 -17 -22
-49 -21 -18 -35 -37 -30 -41 4 -4 13 -2 19 4 33 33 34 -24 1 -61 -9 -9 -14
-19 -11 -22 3 -3 11 1 18 10 7 8 18 15 24 15 6 0 17 9 24 20 15 24 32 26 32 4
0 -8 -5 -12 -10 -9 -6 3 -12 0 -14 -7 -8 -26 -16 -43 -35 -73 -25 -39 -25 -48
-1 -40 14 5 20 2 20 -9 0 -18 15 -21 25 -6 3 6 11 10 18 10 6 0 3 -6 -6 -12
-22 -17 -50 -85 -37 -93 5 -3 15 3 22 15 21 32 30 23 27 -27 -2 -30 1 -48 9
-51 7 -2 10 -8 7 -13 -4 -5 0 -6 7 -4 8 3 21 0 31 -7 14 -10 18 -28 18 -78 0
-108 -1 -112 -34 -83 -18 17 -19 17 -32 0 -18 -25 -25 -21 -25 17 0 60 -14 55
-60 -21 -11 -18 -25 -33 -32 -33 -10 0 -10 2 1 9 9 6 10 11 2 15 -6 4 -10 22
-9 41 1 41 -6 52 -26 36 -14 -12 -32 -77 -26 -96 1 -5 3 -32 4 -60 1 -27 7
-66 14 -85 6 -19 14 -51 17 -71 3 -20 19 -51 35 -69 30 -34 31 -34 63 -18 54
26 81 35 95 31 18 -7 15 -23 -4 -23 -12 0 -15 -6 -10 -24 5 -19 1 -25 -19 -30
-33 -8 -32 -24 2 -28 25 -3 30 -12 36 -61 1 -10 8 -22 16 -27 12 -7 12 -12 -3
-34 -24 -38 0 -33 38 8 32 33 85 68 72 47 -4 -6 -2 -11 3 -11 6 0 11 -9 11
-21 0 -15 5 -19 19 -14 22 7 35 -30 25 -70 -7 -28 7 -33 26 -10 8 9 10 28 6
49 -4 20 -2 37 4 41 5 3 10 -1 10 -9 0 -9 7 -16 16 -16 13 0 15 -7 10 -31 -5
-29 -5 -29 12 -13 16 17 17 16 20 -15 2 -18 -1 -38 -7 -44 -5 -7 -10 -31 -9
-53 0 -29 -8 -53 -32 -87 -38 -57 -62 -72 -91 -56 -12 6 -29 9 -39 6 -16 -4
-18 0 -13 31 4 25 3 33 -5 28 -7 -4 -12 -2 -12 3 0 21 -21 11 -38 -19 -16 -26
-21 -28 -37 -17 -14 11 -17 24 -13 73 2 32 14 79 26 103 29 58 28 62 -8 45
-34 -18 -44 -30 -31 -39 7 -4 7 -15 0 -33 -6 -15 -15 -49 -20 -76 -16 -87 -59
-129 -59 -59 l0 37 -52 -51 c-44 -42 -57 -50 -75 -43 -25 10 -41 -4 -61 -59
-24 -63 -24 -75 0 -103 22 -27 27 -28 178 -38 108 -8 189 -8 265 0 61 5 155
10 210 10 72 0 139 8 240 29 l140 29 50 55 c55 61 116 95 215 121 63 17 68 16
147 -3 95 -22 103 -26 103 -49 0 -13 2 -13 15 4 17 22 20 38 5 29 -6 -3 4 14
20 39 17 25 35 48 41 51 32 20 114 158 114 193 0 13 48 78 119 158 44 50 78
73 84 56 1 -5 12 -8 22 -5 22 6 26 -7 8 -25 -15 -15 -3 -16 23 -2 15 8 19 8
17 -2 -2 -9 7 -12 30 -10 36 2 41 -11 15 -41 -17 -19 -17 -19 5 -13 19 6 22 4
22 -18 0 -26 14 -35 25 -16 3 6 18 10 32 10 22 0 24 -3 19 -25 -5 -20 -3 -23
11 -18 11 4 14 3 9 -5 -4 -7 -1 -12 10 -12 12 0 15 -6 11 -21 -4 -15 -2 -19 8
-15 17 6 30 -10 15 -19 -15 -9 -2 -25 21 -25 17 0 18 -3 7 -20 -12 -19 -3 -43
10 -24 4 5 23 11 43 12 35 3 67 -20 114 -83 11 -16 14 -17 15 -4 0 8 -11 26
-25 39 -13 12 -22 26 -20 31 8 12 48 -3 68 -24 20 -24 19 -19 8 -51 -12 -29 8
-51 45 -51 18 -1 21 2 12 12 -5 7 -14 11 -18 8 -5 -3 -11 -1 -15 5 -3 5 0 10
7 10 8 0 9 3 3 8 -5 4 -11 19 -13 34 -3 27 -2 27 25 13 15 -8 33 -15 39 -15
16 0 119 -86 173 -145 25 -27 57 -61 71 -75 14 -14 25 -28 25 -31 0 -10 33
-39 46 -39 22 0 125 -141 112 -154 -9 -8 18 -37 28 -30 5 3 9 -1 9 -8 0 -10 3
-9 10 2 8 12 11 12 28 -3 23 -21 32 -22 32 -1 0 8 4 13 9 10 4 -3 5 9 2 27 -5
21 -12 31 -23 29 -11 -2 -17 10 -22 44 -8 59 1 97 21 89 13 -4 14 1 8 32 -11
60 -35 110 -44 94 -6 -10 -10 -9 -15 6 -7 16 -8 17 -17 1 -5 -10 -17 -14 -29
-11 -12 3 -20 0 -20 -8 0 -7 -14 0 -31 17 -24 23 -29 25 -23 9 4 -11 18 -34
31 -51 13 -17 23 -33 23 -35 0 -10 -63 -1 -69 9 -4 7 -20 13 -35 14 -26 2 -66
42 -66 66 0 5 -7 16 -16 23 -9 7 -21 25 -26 39 -10 24 -11 24 -18 5 -7 -17 -9
-16 -16 13 -7 34 -41 65 -74 67 -22 2 -69 50 -86 90 -11 26 -13 28 -20 12 -9
-25 -24 -3 -24 37 0 22 -3 26 -13 18 -7 -6 -17 -8 -23 -4 -17 12 -33 59 -28
83 l5 24 -12 -22 c-16 -30 -25 -29 -41 7 -7 16 -17 29 -23 29 -28 -3 -35 4
-41 40 -4 28 -13 42 -30 50 -13 6 -24 19 -25 28 0 11 -3 13 -6 6 -10 -25 -23
-12 -23 22 0 38 -28 63 -48 43 -7 -7 -16 3 -30 35 -16 35 -30 50 -63 66 -23
11 -45 19 -49 16 -4 -2 -13 8 -21 23 -8 15 -19 31 -26 35 -7 4 -17 26 -24 49
-14 54 -38 90 -55 84 -8 -3 -14 -1 -14 5 0 6 -9 8 -20 4 -13 -4 -20 -2 -18 5
2 7 -5 14 -15 15 -27 5 -47 25 -47 47 0 13 -5 18 -13 15 -10 -4 -13 2 -10 18
7 31 -27 38 -74 14 -27 -13 -31 -14 -15 -3 27 20 29 38 2 31 -10 -3 -19 -2
-18 2 0 3 0 17 -1 30 -1 23 -2 24 -21 6 -26 -23 -28 0 -2 28 11 13 -1 9 -38
-13 -30 -18 -56 -36 -58 -41 -2 -5 -9 -9 -15 -9 -8 0 -7 4 1 12 25 25 14 41
-25 35 l-38 -6 25 19 c14 11 21 20 17 20 -5 0 1 12 12 26 12 15 21 31 21 35 0
15 -28 10 -34 -6 -3 -8 -11 -15 -18 -14 -10 0 -10 2 0 6 21 8 14 35 -8 28 -14
-5 -20 -2 -20 9 0 9 -5 16 -11 16 -5 0 -7 -4 -4 -10 3 -5 -8 -9 -28 -8 -28 1
-33 4 -29 20 2 10 1 18 -4 17 -19 -3 -34 1 -34 11 0 6 6 10 14 10 32 0 22 15
-11 16 -19 0 -39 7 -44 15 -8 12 -10 12 -18 -1 -5 -8 -7 -19 -3 -25 3 -5 -2
-4 -11 4 -13 10 -15 17 -6 27 6 8 8 14 3 14 -5 0 -2 5 6 10 13 8 12 10 -4 10
-14 0 -17 5 -13 20 4 18 2 20 -16 14 -12 -3 -28 -11 -35 -17 -23 -18 -26 3 -3
27 l22 23 -24 5 c-14 3 -32 1 -41 -4 -23 -13 -20 5 4 20 25 16 28 47 3 37 -21
-8 -75 -13 -68 -7 3 3 -3 11 -13 18 -14 10 -15 15 -4 25 20 21 14 32 -13 25
-18 -5 -25 -2 -25 8 0 24 -39 39 -93 38 -15 -1 -25 3 -22 8 4 6 -11 10 -34 10
-22 0 -43 5 -46 10 -3 6 -16 10 -28 10 -22 0 -22 1 3 20 14 10 22 21 19 25 -9
8 -60 8 -89 0 l-25 -8 20 23 20 23 -28 -5 c-22 -4 -27 -2 -23 9 4 11 1 13 -14
8 -11 -4 -20 -2 -20 4 0 15 -37 13 -89 -5 -50 -17 -62 -12 -38 14 34 37 12 43
-48 12 -43 -22 -85 -28 -50 -7 50 29 85 62 85 79 0 17 -4 16 -50 -7 -27 -14
-57 -25 -66 -25 -16 0 -16 1 -1 18 24 26 21 35 -8 28 -30 -8 -33 9 -5 26 25
16 26 30 3 21 -15 -5 -16 -3 -5 8 20 22 14 27 -30 23 l-43 -5 41 23 c64 36 96
65 92 85 -2 13 -12 17 -33 16 l-30 -2 23 19 c12 10 22 23 22 29 0 6 6 11 13
11 8 0 14 7 14 15 0 11 -9 13 -39 9 l-39 -7 12 27 c19 40 2 44 -30 5 -16 -19
-32 -31 -37 -26 -4 4 -2 7 5 7 7 0 9 5 5 11 -3 6 3 24 15 40 26 35 20 37 -22
7 -29 -20 -30 -21 -25 -2 3 10 9 27 13 37 5 12 3 17 -6 15 -7 -2 -13 3 -14 11
0 27 -22 21 -71 -19 -27 -23 -62 -48 -79 -57 -22 -11 -14 1 30 42 44 41 54 55
38 52 -27 -6 -29 0 -6 25 15 17 15 18 -10 18 -15 0 -27 -5 -27 -11z m190 -279
c-20 -13 -33 -13 -25 0 3 6 14 10 23 10 15 0 15 -2 2 -10z m-31 -1626 c-35
-20 -45 -17 -18 5 13 11 28 17 33 14 5 -3 -2 -12 -15 -19z m101 -16 c0 -7 -4
-19 -9 -26 -6 -11 -9 -9 -14 7 -2 11 -2 22 1 25 10 10 22 6 22 -6z m126 -173
c7 -18 -14 -75 -28 -75 -6 0 -7 7 -4 16 3 9 6 29 6 45 0 31 17 39 26 14z
m-252 -187 c7 -27 -11 -49 -23 -29 -9 15 -3 51 9 51 4 0 10 -10 14 -22z m-187
-42 c-4 -9 -11 -16 -17 -16 -15 0 -24 26 -16 47 6 15 8 15 23 1 9 -9 13 -24
10 -32z m55 9 c-5 -31 -22 -44 -22 -18 0 15 17 43 26 43 1 0 -1 -11 -4 -25z
m2778 -295 c0 -5 -2 -10 -4 -10 -3 0 -8 5 -11 10 -3 6 -1 10 4 10 6 0 11 -4
11 -10z"/>
<path d="M2770 3430 c-9 -6 -10 -10 -3 -10 6 0 15 5 18 10 8 12 4 12 -15 0z"/>
<path d="M3142 3433 c-7 -2 -17 -14 -23 -25 -9 -17 -8 -18 9 -9 39 21 51 49
14 34z"/>
<path d="M3539 3438 c0 -2 -2 -19 -4 -38 -3 -22 -1 -29 5 -20 5 8 7 17 4 21
-2 4 0 10 6 14 13 8 13 25 0 25 -5 0 -10 -1 -11 -2z"/>
<path d="M2514 3409 c-19 -22 -19 -22 4 -8 12 8 22 17 22 21 0 12 -6 9 -26
-13z"/>
<path d="M3580 3415 c0 -8 2 -15 4 -15 2 0 6 7 10 15 3 8 1 15 -4 15 -6 0 -10
-7 -10 -15z"/>
<path d="M2530 3380 c-9 -6 -10 -10 -3 -10 6 0 15 5 18 10 8 12 4 12 -15 0z"/>
<path d="M3571 3374 c0 -11 3 -14 6 -6 3 7 2 16 -1 19 -3 4 -6 -2 -5 -13z"/>
<path d="M2910 3325 c-43 -45 -27 -45 25 0 24 21 34 35 24 35 -8 0 -30 -16
-49 -35z"/>
<path d="M3377 3343 c-4 -3 -7 -11 -7 -17 0 -6 5 -5 12 2 6 6 9 14 7 17 -3 3
-9 2 -12 -2z"/>
<path d="M2729 3268 c-23 -21 -30 -33 -21 -36 7 -2 14 -2 15 0 1 1 15 18 31
36 38 41 19 42 -25 0z"/>
<path d="M3027 3293 c-10 -9 -9 -23 2 -23 5 0 11 7 15 15 5 15 -5 20 -17 8z"/>
<path d="M4816 3283 c-6 -14 -5 -15 5 -6 7 7 10 15 7 18 -3 3 -9 -2 -12 -12z"/>
<path d="M3366 3261 c-4 -7 -5 -15 -2 -18 9 -9 19 4 14 18 -4 11 -6 11 -12 0z"/>
<path d="M3480 3231 c0 -25 6 -27 13 -6 4 8 2 17 -3 20 -6 4 -10 -3 -10 -14z"/>
<path d="M2770 3220 c-9 -6 -10 -10 -3 -10 6 0 15 5 18 10 8 12 4 12 -15 0z"/>
<path d="M3427 3213 c-4 -3 -7 -11 -7 -17 0 -6 5 -5 12 2 6 6 9 14 7 17 -3 3
-9 2 -12 -2z"/>
<path d="M2974 3198 c-4 -7 -14 -23 -22 -35 -8 -13 -12 -23 -9 -23 9 0 50 61
44 66 -3 3 -8 -1 -13 -8z"/>
<path d="M3503 3173 c-3 -10 -8 -22 -10 -28 -3 -5 3 -1 11 9 16 20 21 36 11
36 -3 0 -8 -8 -12 -17z"/>
<path d="M2864 3076 c-10 -8 -16 -17 -13 -20 3 -3 14 3 24 14 21 23 17 26 -11
6z"/>
<path d="M3564 2993 c-3 -32 -11 -66 -16 -76 -11 -20 5 -57 16 -38 8 12 18
171 11 171 -2 0 -7 -26 -11 -57z"/>
<path d="M3220 2915 c-13 -14 -19 -25 -13 -25 6 0 18 11 27 25 9 14 15 25 13
25 -2 0 -14 -11 -27 -25z"/>
<path d="M3490 2929 c0 -3 -5 -32 -10 -65 -13 -70 -27 -109 -52 -146 -11 -16
-15 -28 -9 -28 5 0 13 5 17 12 10 16 25 -27 17 -50 -3 -10 2 -6 13 8 14 19 19
44 20 102 1 42 7 93 14 113 9 27 9 40 1 48 -6 6 -11 9 -11 6z"/>
<path d="M3446 2849 c-2 -8 -9 -29 -15 -48 -13 -41 -14 -54 -2 -47 11 7 35 95
28 103 -4 3 -8 0 -11 -8z"/>
<path d="M3530 2786 c-5 -15 -10 -33 -10 -40 0 -6 -5 -17 -11 -23 -6 -6 -9
-19 -6 -29 3 -15 8 -10 21 20 14 31 20 36 27 25 7 -9 8 -1 3 26 -9 51 -11 54
-24 21z"/>
<path d="M3561 2701 c-1 -8 -8 -23 -18 -33 -9 -10 -14 -20 -11 -23 8 -9 40 45
34 58 -3 8 -5 7 -5 -2z"/>
<path d="M3685 2600 c-3 -5 -1 -10 4 -10 6 0 11 5 11 10 0 6 -2 10 -4 10 -3 0
-8 -4 -11 -10z"/>
<path d="M3889 2543 c-13 -16 -12 -17 4 -4 16 13 21 21 13 21 -2 0 -10 -8 -17
-17z"/>
<path d="M6037 2529 c-4 -16 -3 -18 9 -8 7 6 11 15 8 20 -8 13 -11 11 -17 -12z"/>
<path d="M5980 2525 c7 -9 15 -13 17 -11 7 7 -7 26 -19 26 -6 0 -6 -6 2 -15z"/>
<path d="M5935 2510 c4 -6 11 -8 16 -5 14 9 11 15 -7 15 -8 0 -12 -5 -9 -10z"/>
<path d="M3786 2482 c-10 -19 -16 -36 -13 -38 7 -8 39 46 34 59 -2 7 -12 -3
-21 -21z"/>
<path d="M5877 2402 c-10 -10 -14 -22 -10 -25 3 -4 1 -7 -5 -7 -17 0 -15 -16
5 -35 14 -14 14 -18 2 -26 -8 -5 -24 -9 -36 -9 -30 0 -40 -20 -13 -27 12 -3
19 -11 16 -19 -3 -7 10 -22 30 -34 18 -12 34 -25 34 -28 1 -12 40 -55 46 -49
3 2 -1 21 -9 40 -14 33 -14 34 6 29 15 -4 19 -1 15 9 -4 8 -9 22 -13 32 -5 12
-2 17 11 17 11 0 15 4 9 8 -14 10 -17 52 -4 52 7 0 8 12 4 33 -12 54 -56 74
-88 39z"/>
<path d="M3920 2297 c-8 -7 -22 -21 -30 -32 -8 -11 0 -7 18 9 29 27 37 37 30
36 -2 0 -10 -6 -18 -13z"/>
<path d="M5838 2186 c-8 -8 -32 -15 -54 -17 -21 -1 -52 -9 -68 -17 -28 -14
-29 -15 -11 -28 17 -13 17 -14 2 -14 -10 0 -20 -7 -23 -15 -4 -8 -15 -15 -25
-15 -26 0 -24 -19 4 -30 14 -6 17 -9 6 -9 -14 -1 -12 -13 13 -83 16 -46 37
-94 46 -108 9 -14 18 -36 20 -49 2 -14 8 -33 14 -44 12 -24 18 -126 7 -133 -5
-3 -6 -11 -2 -19 3 -8 0 -15 -5 -15 -17 0 -19 -53 -3 -82 20 -36 34 -35 49 4
11 30 13 31 30 15 20 -18 34 -13 25 9 -8 22 14 16 31 -7 l15 -22 7 27 c7 31
15 32 39 6 10 -12 15 -28 12 -40 -4 -14 5 -36 25 -65 23 -32 32 -58 35 -97 l4
-53 -59 63 c-33 34 -62 62 -66 62 -15 0 -4 -29 13 -35 18 -6 36 -33 27 -42 -8
-9 -45 17 -66 47 -25 35 -36 38 -43 9 -5 -20 -7 -20 -31 -4 -29 20 -34 11 -9
-17 15 -17 15 -18 -2 -18 -17 0 -17 -1 -2 -18 23 -25 21 -35 -2 -22 -30 16
-38 12 -12 -6 17 -13 20 -18 10 -25 -10 -6 -9 -12 5 -28 25 -27 9 -27 -20 0
l-23 21 -10 -40 c-6 -21 -9 -55 -6 -73 5 -31 4 -32 -6 -11 -13 24 -38 30 -41
10 0 -7 -2 -17 -2 -23 -1 -5 -7 -20 -14 -32 -19 -35 -14 -43 26 -43 20 0 80
-7 132 -15 197 -31 821 -28 853 4 7 7 7 27 -2 63 -11 51 -13 53 -59 68 -35 11
-48 21 -50 36 -2 12 -12 30 -23 40 -18 17 -19 16 -19 -17 0 -48 -14 -67 -34
-50 -9 8 -16 19 -16 26 0 7 -7 18 -15 25 -13 11 -15 8 -15 -21 0 -19 -5 -41
-10 -49 -8 -12 -10 -11 -10 7 0 33 -50 54 -134 58 -73 2 -121 18 -111 36 4 5
-1 9 -9 9 -19 0 -20 -13 -3 -40 10 -17 9 -22 -3 -30 -23 -14 -31 -12 -37 10
-7 28 -18 25 -21 -7 -3 -33 -2 -32 -34 -26 -38 7 -43 34 -17 90 27 60 36 127
19 148 -7 9 -15 32 -17 52 -2 20 -9 43 -15 50 -7 9 -7 17 2 28 12 14 15 14 31
-1 17 -15 19 -15 25 -1 3 9 -1 24 -10 32 -22 23 -20 28 9 21 23 -6 25 -4 19
19 -5 22 -3 25 20 25 23 0 25 2 15 18 -7 11 -33 25 -60 34 -26 8 -46 11 -43 6
3 -4 -2 -5 -9 -2 -23 9 -29 46 -9 60 16 13 16 13 0 14 -10 0 -18 6 -18 14 0
17 -34 30 -52 20 -7 -4 -6 1 3 10 8 9 28 19 44 22 16 3 31 7 33 9 7 6 -31 70
-49 83 -11 7 -19 21 -20 30 0 11 -2 12 -6 4 -3 -7 5 -31 16 -53 l21 -40 -22 7
c-32 10 -44 29 -69 108 -16 51 -19 74 -11 90 12 26 -4 71 -35 99 -18 16 -22
16 -35 3z m112 -586 c0 -5 -5 -10 -11 -10 -5 0 -7 5 -4 10 3 6 8 10 11 10 2 0
4 -4 4 -10z m50 -410 c0 -11 -4 -20 -10 -20 -5 0 -10 9 -10 20 0 11 5 20 10
20 6 0 10 -9 10 -20z"/>
<path d="M4057 2033 c-10 -9 -8 -33 2 -33 5 0 11 9 14 20 5 20 -3 26 -16 13z"/>
<path d="M4190 1759 c0 -11 5 -17 10 -14 6 3 10 13 10 21 0 8 -4 14 -10 14 -5
0 -10 -9 -10 -21z"/>
<path d="M5705 1520 c10 -11 20 -20 22 -20 2 0 -2 9 -9 20 -7 11 -17 20 -22
20 -5 0 -1 -9 9 -20z"/>
<path d="M5711 1454 c13 -14 25 -20 27 -14 5 15 -17 40 -36 40 -12 0 -10 -6 9
-26z"/>
<path d="M2299 1432 c-13 -12 -18 -21 -12 -25 6 -4 18 4 27 18 20 30 16 31
-15 7z"/>
<path d="M5753 1415 c0 -9 4 -14 9 -13 5 2 10 8 10 13 0 5 -5 11 -10 13 -5 1
-9 -4 -9 -13z"/>
<path d="M2420 1386 c0 -8 -7 -16 -15 -20 -8 -3 -15 -15 -15 -26 0 -23 13 -26
27 -7 14 17 22 67 12 67 -5 0 -9 -6 -9 -14z"/>
<path d="M4080 1350 c19 -13 30 -13 30 0 0 6 -10 10 -22 10 -19 0 -20 -2 -8
-10z"/>
<path d="M4152 1229 c-12 -38 -22 -79 -22 -89 0 -11 -3 -20 -8 -20 -10 0 -30
-48 -38 -90 -3 -19 -12 -52 -20 -73 -8 -20 -14 -69 -14 -108 0 -39 -5 -80 -12
-92 -14 -25 -22 -135 -9 -121 14 15 41 106 41 136 0 16 13 55 28 86 16 32 32
76 35 99 4 23 10 49 14 59 5 13 3 15 -8 9 -12 -8 -12 -6 0 9 10 12 11 20 4 24
-8 5 -7 13 3 26 8 11 14 16 15 10 0 -5 5 2 11 16 14 32 20 152 7 145 -13 -8
-11 9 2 22 6 6 7 13 2 16 -5 3 -19 -25 -31 -64z"/>
<path d="M6390 1290 c0 -5 7 -10 16 -10 8 0 12 5 9 10 -3 6 -10 10 -16 10 -5
0 -9 -4 -9 -10z"/>
<path d="M2376 1264 c-15 -40 4 -48 22 -9 9 20 9 25 -2 25 -8 0 -17 -7 -20
-16z"/>
<path d="M4056 1267 c3 -10 9 -15 12 -12 3 3 0 11 -7 18 -10 9 -11 8 -5 -6z"/>
<path d="M4822 1260 c0 -14 2 -19 5 -12 2 6 2 18 0 25 -3 6 -5 1 -5 -13z"/>
<path d="M1805 1198 c-28 -95 -30 -127 -9 -143 29 -22 39 -18 54 23 8 20 16
40 18 45 2 4 -4 7 -13 7 -9 0 -13 5 -10 10 9 15 -5 110 -16 110 -4 0 -15 -24
-24 -52z"/>
<path d="M5635 1081 c-3 -5 -1 -12 5 -16 5 -3 10 1 10 9 0 18 -6 21 -15 7z"/>
<path d="M4655 1054 c35 -27 53 -35 60 -24 3 5 -8 16 -24 25 -39 20 -62 19
-36 -1z"/>
<path d="M5360 1033 c1 -12 29 -47 34 -42 7 7 -13 49 -24 49 -5 0 -10 -3 -10
-7z"/>
<path d="M3599 941 c-80 -86 -109 -125 -109 -145 0 -9 -4 -16 -10 -16 -5 0
-10 9 -10 20 0 24 -15 27 -24 4 -11 -29 -6 -45 27 -79 26 -26 36 -32 45 -23
15 15 16 41 1 32 -17 -10 -29 17 -16 38 15 23 31 24 23 1 -5 -12 2 -8 18 8 14
15 29 29 33 30 4 2 22 22 39 44 22 29 29 46 24 60 -5 13 -1 32 12 53 34 55 15
46 -53 -27z"/>
<path d="M3605 980 c-3 -5 -1 -10 4 -10 6 0 11 5 11 10 0 6 -2 10 -4 10 -3 0
-8 -4 -11 -10z"/>
<path d="M3852 949 c1 -17 4 -25 8 -18 7 10 2 49 -5 49 -2 0 -3 -14 -3 -31z"/>
<path d="M4548 832 c2 -26 10 -54 18 -63 8 -9 11 -18 8 -21 -3 -3 3 -23 14
-45 13 -24 18 -50 15 -70 l-5 -33 60 0 c65 0 92 6 92 22 0 6 -6 5 -15 -2 -13
-11 -15 -8 -15 20 0 26 -3 30 -14 21 -19 -16 -28 10 -20 60 6 34 4 39 -11 33
-14 -6 -16 -15 -10 -66 7 -55 6 -60 -11 -56 -17 3 -19 12 -15 94 3 84 1 92
-20 116 -13 14 -35 29 -49 32 -24 5 -25 4 -22 -42z"/>
<path d="M3852 830 c0 -19 2 -27 5 -17 2 9 2 25 0 35 -3 9 -5 1 -5 -18z"/>
<path d="M3850 774 c0 -8 5 -12 10 -9 6 4 8 11 5 16 -9 14 -15 11 -15 -7z"/>
<path d="M4137 763 c-8 -13 -20 -83 -13 -83 7 0 29 81 23 87 -3 2 -7 1 -10 -4z"/>
<path d="M4932 730 c-2 -23 2 -40 8 -40 11 0 14 12 10 45 -4 38 -16 35 -18 -5z"/>
<path d="M3897 753 c-3 -5 -1 -17 4 -28 6 -17 7 -16 6 8 -1 28 -3 32 -10 20z"/>
<path d="M3845 729 c-4 -6 -5 -12 -2 -15 2 -3 7 2 10 11 7 17 1 20 -8 4z"/>
<path d="M3741 706 c-1 -24 -3 -27 -16 -16 -12 10 -15 10 -15 0 0 -7 -7 -10
-16 -6 -8 3 -13 2 -10 -3 3 -5 -1 -14 -9 -21 -12 -10 -16 -9 -21 4 -4 10 -14
15 -29 12 -13 -3 -25 0 -27 5 -5 16 -35 0 -54 -28 -15 -24 -15 -26 0 -20 9 4
16 3 16 -2 0 -13 216 -71 264 -71 28 0 70 35 61 50 -3 5 1 23 10 40 9 17 15
36 12 43 -2 6 -11 -8 -20 -32 -18 -45 -35 -49 -52 -13 -11 24 -31 29 -38 10
-3 -8 -9 -3 -15 12 -6 14 -11 21 -12 15 0 -5 -7 4 -15 20 l-13 30 -1 -29z"/>
<path d="M3511 677 c-6 -8 -8 -17 -4 -20 12 -12 19 -7 19 13 0 24 0 24 -15 7z"/>
<path d="M4052 652 c-7 -21 -21 -47 -32 -57 -25 -23 -25 -35 0 -35 21 0 46 45
52 98 6 44 -6 40 -20 -6z"/>
<path d="M4191 646 c-18 -14 -39 -22 -47 -19 -9 3 -14 -2 -14 -15 0 -11 -10
-27 -22 -35 -21 -15 -16 -15 71 -12 97 4 112 8 94 26 -8 8 -17 8 -31 0 -27
-15 -39 -14 -24 1 18 18 14 27 -10 21 l-23 -6 24 26 c33 36 22 43 -18 13z"/>
<path d="M4056 575 c-3 -9 0 -15 9 -15 16 0 20 16 6 24 -5 3 -11 -1 -15 -9z"/>
<path d="M3890 570 c-9 -6 -10 -10 -3 -10 6 0 15 5 18 10 8 12 4 12 -15 0z"/>
</g>
</svg>
